<svg width="629" height="377" viewBox="0 0 629 377" fill="none" xmlns="http://www.w3.org/2000/svg">
<g clip-path="url(#clip0)">
<path d="M517.326 43.1724C445.051 -12.5925 344.499 -14.8711 271.141 39.4626C232.363 68.1854 202.299 112.129 207.769 179.037C209.702 202.704 215.083 222.119 222.933 238.013C254.727 302.445 385.314 299.964 392.567 299.955C397.265 299.95 401.964 300.055 406.662 300.27C423.12 301.026 439.491 303.098 455.619 306.466C478.614 311.263 507.887 313.673 534.042 304.587C538.486 303.051 542.804 301.171 546.957 298.966C561.331 291.32 577.421 284.014 586.827 265.879C593.896 252.269 599.046 235.202 601.525 213.946C610.546 136.535 565.469 80.3177 517.326 43.1724Z" fill="#F2F2F2"/>
<path d="M406.978 320.616C521.121 320.616 613.651 311.921 613.651 301.196C613.651 290.471 521.121 281.777 406.978 281.777C292.836 281.777 200.305 290.471 200.305 301.196C200.305 311.921 292.836 320.616 406.978 320.616Z" fill="#3F3D56"/>
<path opacity="0.1" d="M396.882 310.311C503.043 310.311 589.104 306.231 589.104 301.196C589.104 296.162 503.043 292.081 396.882 292.081C290.721 292.081 204.66 296.162 204.66 301.196C204.66 306.231 290.721 310.311 396.882 310.311Z" fill="black"/>
<path d="M503.222 41.1194V62.9058H474.886V300.503H534.022V71.9497V62.9058V41.1194H503.222Z" fill="#575A89"/>
<path d="M347.168 187.459V150.052H311.03V187.459H297.478V300.914H360.309V187.459H347.168Z" fill="#575A89"/>
<path d="M353.328 248.297H304.459V301.325H353.328V248.297Z" fill="#3F3D56"/>
<path opacity="0.1" d="M312.262 248.297H304.459V301.325H312.262V248.297Z" fill="black"/>
<path d="M453.942 29.1982V41.9413H381.664V29.1982H360.309V301.325H474.886V29.1982H453.942Z" fill="#3F3D56"/>
<path opacity="0.1" d="M469.958 29.1984H453.942V41.9415H469.958V29.1984Z" fill="black"/>
<path opacity="0.1" d="M376.326 29.1984H360.31V301.325H376.326V29.1984Z" fill="black"/>
<path d="M278.587 106.89V96.6133H267.91V106.89H248.608V301.325H297.478V106.89H278.587Z" fill="#3F3D56"/>
<path opacity="0.1" d="M273.659 96.6134H267.909V106.89H273.659V96.6134Z" fill="black"/>
<path opacity="0.1" d="M254.357 106.89H248.608V301.325H254.357V106.89Z" fill="black"/>
<path opacity="0.1" d="M469.958 134.021H453.942V301.325H469.958V134.021Z" fill="black"/>
<path opacity="0.1" d="M297.478 106.89H282.694V142.653H297.478V106.89Z" fill="black"/>
<path d="M400.966 63.7281H377.968V73.5937H400.966V63.7281Z" fill="#FF6584"/>
<path d="M449.835 165.262H426.838V175.127H449.835V165.262Z" fill="#FF6584"/>
<path d="M400.966 236.376H377.968V246.242H400.966V236.376Z" fill="#FF6584"/>
<path d="M284.747 151.285H261.75V161.151H284.747V151.285Z" fill="#FF6584"/>
<path d="M340.597 254.052H317.6V263.918H340.597V254.052Z" fill="#FF6584"/>
<path opacity="0.1" d="M348.811 196.092H309.387V212.534H348.811V196.092Z" fill="black"/>
<path opacity="0.1" d="M521.291 81.815H481.867V98.2577H521.291V81.815Z" fill="black"/>
<path opacity="0.1" d="M521.291 116.756H481.867V133.198H521.291V116.756Z" fill="black"/>
<path opacity="0.1" d="M521.291 151.696H481.867V168.139H521.291V151.696Z" fill="black"/>
<path opacity="0.1" d="M521.291 186.637H481.867V203.08H521.291V186.637Z" fill="black"/>
<path opacity="0.1" d="M521.291 221.578H481.867V238.021H521.291V221.578Z" fill="black"/>
<path opacity="0.1" d="M521.291 256.519H481.867V272.961H521.291V256.519Z" fill="black"/>
<path d="M547.574 156.218V111.412H518.827V156.218H508.56V301.325H557.43V156.218H547.574Z" fill="#3F3D56"/>
<path opacity="0.1" d="M527.862 111.412H518.827V156.218H527.862V111.412Z" fill="black"/>
<path opacity="0.1" d="M517.595 156.218H508.561V301.325H517.595V156.218Z" fill="black"/>
<path opacity="0.1" d="M557.43 228.977H533.2V243.364H557.43V228.977Z" fill="black"/>
<path d="M557.019 207.602H534.022V217.467H557.019V207.602Z" fill="#FF6584"/>
<path d="M629 217.561C629 254.184 607.25 266.971 580.419 266.971C553.589 266.971 531.839 254.184 531.839 217.561C531.839 180.939 580.419 134.349 580.419 134.349C580.419 134.349 629 180.939 629 217.561Z" fill="#FFA500"/>
<path d="M578.65 261.369L579.147 230.719L599.853 192.801L579.225 225.911L579.449 212.13L593.719 184.696L579.508 208.483L579.91 183.697L595.191 161.856L579.973 179.799L580.225 134.349L578.645 194.516L578.775 192.034L563.238 168.229L578.526 196.799L577.078 224.481L577.035 223.746L559.124 198.695L576.981 226.342L576.8 229.804L576.767 229.856L576.782 230.14L573.11 300.372H578.017L578.605 264.096L596.418 236.517L578.65 261.369Z" fill="#3F3D56"/>
<path d="M272.955 217.958C272.955 254.58 251.205 267.367 224.375 267.367C197.544 267.367 175.794 254.58 175.794 217.958C175.794 181.335 224.375 134.746 224.375 134.746C224.375 134.746 272.955 181.335 272.955 217.958Z" fill="#FFA500"/>
<path d="M222.605 261.765L223.102 231.116L243.809 193.197L223.181 226.307L223.404 212.526L237.675 185.093L223.464 208.879V208.879L223.866 184.093L239.147 162.252L223.929 180.195L224.18 134.746L222.6 194.913L222.73 192.431L207.194 168.626L222.481 197.195L221.034 224.877L220.991 224.143L203.08 199.092L220.936 226.739L220.755 230.2L220.723 230.252L220.738 230.536L217.065 300.768H221.972L222.561 264.492L240.374 236.914L222.605 261.765Z" fill="#3F3D56"/>
<path d="M115.942 377C179.975 377 231.884 369.972 231.884 361.302C231.884 352.632 179.975 345.603 115.942 345.603C51.909 345.603 0 352.632 0 361.302C0 369.972 51.909 377 115.942 377Z" fill="#3F3D56"/>
<path opacity="0.1" d="M115.942 373.587C166.055 373.587 206.679 368.087 206.679 361.302C206.679 354.517 166.055 349.016 115.942 349.016C65.8293 349.016 25.2048 354.517 25.2048 361.302C25.2048 368.087 65.8293 373.587 115.942 373.587Z" fill="black"/>
<path d="M99.5476 137.796C113.15 137.796 124.177 126.758 124.177 113.142C124.177 99.5259 113.15 88.488 99.5476 88.488C85.9449 88.488 74.9177 99.5259 74.9177 113.142C74.9177 126.758 85.9449 137.796 99.5476 137.796Z" fill="#2F2E41"/>
<path d="M106.274 135.21C113.887 135.21 120.059 129.032 120.059 121.412C120.059 113.791 113.887 107.613 106.274 107.613C98.661 107.613 92.4893 113.791 92.4893 121.412C92.4893 129.032 98.661 135.21 106.274 135.21Z" fill="#FFB9B9"/>
<path d="M98.564 128.662C98.564 128.662 102.069 137.081 96.6948 139.42C91.3211 141.758 93.4238 155.557 93.4238 155.557L114.452 151.113C114.452 151.113 114.452 145.266 110.246 142.694C106.041 140.121 115.854 128.662 115.854 128.662H98.564Z" fill="#FFB9B9"/>
<path d="M91.7886 190.871L92.4893 198.589L124.031 203.968L120.994 189.702L91.7886 190.871Z" fill="#FFB9B9"/>
<path d="M91.3211 252.846L92.4894 285.588C92.4894 285.588 86.8819 298.919 91.3211 323.475C95.7603 348.031 92.4894 354.814 92.4894 354.814L108.377 356.919L107.442 347.798L103.704 339.846L105.34 294.475C105.34 294.475 112.583 277.637 112.816 274.363C113.05 271.088 112.349 247.234 112.349 247.234L91.3211 252.846Z" fill="#FFB9B9"/>
<path opacity="0.1" d="M91.3211 252.846L92.4894 285.588C92.4894 285.588 86.8819 298.919 91.3211 323.475C95.7603 348.031 92.4894 354.814 92.4894 354.814L108.377 356.919L107.442 347.798L103.704 339.846L105.34 294.475C105.34 294.475 112.583 277.637 112.816 274.363C113.05 271.088 112.349 247.234 112.349 247.234L91.3211 252.846Z" fill="black"/>
<path d="M96.2275 343.588C96.2275 343.588 96.2275 340.548 94.8257 340.314C93.4238 340.08 91.5547 339.378 91.5547 340.314C91.5547 341.249 91.321 347.798 90.8538 348.733C90.3865 349.669 89.4519 353.177 90.1528 354.58C90.1528 354.58 88.05 359.959 89.6855 360.427C91.321 360.894 100.667 360.894 100.667 360.894L101.134 358.322C101.134 358.322 121.928 364.87 126.367 359.023C126.367 359.023 128.47 354.814 124.732 353.878C124.732 353.878 116.321 354.112 113.283 350.604C110.246 347.096 104.405 338.911 104.405 338.911C104.405 338.911 99.7322 339.612 100.199 342.652V343.588H96.2275Z" fill="#2F2E41"/>
<path d="M104.171 253.548C104.171 253.548 106.508 269.919 114.685 281.846C114.685 281.846 118.891 291.669 118.19 294.709C117.489 297.749 117.489 314.354 124.498 329.088L131.04 350.604L134.311 358.322L139.919 360.66L149.031 361.362L143.891 350.604L141.321 344.991C141.321 344.991 136.648 335.402 136.648 326.983C136.648 318.564 133.61 298.685 133.61 298.685C133.61 298.685 133.61 253.782 128.704 250.975C123.797 248.169 104.171 253.548 104.171 253.548Z" fill="#FFB9B9"/>
<path d="M93.6576 196.25L91.3212 195.782V206.306C91.3212 206.306 90.3866 214.492 88.2838 216.129C86.181 217.766 78.0036 250.04 80.8073 251.911C83.611 253.782 121.227 263.604 130.339 253.548L124.031 222.911C124.031 222.911 124.498 201.863 124.031 201.863C123.564 201.863 93.6576 196.25 93.6576 196.25Z" fill="#2F2E41"/>
<path d="M115.853 149.008C115.853 149.008 104.171 141.057 92.4892 151.347C92.4892 151.347 88.2836 168.653 87.5827 172.863C86.8818 177.073 82.4426 194.379 85.7136 196.016C88.9846 197.653 88.9846 192.04 97.3957 193.21C105.807 194.379 123.797 193.911 123.797 192.508C123.797 191.105 119.592 179.879 121.227 178.008C122.863 176.137 125.666 167.25 122.863 162.807C120.059 158.363 115.853 149.008 115.853 149.008Z" fill="#FFA500"/>
<path d="M100.667 196.25L124.031 207.242C124.031 207.242 133.377 219.169 135.479 212.387C137.582 205.605 128.47 200.693 128.47 200.693L112.816 191.806L100.667 195.782L100.667 196.25Z" fill="#FFB9B9"/>
<path opacity="0.1" d="M102.302 151.347C102.302 151.347 88.9847 192.508 101.134 199.056C113.284 205.605 115.153 193.21 115.153 193.21C115.153 193.21 106.975 188.065 109.545 181.75C112.115 175.436 114.452 151.347 114.452 151.347L102.302 151.347Z" fill="black"/>
<path d="M101.601 149.944C101.601 149.944 88.2838 191.105 100.433 197.653C112.583 204.202 114.452 191.806 114.452 191.806C114.452 191.806 106.274 186.661 108.844 180.347C111.414 174.032 113.751 149.944 113.751 149.944L101.601 149.944Z" fill="#FFA500"/>
<path d="M133.712 348.396C133.712 348.396 133.477 345.211 131.991 345.075C130.505 344.938 128.493 344.348 128.565 345.328C128.637 346.307 128.898 353.184 128.48 354.2C128.063 355.216 127.355 358.962 128.197 360.378C128.197 360.378 126.41 366.174 128.159 366.538C129.908 366.901 139.696 366.179 139.696 366.179L139.987 363.448C139.987 363.448 162.272 368.7 166.47 362.233C166.47 362.233 168.348 357.662 164.36 356.971C164.36 356.971 155.569 357.866 152.117 354.426C148.665 350.987 141.916 342.865 141.916 342.865C141.916 342.865 137.076 343.961 137.8 347.109L137.872 348.089L133.712 348.396Z" fill="#2F2E41"/>
<path d="M106.245 121.36C115.433 121.36 122.881 117.39 122.881 112.493C122.881 107.596 115.433 103.626 106.245 103.626C97.0573 103.626 89.6091 107.596 89.6091 112.493C89.6091 117.39 97.0573 121.36 106.245 121.36Z" fill="#2F2E41"/>
<path d="M92.4181 127.415C93.7306 127.415 94.7946 125.769 94.7946 123.739C94.7946 121.708 93.7306 120.062 92.4181 120.062C91.1055 120.062 90.0415 121.708 90.0415 123.739C90.0415 125.769 91.1055 127.415 92.4181 127.415Z" fill="#FFB9B9"/>
<path d="M84.4241 100.166C90.8675 100.166 96.0908 94.9376 96.0908 88.488C96.0908 82.0383 90.8675 76.8099 84.4241 76.8099C77.9807 76.8099 72.7573 82.0383 72.7573 88.488C72.7573 94.9376 77.9807 100.166 84.4241 100.166Z" fill="#2F2E41"/>
</g>
<defs>
<clipPath id="clip0">
<rect width="629" height="377" fill="white"/>
</clipPath>
</defs>
</svg>
