<svg width="598" height="367" viewBox="0 0 598 367" fill="none" xmlns="http://www.w3.org/2000/svg">
<g clip-path="url(#clip0)">
<path d="M294.397 367C456.987 367 588.793 356.402 588.793 343.329C588.793 330.256 456.987 319.658 294.397 319.658C131.806 319.658 0 330.256 0 343.329C0 356.402 131.806 367 294.397 367Z" fill="#3F3D56"/>
<path opacity="0.1" d="M206.89 357.223C283.525 357.223 345.65 349.505 345.65 339.984C345.65 330.463 283.525 322.745 206.89 322.745C130.255 322.745 68.13 330.463 68.13 339.984C68.13 349.505 130.255 357.223 206.89 357.223Z" fill="black"/>
<path d="M137.741 134.174C72.5741 134.174 19.7515 177.667 19.7515 231.313C19.7515 284.959 72.5991 328.452 137.741 328.452C145.77 328.455 153.779 327.786 161.643 326.455C150.416 311.26 144.495 293.811 144.529 276.026C144.529 229.126 184.907 189.986 238.611 180.888C228.093 166.62 213.285 154.825 195.616 146.643C177.947 138.46 158.014 134.165 137.741 134.174Z" fill="#FFA500"/>
<path opacity="0.1" d="M31.6586 234.107C31.6586 180.461 84.4874 136.973 149.648 136.973C155.992 136.974 162.325 137.392 168.587 138.224C158.53 135.993 148.158 134.867 137.741 134.874C72.5741 134.874 19.7515 178.367 19.7515 232.013C19.7515 280.384 62.6859 320.476 118.89 327.907C93.8515 322.335 71.7395 310.128 55.972 293.174C40.2046 276.219 31.6598 255.461 31.6586 234.107Z" fill="black"/>
<path d="M238.049 180.183C255.381 171.525 269.708 159.334 279.649 144.787C289.589 130.241 294.806 113.83 294.797 97.139C294.797 43.4931 241.974 0 176.807 0C111.639 0 58.823 43.4931 58.823 97.139C58.82 103.751 59.6325 110.346 61.2482 116.822C79.7024 107.574 100.898 102.697 122.503 102.727C179.457 102.712 226.998 135.975 238.049 180.183Z" fill="#FFA500"/>
<path opacity="0.1" d="M284.627 97.139C284.641 112.352 280.308 127.354 271.979 140.933C263.65 154.513 251.558 166.289 236.68 175.31C237.186 176.921 237.655 178.542 238.067 180.183C255.399 171.525 269.727 159.334 279.668 144.787C289.608 130.241 294.825 113.83 294.815 97.139C294.815 43.4931 241.993 0 176.825 0C175.119 0 173.425 0.0360186 171.738 0.0977693C234.517 2.29507 284.627 44.8979 284.627 97.139Z" fill="black"/>
<path d="M232.898 223.867C230.966 224.679 229.129 225.637 227.41 226.728C225.684 227.828 224.362 229.302 223.591 230.984C222.523 229.157 221.941 227.171 221.229 225.231C219.864 221.711 218.253 218.259 216.403 214.893C219.449 213.935 222.088 212.267 223.998 210.091C227.748 213.153 231.567 216.344 233.423 220.383C233.742 221.083 234.673 221.829 234.892 222.442C235.186 223.352 233.711 223.496 232.898 223.867Z" fill="#FFBFC5"/>
<path d="M129.616 323.018C129.616 345.979 149.736 348.413 174.563 348.413C199.39 348.413 219.504 345.979 219.504 323.018C219.504 300.057 199.383 291.335 174.563 291.335C149.742 291.335 129.616 300.062 129.616 323.018Z" fill="#3F3D56"/>
<path d="M268.02 298.446C272.098 299.505 275.9 301.181 279.233 303.386C279.483 303.515 279.664 303.718 279.739 303.953C279.827 304.467 278.964 304.699 278.339 304.848C276.464 305.285 275.32 306.711 273.964 307.822C272.607 308.934 270.432 309.814 268.851 308.923C268.436 308.661 268.073 308.347 267.776 307.992L261.1 300.829C263.364 299.786 265.743 298.924 268.207 298.256" fill="#F1F1F1"/>
<path d="M280.027 299.939C280.914 300.68 281.277 301.75 282.164 302.512C282.747 302.971 283.413 303.351 284.14 303.639L289.252 305.954C290.046 306.341 290.883 306.664 291.753 306.917C292.715 307.142 293.694 307.314 294.684 307.431C296.103 307.657 297.489 308.002 298.822 308.46C299.822 308.8 300.941 309.381 300.935 310.272C300.891 310.709 300.671 311.122 300.31 311.445C298.297 313.534 294.728 314.018 291.503 314.28C284.527 314.888 277.389 315.34 270.57 313.987C269.238 313.785 267.979 313.336 266.888 312.675C264.832 311.27 264.388 308.712 265.188 306.608C265.405 305.799 265.986 305.088 266.813 304.616C267.895 304.102 269.238 304.344 270.482 304.266C271.792 304.114 273.061 303.778 274.233 303.273C275.014 302.985 275.908 302.609 276.108 301.848C276.308 301.086 275.251 300.428 275.483 299.789C275.92 298.354 279.214 299.254 280.027 299.939Z" fill="#575A89"/>
<path opacity="0.1" d="M280.027 299.939C280.914 300.68 281.277 301.75 282.164 302.512C282.747 302.971 283.413 303.351 284.14 303.639L289.252 305.954C290.046 306.341 290.883 306.664 291.753 306.917C292.715 307.142 293.694 307.314 294.684 307.431C296.103 307.657 297.489 308.002 298.822 308.46C299.822 308.8 300.941 309.381 300.935 310.272C300.891 310.709 300.671 311.122 300.31 311.445C298.297 313.534 294.728 314.018 291.503 314.28C284.527 314.888 277.389 315.34 270.57 313.987C269.238 313.785 267.979 313.336 266.888 312.675C264.832 311.27 264.388 308.712 265.188 306.608C265.405 305.799 265.986 305.088 266.813 304.616C267.895 304.102 269.238 304.344 270.482 304.266C271.792 304.114 273.061 303.778 274.233 303.273C275.014 302.985 275.908 302.609 276.108 301.848C276.308 301.086 275.251 300.428 275.483 299.789C275.92 298.354 279.214 299.254 280.027 299.939Z" fill="black"/>
<path d="M291.884 322.92L294.034 324.088C294.691 324.377 295.231 324.817 295.59 325.354C296.059 326.255 295.428 327.274 294.728 328.066C292.627 330.432 289.759 332.262 286.452 333.346C285.306 333.739 284.094 333.987 282.858 334.082C282.577 334.12 282.289 334.091 282.027 333.999C281.371 333.711 281.464 332.944 281.458 332.332C281.458 330.567 279.814 329.131 278.333 327.829C276.851 326.528 275.389 324.932 275.726 323.198C276.036 322.168 276.685 321.227 277.602 320.481C278.407 319.645 279.354 318.908 280.414 318.294C281.933 317.476 282.464 317.918 283.89 318.665C286.569 320.068 289.234 321.486 291.884 322.92Z" fill="#F1F1F1"/>
<path d="M284.908 331.535C285.492 331.656 286.103 331.663 286.69 331.553C287.278 331.444 287.826 331.223 288.29 330.907C289.214 330.269 289.962 329.476 290.484 328.581C291.009 327.789 291.464 326.967 291.846 326.121C292.296 325.128 292.709 324.032 293.771 323.43C295.022 322.699 296.859 322.987 298.147 323.692C299.434 324.397 300.409 325.442 301.516 326.348C304.122 328.488 307.554 329.842 311.079 330.727C314.604 331.612 318.261 332.054 321.88 332.625C322.606 332.705 323.309 332.892 323.955 333.176C325.418 333.912 325.911 335.554 325.499 336.922C325.086 338.291 324.005 339.423 322.824 340.452C321.839 341.412 320.619 342.19 319.242 342.732C318.081 343.081 316.859 343.272 315.623 343.298C309.628 343.631 303.606 343.243 297.747 342.145C295.596 341.662 293.408 341.302 291.196 341.07C289.852 340.972 288.49 341.003 287.146 340.926C284.461 340.774 281.836 340.204 279.408 339.248C278.818 339.069 278.321 338.727 278.002 338.281C277.825 337.871 277.788 337.43 277.895 337.005L278.789 330.552C278.87 329.991 279.095 329.291 279.777 329.203C280.458 329.116 280.889 329.667 281.296 330.089C282.084 330.864 283.163 331.403 284.364 331.619C285.564 331.835 286.817 331.717 287.927 331.282" fill="#575A89"/>
<path d="M233.005 250.157C236.936 249.792 241.499 249.73 244.162 252.144C245.793 253.626 246.287 255.699 246.849 257.639C247.731 260.903 249.166 264.049 251.112 266.984C252.362 268.806 253.881 270.509 254.862 272.444C255.844 274.379 256.213 276.561 256.788 278.666C259.091 286.92 264.717 294.29 272.751 299.578C271.332 302.754 267.226 304.57 263.232 305.383C262.268 305.646 261.232 305.673 260.25 305.46C259.506 305.195 258.846 304.794 258.319 304.287C256.453 302.626 254.714 300.872 253.112 299.033C247.356 292.704 241.518 286.245 238.38 278.779C237.28 276.154 236.18 273.118 233.086 272.002C231.323 271.374 229.304 271.569 227.41 271.837C223.178 272.426 219.013 273.306 214.96 274.467C210.634 275.707 205.684 277.23 201.727 275.336C199.358 274.199 197.977 272.022 197.433 269.809C196.889 267.597 197.164 265.312 197.433 263.068C197.46 262.057 197.754 261.063 198.296 260.156C198.844 259.477 199.546 258.891 200.365 258.432C203.899 256.228 207.83 254.492 212.016 253.286C216.01 252.123 220.31 251.742 224.479 251.161C227.308 250.756 230.15 250.421 233.005 250.157Z" fill="#575A89"/>
<path opacity="0.1" d="M233.005 250.157C236.936 249.792 241.499 249.73 244.162 252.144C245.793 253.626 246.287 255.699 246.849 257.639C247.731 260.903 249.166 264.049 251.112 266.984C252.362 268.806 253.881 270.509 254.862 272.444C255.844 274.379 256.213 276.561 256.788 278.666C259.091 286.92 264.717 294.29 272.751 299.578C271.332 302.754 267.226 304.57 263.232 305.383C262.268 305.646 261.232 305.673 260.25 305.46C259.506 305.195 258.846 304.794 258.319 304.287C256.453 302.626 254.714 300.872 253.112 299.033C247.356 292.704 241.518 286.245 238.38 278.779C237.28 276.154 236.18 273.118 233.086 272.002C231.323 271.374 229.304 271.569 227.41 271.837C223.178 272.426 219.013 273.306 214.96 274.467C210.634 275.707 205.684 277.23 201.727 275.336C199.358 274.199 197.977 272.022 197.433 269.809C196.889 267.597 197.164 265.312 197.433 263.068C197.46 262.057 197.754 261.063 198.296 260.156C198.844 259.477 199.546 258.891 200.365 258.432C203.899 256.228 207.83 254.492 212.016 253.286C216.01 252.123 220.31 251.742 224.479 251.161C227.308 250.756 230.15 250.421 233.005 250.157Z" fill="black"/>
<path d="M255.519 273.509C257.354 274.265 259.04 275.245 260.519 276.417C262.113 277.817 263.082 279.623 263.907 281.424C264.231 282.038 264.429 282.691 264.494 283.359C264.525 283.692 264.462 284.026 264.311 284.337C264.161 284.647 263.926 284.925 263.626 285.149C262.899 285.542 262.035 285.723 261.169 285.664C260.032 285.664 258.888 285.664 257.75 285.592C257.057 285.588 256.371 285.48 255.725 285.273C255.134 285.024 254.6 284.692 254.15 284.29C252.145 282.758 250.503 280.933 249.306 278.907C248.481 277.41 247.118 273.952 248.418 272.393C249.718 270.834 254.106 272.846 255.519 273.509Z" fill="#FFBFC5"/>
<path d="M200.371 272.974C206.19 274.518 212.384 274.683 218.466 275.151C228.695 275.939 238.801 277.584 248.624 280.06C250.637 280.575 252.694 281.13 254.312 282.237C255.628 283.238 256.742 284.406 257.613 285.695C259.211 287.699 260.657 289.782 261.944 291.932C263.051 293.877 263.894 295.915 264.919 297.886C268.373 304.487 273.834 310.245 280.777 314.605C282.027 315.402 283.458 316.267 283.783 317.548C283.931 318.375 283.768 319.219 283.315 319.967C281.814 322.843 278.702 324.938 275.433 326.538C274.033 327.227 272.482 327.922 271.795 329.147C266.832 327.459 263.138 323.857 260.069 320.234C257 316.611 254.269 312.706 250.331 309.7C248.599 308.373 246.631 307.22 245.262 305.625C243.18 303.196 242.618 299.872 239.818 297.999C237.017 296.126 232.942 296.367 229.323 296.661C210.781 298.149 192.097 297.977 173.6 296.146C169.756 295.771 165.806 295.287 162.474 293.656C159.143 292.024 156.549 288.978 157.018 285.813C157.462 282.849 160.456 280.503 163.8 279.345C167.144 278.187 170.831 277.976 174.425 277.642C183.37 276.829 191.908 275.491 200.371 272.974Z" fill="#575A89"/>
<path d="M147.186 279.124C147.642 276.612 148.823 274.235 149.567 271.77C149.938 270.219 150.41 268.685 150.98 267.175C150.98 267.128 151.024 267.087 151.042 267.046C151.231 267.034 151.414 266.987 151.578 266.91C151.742 266.832 151.884 266.726 151.992 266.598C152.095 266.379 152.123 266.141 152.074 265.909C152.052 265.664 152.052 265.418 152.074 265.173C153.292 263.492 154.623 261.869 156.061 260.31C158.562 257.372 160.762 254.248 162.937 251.13C164.725 248.557 166.512 246.015 167.987 243.329C169.1 241.317 170.031 239.212 171.256 237.267C175.632 230.268 183.457 225.107 191.883 221.402C199.971 217.846 208.715 215.453 217.216 212.623C217.432 212.802 217.631 212.995 217.81 213.2C222.404 218.371 222.898 225.164 224.791 231.38C225.554 233.891 226.573 236.392 226.573 238.975C226.573 242.794 224.354 246.344 222.147 249.704C220.079 252.869 217.947 256.034 215.203 258.828C213.903 260.156 212.472 261.401 211.165 262.713C205.803 268.122 202.709 274.775 199.696 281.305C197.958 285.088 195.108 288.438 193.195 292.163C192.458 293.594 192.033 295.132 191.108 296.491C190.183 297.849 188.576 299.033 186.689 299.064C186.136 299.05 185.588 298.979 185.057 298.853C178.226 297.407 172.506 293.707 166.831 290.239C165.812 289.621 164.793 289.014 163.706 288.458C162.618 287.902 161.518 287.393 160.405 286.914L157.868 285.767C155.105 284.522 152.33 283.271 149.448 282.216C148.579 281.937 147.742 281.592 146.948 281.187C146.957 280.495 147.036 279.805 147.186 279.124Z" fill="#3F3D56"/>
<path d="M236.492 223.435C245.185 223.435 252.231 217.634 252.231 210.477C252.231 203.321 245.185 197.52 236.492 197.52C227.8 197.52 220.754 203.321 220.754 210.477C220.754 217.634 227.8 223.435 236.492 223.435Z" fill="#FFBFC5"/>
<path d="M247.087 204.415C247.47 204.961 248.047 205.396 248.739 205.664C249.432 205.932 250.208 206.019 250.962 205.913C251.713 205.789 252.424 205.535 253.048 205.169C253.671 204.803 254.194 204.332 254.581 203.788C255.347 202.695 255.804 201.474 255.919 200.216C256.05 199.234 256.031 198.158 255.262 197.391C254.678 196.921 254.005 196.531 253.268 196.239C252.25 195.724 251.393 195.019 250.768 194.18C250.331 193.578 250.012 192.925 249.618 192.307C248.187 190.069 245.399 188.247 242.33 188.329C240.855 188.371 239.449 188.844 237.992 189.04C233.111 189.745 227.81 187.619 223.279 189.276C222.166 189.722 221.132 190.29 220.204 190.964C218.928 191.832 217.703 192.745 216.528 193.702C215.508 194.417 214.736 195.342 214.291 196.383C213.666 198.287 215.134 200.412 214.203 202.223C213.887 202.742 213.508 203.234 213.072 203.69C212.047 204.93 213.159 209.772 213.072 211.27C212.945 211.997 213.169 212.736 213.697 213.328C214.441 214.013 215.684 214.069 216.822 214.079H218.866C219.171 214.098 219.478 214.072 219.772 214.002C220.174 213.857 220.528 213.635 220.804 213.354C222.504 211.877 222.866 207.055 225.335 207.076C225.712 207.055 226.086 207.135 226.404 207.302C226.848 207.57 226.979 208.069 227.298 208.44C227.66 208.792 228.15 209.04 228.696 209.145C229.242 209.251 229.814 209.209 230.329 209.026C231.348 208.637 232.235 208.046 232.911 207.307C233.582 206.569 234.398 205.928 235.323 205.409C236.642 204.776 238.13 204.503 239.411 203.788C240.48 203.191 241.086 202.326 242.049 201.668C243.011 201.009 243.824 201.102 244.849 201.539C246.33 202.213 246.393 203.283 247.087 204.415Z" fill="#3F3D56"/>
<path opacity="0.1" d="M210.722 227.243C214.396 226.811 218.14 227.057 221.685 227.963C222.868 228.188 223.937 228.711 224.741 229.46C225.202 230.026 225.501 230.67 225.616 231.344C226.339 234.444 225.874 237.652 224.285 240.524C224.173 240.668 224.099 240.829 224.068 240.997C224.037 241.166 224.049 241.338 224.104 241.502C224.266 241.708 224.479 241.883 224.729 242.016C224.949 242.192 225.122 242.404 225.236 242.638C225.35 242.872 225.402 243.124 225.39 243.376C225.378 243.628 225.301 243.875 225.164 244.101C225.028 244.327 224.834 244.527 224.598 244.687C224.304 244.862 223.916 245.017 223.86 245.31C223.804 245.603 224.166 245.886 224.454 246.113C224.873 246.451 225.182 246.87 225.353 247.332C225.523 247.795 225.549 248.285 225.429 248.758C225.274 249.137 225.167 249.528 225.11 249.926C225.173 250.414 225.349 250.887 225.629 251.32C226.107 252.299 226.268 253.363 226.098 254.408C225.946 254.901 225.931 255.417 226.054 255.916C226.23 256.245 226.466 256.551 226.754 256.821C227.885 258.077 228.129 260.176 226.492 260.938C227.193 261.235 227.765 261.705 228.127 262.283C228.489 262.86 228.623 263.516 228.51 264.159C229.492 263.732 230.679 264.283 231.498 264.9C232.317 265.518 233.148 266.279 234.255 266.326C235.03 266.357 235.848 266.027 236.549 266.29C237.624 266.686 237.586 268.122 238.642 268.549C239.567 268.93 240.861 268.312 241.649 268.863C241.924 269.053 242.061 269.346 242.33 269.547C242.924 270 243.862 269.809 244.674 269.779C246.593 269.717 248.362 270.808 249.356 272.135C250.35 273.463 250.706 275.084 250.962 276.648C251.173 277.508 251.152 278.395 250.9 279.247C250.767 279.67 250.486 280.052 250.091 280.345C249.697 280.638 249.206 280.829 248.681 280.894C239.024 281.408 229.492 279.499 220.085 277.616C217.322 277.06 214.516 276.412 212.209 275.043C210.115 273.792 208.578 272.032 207.078 270.303C204.309 267.108 201.521 263.892 199.54 260.326C196.989 255.741 195.852 250.718 194.739 245.752C194.355 244.422 194.219 243.051 194.333 241.687C194.67 240.092 195.411 238.574 196.508 237.231C197.832 235.452 199.293 233.745 200.883 232.121C203.302 229.666 206.921 227.69 210.722 227.243Z" fill="black"/>
<path d="M211.353 226.728C215.03 226.296 218.777 226.544 222.323 227.454C223.507 227.674 224.576 228.196 225.379 228.946C225.837 229.513 226.136 230.156 226.254 230.829C226.974 233.929 226.509 237.137 224.923 240.01C224.811 240.153 224.737 240.314 224.706 240.483C224.675 240.651 224.687 240.823 224.741 240.987C224.903 241.194 225.116 241.369 225.367 241.502C225.587 241.677 225.76 241.889 225.874 242.124C225.988 242.358 226.04 242.609 226.028 242.862C226.015 243.114 225.938 243.361 225.802 243.587C225.665 243.813 225.472 244.012 225.235 244.173C224.941 244.348 224.554 244.502 224.498 244.795C224.441 245.089 224.804 245.372 225.123 245.598C225.542 245.936 225.851 246.356 226.021 246.818C226.192 247.28 226.218 247.77 226.098 248.243C225.943 248.622 225.836 249.014 225.779 249.411C225.839 249.899 226.013 250.372 226.292 250.806C226.774 251.783 226.938 252.848 226.767 253.893C226.573 254.304 226.533 254.752 226.649 255.182C226.766 255.612 227.036 256.003 227.423 256.307C228.554 257.562 228.798 259.662 227.16 260.454C227.862 260.75 228.434 261.219 228.796 261.796C229.158 262.373 229.292 263.028 229.179 263.671C230.161 263.243 231.348 263.794 232.167 264.412C232.986 265.029 233.817 265.791 234.923 265.837C235.699 265.868 236.511 265.538 237.217 265.801C238.292 266.202 238.255 267.633 239.311 268.065C240.236 268.441 241.53 267.823 242.318 268.374C242.593 268.564 242.73 268.858 242.999 269.058C243.593 269.511 244.53 269.321 245.343 269.29C247.262 269.228 249.031 270.319 250.025 271.647C250.929 273.045 251.476 274.581 251.631 276.16C251.831 277.011 251.81 277.888 251.568 278.733C251.436 279.156 251.155 279.538 250.76 279.831C250.365 280.124 249.875 280.314 249.35 280.379C239.693 280.894 230.161 278.985 220.754 277.101C217.991 276.546 215.178 275.897 212.878 274.528C210.784 273.283 209.247 271.518 207.746 269.789C204.978 266.599 202.19 263.382 200.208 259.816C197.658 255.226 196.521 250.204 195.408 245.243C195.024 243.911 194.887 242.539 195.002 241.173C195.321 239.58 196.043 238.06 197.121 236.711C198.441 234.932 199.902 233.227 201.496 231.606C203.94 229.142 207.559 227.171 211.353 226.728Z" fill="#3F3D56"/>
<path d="M568.279 135.908C569.969 135.643 571.574 135.096 572.996 134.3C574.419 133.503 575.627 132.475 576.547 131.279C577.468 130.083 578.08 128.743 578.346 127.345C578.612 125.946 578.527 124.517 578.095 123.146C577.664 121.775 576.895 120.492 575.837 119.376C574.779 118.259 573.454 117.334 571.944 116.656C570.433 115.978 568.77 115.563 567.057 115.436C565.344 115.309 563.618 115.472 561.985 115.916C566.882 121.76 569.111 128.842 568.279 135.908Z" fill="#F1F1F1"/>
<path d="M587.774 131.725C589.464 131.46 591.069 130.912 592.492 130.116C593.914 129.32 595.122 128.292 596.043 127.095C596.963 125.899 597.575 124.56 597.841 123.161C598.107 121.762 598.022 120.333 597.591 118.962C597.159 117.592 596.39 116.308 595.332 115.192C594.274 114.076 592.949 113.15 591.439 112.473C589.929 111.795 588.266 111.38 586.553 111.252C584.84 111.125 583.113 111.289 581.48 111.733C586.377 117.577 588.606 124.658 587.774 131.725Z" fill="#F1F1F1"/>
<path d="M568.279 135.908C565.144 136.4 561.899 135.891 559.203 134.485C556.507 133.08 554.561 130.882 553.76 128.339C552.96 125.796 553.364 123.097 554.891 120.79C556.419 118.483 558.955 116.741 561.985 115.916C557.742 110.858 551.715 106.993 544.719 104.844C537.723 102.696 530.094 102.366 522.863 103.901C537.953 120.498 544.893 141.166 542.302 161.787C549.27 160.094 555.465 156.726 560.093 152.115C564.721 147.504 567.572 141.861 568.279 135.908Z" fill="#F1F1F1"/>
<path d="M343.381 144.461C336.349 145.7 329.918 148.622 324.896 152.86C319.874 157.098 316.485 162.463 315.154 168.281C318.18 168.228 321.127 169.075 323.455 170.667C325.783 172.259 327.335 174.49 327.826 176.948C328.317 179.407 327.714 181.929 326.128 184.051C324.542 186.173 322.079 187.752 319.192 188.499C323.327 194.586 329.908 199.296 337.803 201.821C345.699 204.346 354.417 204.529 362.458 202.337C347.502 185.699 340.692 165.04 343.381 144.461Z" fill="#F1F1F1"/>
<path d="M315.167 168.281C313.362 168.308 311.585 168.654 309.958 169.296C308.33 169.938 306.889 170.862 305.733 172.003C304.577 173.144 303.733 174.477 303.259 175.911C302.784 177.345 302.69 178.846 302.983 180.313C303.276 181.779 303.949 183.176 304.956 184.41C305.963 185.643 307.281 186.683 308.82 187.46C310.359 188.237 312.083 188.731 313.875 188.911C315.667 189.09 317.485 188.95 319.205 188.499C315.031 182.355 313.602 175.202 315.167 168.281Z" fill="#F1F1F1"/>
<path d="M292.171 172.758C290.367 172.785 288.59 173.131 286.962 173.773C285.334 174.415 283.893 175.338 282.737 176.48C281.582 177.621 280.738 178.954 280.263 180.388C279.789 181.822 279.695 183.323 279.988 184.79C280.28 186.256 280.953 187.653 281.96 188.887C282.968 190.12 284.285 191.16 285.824 191.937C287.363 192.714 289.087 193.208 290.879 193.388C292.671 193.567 294.489 193.427 296.209 192.976C292.039 186.831 290.61 179.679 292.171 172.758Z" fill="#F1F1F1"/>
<path d="M484.698 78.5264L464.44 98.9607C465.413 100.216 466.267 101.53 466.997 102.892L489.298 80.3995C487.767 79.7151 486.248 79.0873 484.698 78.5264Z" fill="#F1F1F1"/>
<path d="M542.302 161.787C537.663 162.897 532.803 163.237 528.003 162.788C523.204 162.339 518.56 161.11 514.342 159.172C510.124 157.233 506.416 154.625 503.432 151.497C500.449 148.369 498.25 144.785 496.962 140.951C495.675 137.118 495.326 133.113 495.934 129.167C496.542 125.222 498.096 121.416 500.506 117.969C502.915 114.522 506.132 111.503 509.97 109.088C513.808 106.673 518.191 104.91 522.863 103.901C514.78 95.054 504.628 87.6285 493.005 82.0616L498.493 85.7512L470.116 114.373C470.27 120.021 468.486 125.59 464.968 130.441C461.451 135.292 456.343 139.228 450.231 141.796C444.119 144.365 437.251 145.462 430.416 144.961C423.58 144.461 417.055 142.383 411.59 138.967C406.124 135.55 401.94 130.934 399.518 125.649C397.095 120.363 396.533 114.621 397.896 109.084C399.258 103.547 402.491 98.4391 407.221 94.3463C411.951 90.2535 417.988 87.3421 424.637 85.9467L422.356 84.4029L435.482 71.1729C412.14 72.5853 390.139 80.6931 373.31 94.0846C356.481 107.476 345.89 125.303 343.381 144.461C352.515 142.833 362.059 144.153 370.044 148.15C378.029 152.146 383.847 158.514 386.296 165.939C388.745 173.363 387.638 181.279 383.205 188.052C378.771 194.824 371.349 199.938 362.47 202.337C374.472 215.673 391.09 225.711 410.144 231.135C429.198 236.559 449.798 237.115 469.243 232.731C488.687 228.346 506.068 219.226 519.106 206.566C532.144 193.906 540.229 178.297 542.302 161.787ZM434.013 216.225C428.422 212.47 424.309 207.433 422.194 201.753C420.08 196.073 420.059 190.004 422.134 184.314C424.209 178.624 428.287 173.569 433.852 169.787C439.417 166.005 446.22 163.667 453.399 163.068C460.579 162.469 467.812 163.637 474.186 166.423C480.559 169.209 485.786 173.488 489.205 178.72C492.624 183.952 494.082 189.9 493.395 195.814C492.707 201.728 489.904 207.341 485.342 211.944C479.224 218.115 470.38 222.033 460.754 222.835C451.128 223.638 441.51 221.261 434.013 216.225Z" fill="#F1F1F1"/>
<path d="M455.977 71.6669C453.998 71.4507 452.01 71.2792 450.014 71.1523L436.213 85.0771C438.15 85.1839 440.073 85.4197 441.964 85.7821L455.977 71.6669Z" fill="#F1F1F1"/>
<path d="M456.896 91.9057L473.691 74.9654C471.966 74.5023 470.232 74.0803 468.491 73.6995L452.821 89.5026C454.179 90.1928 455.482 90.9543 456.721 91.7822L456.896 91.9057Z" fill="#F1F1F1"/>
</g>
<defs>
<clipPath id="clip0">
<rect width="598" height="367" fill="white"/>
</clipPath>
</defs>
</svg>
