<svg width="497" height="464" viewBox="0 0 497 464" fill="none" xmlns="http://www.w3.org/2000/svg">
<g clip-path="url(#clip0)">
<path d="M434.633 133.823H368.19C359.197 100.304 355.291 69.1376 368.19 45.743C368.19 39.736 369.049 33.7877 370.719 28.2379C372.389 22.6881 374.836 17.6455 377.921 13.3978C381.005 9.1502 384.668 5.78079 388.698 3.48199C392.729 1.18319 397.049 1.25748e-05 401.412 1.25748e-05H401.412C406.714 -0.00540345 411.94 1.73879 416.651 5.08647C421.363 8.43415 425.424 13.2878 428.493 19.2409C433.743 29.3937 434.795 42.4815 431.784 54.2354C426.419 75.1839 429.695 103.769 434.633 133.823Z" fill="#2F2E41"/>
<path d="M469.725 464C467.802 464 465.93 463.151 464.383 461.578C462.836 460.005 461.697 457.791 461.131 455.261L458.394 443.011C457.76 440.177 457.639 437.172 458.039 434.259L459.903 420.69H472.98L478.406 448.396C478.765 450.232 478.813 452.156 478.545 454.021C478.278 455.885 477.702 457.64 476.862 459.149C476.023 460.657 474.943 461.88 473.705 462.721C472.467 463.562 471.105 464 469.725 464Z" fill="#2F2E41"/>
<path d="M374.449 464C376.372 464 378.244 463.151 379.791 461.578C381.338 460.005 382.478 457.791 383.043 455.261L385.78 443.011C386.414 440.177 386.536 437.172 386.135 434.259L384.271 420.69H371.194L365.768 448.396C365.409 450.232 365.361 452.156 365.629 454.021C365.896 455.885 366.472 457.64 367.312 459.149C368.151 460.657 369.232 461.88 370.469 462.721C371.707 463.562 373.069 464 374.449 464Z" fill="#2F2E41"/>
<path d="M474.04 422.15H459.55L396.64 257.67L385.035 422.15H372.254C365.698 318.574 349.746 219.914 372.254 182.729L424.914 189.542L474.04 422.15Z" fill="#2F2E41"/>
<path d="M399.645 71.5344C409.404 71.5344 417.316 60.6408 417.316 47.2029C417.316 33.7651 409.404 22.8715 399.645 22.8715C389.885 22.8715 381.974 33.7651 381.974 47.2029C381.974 60.6408 389.885 71.5344 399.645 71.5344Z" fill="#9F616A"/>
<path d="M424.561 140.879H385.331L378.616 98.0556C391.644 92.7563 394.75 80.431 392.046 63.9916L413.252 62.0451C414.453 75.2873 416.652 87.6348 430.216 89.7829L424.561 140.879Z" fill="#9F616A"/>
<path d="M424.561 194.408C402.303 206.044 384.197 205.681 371.547 189.542C377.256 163.623 377.597 131.706 375.082 96.5957L382.15 92.216L384.624 123.36L419.613 120.927L427.388 86.8631L435.163 89.2963C435.759 131.531 433.922 169.525 424.561 194.408Z" fill="#E6E6E6"/>
<path d="M445.059 246.964L449.215 265.56C449.551 267.066 449.626 268.661 449.434 270.214C449.242 271.768 448.787 273.238 448.107 274.506C447.427 275.774 446.54 276.805 445.518 277.515C444.496 278.225 443.367 278.595 442.223 278.595C441.198 278.595 440.184 278.298 439.248 277.724C438.312 277.151 437.474 276.313 436.788 275.264C436.102 274.216 435.583 272.981 435.266 271.639C434.949 270.297 434.84 268.879 434.947 267.475L436.577 245.991L429.862 172.996L434.81 140.879H447.18L445.059 246.964Z" fill="#9F616A"/>
<path d="M346.074 243.096L338.771 259.753C338.18 261.102 337.826 262.624 337.74 264.195C337.653 265.767 337.835 267.345 338.272 268.802C338.709 270.259 339.388 271.554 340.255 272.584C341.122 273.614 342.152 274.349 343.263 274.731C344.257 275.073 345.292 275.123 346.301 274.879C347.311 274.634 348.272 274.101 349.121 273.312C349.971 272.524 350.692 271.498 351.235 270.302C351.779 269.106 352.134 267.766 352.278 266.369L354.475 244.98L373.829 176.398L377.732 143.555L362.676 139.462L346.074 243.096Z" fill="#9F616A"/>
<path d="M456.016 144.772L432.69 144.285V88.323L436.281 89.0442C440.093 89.8096 443.607 92.3177 446.259 96.1654C448.91 100.013 450.545 104.977 450.9 110.258L456.016 144.772Z" fill="#E6E6E6"/>
<path d="M356.351 150.611L379.676 150.125V94.1625L376.085 94.8837C372.273 95.6491 368.759 98.1573 366.108 102.005C363.456 105.853 361.821 110.816 361.466 116.098L356.351 150.611Z" fill="#E6E6E6"/>
<path d="M415.902 35.5238C408.396 41.3719 393.97 44.0469 383.387 39.9035L379.853 14.5988H414.842L415.902 35.5238Z" fill="#2F2E41"/>
<path d="M138.002 335.878H22.9048V463.606H138.002V335.878Z" fill="#E6E6E6"/>
<path d="M90.1879 426.549H70.7188V462.817H90.1879V426.549Z" fill="#FFA500"/>
<path d="M279.454 339.65L282.518 328.402L311.109 305.906L330.511 300.282L279.454 339.65Z" fill="#FFA500"/>
<path d="M174.278 339.65L171.215 328.402L142.623 305.906L123.222 300.282L174.278 339.65Z" fill="#FFA500"/>
<path d="M281.497 342.461H172.236L163.046 283.41H290.687L281.497 342.461Z" fill="#FFA500"/>
<path opacity="0.1" d="M281.497 342.461H172.236L163.046 283.41H290.687L281.497 342.461Z" fill="black"/>
<path d="M282.007 338.946H171.726V463.606H282.007V338.946Z" fill="#FFA500"/>
<path d="M236.601 426.53H217.132V462.799H236.601V426.53Z" fill="#3F3D56"/>
<path d="M496.774 463.756H0V462.035H497L496.774 463.756Z" fill="#3F3D56"/>
<path d="M249.771 364.459H203.961V384.17H249.771V364.459Z" fill="white"/>
<path d="M103.054 364.459H57.2446V384.17H103.054V364.459Z" fill="white"/>
</g>
<defs>
<clipPath id="clip0">
<rect width="497" height="464" fill="white"/>
</clipPath>
</defs>
</svg>
