<svg width="554" height="334" viewBox="0 0 554 334" fill="none" xmlns="http://www.w3.org/2000/svg">
<g clip-path="url(#clip0)">
<path d="M484.481 96.3293H410.417C400.393 72.2015 396.039 49.7672 410.417 32.9271C410.417 28.603 411.375 24.3213 413.236 20.3264C415.097 16.3315 417.825 12.7017 421.263 9.64413C424.702 6.58656 428.785 4.16117 433.277 2.50643C437.77 0.851693 442.586 9.05166e-06 447.449 9.05166e-06H447.449C453.359 -0.00388955 459.184 1.25163 464.436 3.66138C469.689 6.07113 474.215 9.56494 477.636 13.8501C483.488 21.1584 484.661 30.5794 481.305 39.0402C475.324 54.1195 478.976 74.6956 484.481 96.3293Z" fill="#2F2E41"/>
<path d="M523.596 334C521.453 334 519.366 333.389 517.642 332.257C515.918 331.124 514.647 329.531 514.017 327.709L510.966 318.892C510.26 316.851 510.124 314.689 510.57 312.591L512.648 302.824H527.225L533.273 322.768C533.674 324.089 533.727 325.474 533.429 326.816C533.13 328.159 532.488 329.422 531.553 330.508C530.617 331.594 529.413 332.474 528.033 333.079C526.653 333.685 525.135 334 523.596 334Z" fill="#2F2E41"/>
<path d="M417.394 334C419.537 334 421.624 333.389 423.348 332.257C425.073 331.124 426.343 329.531 426.973 327.709L430.025 318.892C430.731 316.851 430.866 314.689 430.42 312.591L428.342 302.824H413.766L407.717 322.768C407.317 324.089 407.263 325.474 407.562 326.816C407.86 328.159 408.502 329.422 409.438 330.508C410.374 331.594 411.578 332.474 412.958 333.079C414.337 333.685 415.855 334 417.394 334Z" fill="#2F2E41"/>
<path d="M528.407 303.875H512.254L442.13 185.478L429.194 303.875H414.948C407.639 229.318 389.857 158.3 414.948 131.533L473.647 136.437L528.407 303.875Z" fill="#2F2E41"/>
<path d="M445.479 51.4923C456.358 51.4923 465.177 43.6509 465.177 33.9779C465.177 24.305 456.358 16.4635 445.479 16.4635C434.6 16.4635 425.781 24.305 425.781 33.9779C425.781 43.6509 434.6 51.4923 445.479 51.4923Z" fill="#9F616A"/>
<path d="M473.253 101.409H429.524L422.039 70.5832C436.561 66.7686 440.023 57.8965 437.009 46.063L460.646 44.6619C461.986 54.194 464.437 63.082 479.556 64.6283L473.253 101.409Z" fill="#9F616A"/>
<path d="M473.253 139.94C448.443 148.316 428.26 148.055 414.16 136.437C420.522 117.78 420.903 94.8057 418.099 69.5322L425.978 66.3795L428.736 88.798L467.738 87.0466L476.405 62.5264L485.072 64.2778C485.736 94.6793 483.688 122.029 473.253 139.94Z" fill="#E6E6E6"/>
<path d="M496.102 177.771L500.734 191.157C501.11 192.242 501.194 193.389 500.979 194.508C500.765 195.626 500.258 196.684 499.5 197.597C498.742 198.51 497.753 199.252 496.614 199.763C495.475 200.274 494.217 200.54 492.941 200.54C491.798 200.54 490.669 200.327 489.625 199.914C488.581 199.501 487.647 198.897 486.882 198.143C486.118 197.388 485.54 196.499 485.186 195.533C484.833 194.567 484.712 193.546 484.83 192.536L486.647 177.071L479.162 124.527L484.678 101.408H498.466L496.102 177.771Z" fill="#9F616A"/>
<path d="M385.765 174.987L377.625 186.977C376.965 187.948 376.571 189.044 376.475 190.175C376.378 191.306 376.581 192.442 377.068 193.491C377.555 194.54 378.312 195.472 379.278 196.214C380.244 196.955 381.393 197.484 382.631 197.759C383.739 198.005 384.893 198.041 386.018 197.865C387.143 197.689 388.214 197.305 389.162 196.738C390.109 196.17 390.912 195.432 391.518 194.571C392.124 193.71 392.52 192.745 392.68 191.74L395.129 176.344L416.703 126.976L421.054 103.335L404.271 100.389L385.765 174.987Z" fill="#9F616A"/>
<path d="M508.315 104.211L482.314 103.861V63.5774L486.317 64.0965C490.566 64.6475 494.483 66.4529 497.439 69.2225C500.395 71.9922 502.217 75.5651 502.613 79.3669L508.315 104.211Z" fill="#E6E6E6"/>
<path d="M397.22 108.414L423.221 108.064V67.7808L419.217 68.2999C414.968 68.8508 411.051 70.6563 408.096 73.4259C405.14 76.1956 403.318 79.7685 402.922 83.5702L397.22 108.414Z" fill="#E6E6E6"/>
<path d="M463.601 25.5711C455.234 29.7806 439.153 31.7062 427.357 28.7237L423.418 10.5087H462.419L463.601 25.5711Z" fill="#2F2E41"/>
<path d="M153.829 241.774H25.5317V333.716H153.829V241.774Z" fill="#E6E6E6"/>
<path d="M100.531 307.042H78.8293V333.149H100.531V307.042Z" fill="#FFA500"/>
<path d="M311.504 244.489L314.919 236.393L346.79 220.199L368.416 216.151L311.504 244.489Z" fill="#FFA500"/>
<path d="M194.266 244.489L190.851 236.393L158.981 220.199L137.354 216.151L194.266 244.489Z" fill="#FFA500"/>
<path d="M313.781 246.513H191.989L181.745 204.006H324.025L313.781 246.513Z" fill="#FFA500"/>
<path opacity="0.1" d="M313.781 246.513H191.989L181.745 204.006H324.025L313.781 246.513Z" fill="black"/>
<path d="M314.35 243.983H191.42V333.716H314.35V243.983Z" fill="#FFA500"/>
<path d="M263.736 307.028H242.034V333.135H263.736V307.028Z" fill="#3F3D56"/>
<path d="M553.747 333.824H0V332.586H554L553.747 333.824Z" fill="#3F3D56"/>
<path d="M278.417 262.347H227.353V276.536H278.417V262.347Z" fill="white"/>
<path d="M114.873 262.347H63.8098V276.536H114.873V262.347Z" fill="white"/>
<path d="M158.594 120.359C158.594 124.13 157.547 127.016 155.453 129.016C153.359 131.005 150.344 132 146.406 132H140.016V109.156H147.078C150.714 109.156 153.542 110.135 155.562 112.094C157.583 114.052 158.594 116.807 158.594 120.359ZM154.656 120.484C154.656 115.016 152.099 112.281 146.984 112.281H143.75V128.859H146.406C151.906 128.859 154.656 126.068 154.656 120.484ZM170.672 132.312C167.984 132.312 165.88 131.531 164.359 129.969C162.849 128.396 162.094 126.234 162.094 123.484C162.094 120.661 162.797 118.443 164.203 116.828C165.609 115.214 167.542 114.406 170 114.406C172.281 114.406 174.083 115.099 175.406 116.484C176.729 117.87 177.391 119.776 177.391 122.203V124.188H165.875C165.927 125.865 166.38 127.156 167.234 128.062C168.089 128.958 169.292 129.406 170.844 129.406C171.865 129.406 172.812 129.312 173.688 129.125C174.573 128.927 175.521 128.604 176.531 128.156V131.141C175.635 131.568 174.729 131.87 173.812 132.047C172.896 132.224 171.849 132.312 170.672 132.312ZM170 117.188C168.833 117.188 167.896 117.557 167.188 118.297C166.49 119.036 166.073 120.115 165.938 121.531H173.781C173.76 120.104 173.417 119.026 172.75 118.297C172.083 117.557 171.167 117.188 170 117.188ZM185.234 132H181.562V107.688H185.234V132ZM194.172 132H190.5V114.719H194.172V132ZM190.281 110.141C190.281 109.484 190.458 108.979 190.812 108.625C191.177 108.271 191.693 108.094 192.359 108.094C193.005 108.094 193.505 108.271 193.859 108.625C194.224 108.979 194.406 109.484 194.406 110.141C194.406 110.766 194.224 111.26 193.859 111.625C193.505 111.979 193.005 112.156 192.359 112.156C191.693 112.156 191.177 111.979 190.812 111.625C190.458 111.26 190.281 110.766 190.281 110.141ZM203.375 132L196.812 114.719H200.688L204.203 124.766C204.807 126.453 205.172 127.818 205.297 128.859H205.422C205.516 128.109 205.88 126.745 206.516 124.766L210.031 114.719H213.938L207.344 132H203.375ZM224.109 132.312C221.422 132.312 219.318 131.531 217.797 129.969C216.286 128.396 215.531 126.234 215.531 123.484C215.531 120.661 216.234 118.443 217.641 116.828C219.047 115.214 220.979 114.406 223.438 114.406C225.719 114.406 227.521 115.099 228.844 116.484C230.167 117.87 230.828 119.776 230.828 122.203V124.188H219.312C219.365 125.865 219.818 127.156 220.672 128.062C221.526 128.958 222.729 129.406 224.281 129.406C225.302 129.406 226.25 129.312 227.125 129.125C228.01 128.927 228.958 128.604 229.969 128.156V131.141C229.073 131.568 228.167 131.87 227.25 132.047C226.333 132.224 225.286 132.312 224.109 132.312ZM223.438 117.188C222.271 117.188 221.333 117.557 220.625 118.297C219.927 119.036 219.51 120.115 219.375 121.531H227.219C227.198 120.104 226.854 119.026 226.188 118.297C225.521 117.557 224.604 117.188 223.438 117.188ZM243.766 114.406C244.505 114.406 245.115 114.458 245.594 114.562L245.234 117.984C244.714 117.859 244.172 117.797 243.609 117.797C242.141 117.797 240.948 118.276 240.031 119.234C239.125 120.193 238.672 121.438 238.672 122.969V132H235V114.719H237.875L238.359 117.766H238.547C239.12 116.734 239.865 115.917 240.781 115.312C241.708 114.708 242.703 114.406 243.766 114.406ZM256.359 132.312C253.672 132.312 251.568 131.531 250.047 129.969C248.536 128.396 247.781 126.234 247.781 123.484C247.781 120.661 248.484 118.443 249.891 116.828C251.297 115.214 253.229 114.406 255.688 114.406C257.969 114.406 259.771 115.099 261.094 116.484C262.417 117.87 263.078 119.776 263.078 122.203V124.188H251.562C251.615 125.865 252.068 127.156 252.922 128.062C253.776 128.958 254.979 129.406 256.531 129.406C257.552 129.406 258.5 129.312 259.375 129.125C260.26 128.927 261.208 128.604 262.219 128.156V131.141C261.323 131.568 260.417 131.87 259.5 132.047C258.583 132.224 257.536 132.312 256.359 132.312ZM255.688 117.188C254.521 117.188 253.583 117.557 252.875 118.297C252.177 119.036 251.76 120.115 251.625 121.531H259.469C259.448 120.104 259.104 119.026 258.438 118.297C257.771 117.557 256.854 117.188 255.688 117.188ZM273.078 132.312C270.922 132.312 269.24 131.531 268.031 129.969C266.823 128.406 266.219 126.214 266.219 123.391C266.219 120.557 266.828 118.354 268.047 116.781C269.276 115.198 270.974 114.406 273.141 114.406C275.411 114.406 277.141 115.245 278.328 116.922H278.516C278.339 115.682 278.25 114.703 278.25 113.984V107.688H281.938V132H279.062L278.422 129.734H278.25C277.073 131.453 275.349 132.312 273.078 132.312ZM274.062 129.344C275.573 129.344 276.672 128.922 277.359 128.078C278.047 127.224 278.401 125.844 278.422 123.938V123.422C278.422 121.245 278.068 119.698 277.359 118.781C276.651 117.865 275.542 117.406 274.031 117.406C272.74 117.406 271.745 117.932 271.047 118.984C270.349 120.026 270 121.516 270 123.453C270 125.37 270.339 126.833 271.016 127.844C271.693 128.844 272.708 129.344 274.062 129.344Z" fill="#3F3356"/>
</g>
<defs>
<clipPath id="clip0">
<rect width="554" height="334" fill="white"/>
</clipPath>
</defs>
</svg>
