<svg width="1040" height="229" viewBox="0 0 1040 229" fill="none" xmlns="http://www.w3.org/2000/svg">
<mask id="mask0" mask-type="alpha" maskUnits="userSpaceOnUse" x="0" y="0" width="1040" height="229">
<rect width="1040" height="229" rx="10" fill="#3F3356"/>
</mask>
<g mask="url(#mask0)">
<path d="M8.15553 -60.0704C-129.89 -209.413 -207.976 -69.9793 -223.315 -42.3758C-269.864 41.3959 -201.363 153.9 -166.119 276.352C-164.874 280.676 -160.936 283.683 -156.436 283.683H-67.1421C372.094 299.962 1175.63 423.102 1185.03 320.717C1212.92 17.0783 1036.53 109.798 987.722 130.802C945.998 148.759 804.358 188.84 665.615 69.2248C526.872 -50.3905 294.705 50.8224 243.112 69.2248C191.519 87.6272 146.201 89.2718 8.15553 -60.0704Z" fill="#CC8500"/>
<path d="M-227.87 -104.798C-239.648 -83.6514 -244.661 -66.8846 -245.868 -60.3654C-245.963 -59.8516 -246 -59.3363 -246 -58.8137V367.562C-246 373.085 -241.523 377.562 -236 377.562H-149.076C290.22 393.806 1157.93 403.128 1114.42 310.47C1060.03 194.647 979.148 183.804 933.824 183.804C888.499 183.804 750.435 241.716 611.673 122.361C472.911 3.00728 212.82 145.21 161.22 163.572C109.621 181.935 37.7992 179.11 -16.5899 -13.6933C-70.9789 -206.496 -212.53 -132.341 -227.87 -104.798Z" fill="#FFA500"/>
</g>
</svg>
