<svg width="585" height="300" viewBox="0 0 585 300" fill="none" xmlns="http://www.w3.org/2000/svg">
<g clip-path="url(#clip0)">
<path d="M291.426 74.036L291.41 74.1382L291.369 74.4337L287.066 105.321L260.724 114.991L260.311 114.794L245.563 107.786L237.936 78.5107L237.414 76.501L237.573 76.4399L270.199 64.1761L291.406 74.0243L291.426 74.036Z" fill="#FFA500"/>
<path d="M260.311 114.794L245.563 107.786L237.414 76.501L237.573 76.4399L258.829 85.4122L260.311 114.794Z" fill="#FFA500"/>
<path opacity="0.2" d="M260.681 114.437L249.463 92.9275L250.903 86.8297L244.118 78.835L243.54 79.3261L250.077 87.0282L245.194 107.698L245.932 107.874L249.196 94.056L260.009 114.787L260.681 114.437Z" fill="black"/>
<path d="M291.426 74.4149L291.369 74.4337L258.829 85.7916L237.936 78.5107L237.414 76.501L237.573 76.4399L270.199 64.1761L291.406 74.0243L291.41 74.1382L291.426 74.4149Z" fill="#3F3D56"/>
<path d="M259.397 86.3603L252.764 81.2412L254.28 75.5528L273.232 68.7266L286.119 69.485L291.236 73.8463L291.615 74.9836L259.397 86.3603Z" fill="#FFA500"/>
<path d="M237.793 76.501L252.764 75.9317L260.875 73.1777L273.52 68.7266L275.885 65.314L269.984 64.2572L237.793 76.501Z" fill="#FFA500"/>
<path d="M267.621 70.3987L259.815 73.1395L260.066 73.855L267.872 71.1141L267.621 70.3987Z" fill="#CCCCCC"/>
<path d="M164.799 26.0502L161.139 44.3571L178.217 57.1725L186.147 33.3728L164.799 26.0502Z" fill="#9F616A"/>
<path d="M178.522 42.8318C187.617 42.8318 194.991 35.455 194.991 26.3552C194.991 17.2555 187.617 9.87866 178.522 9.87866C169.427 9.87866 162.054 17.2555 162.054 26.3552C162.054 35.455 169.427 42.8318 178.522 42.8318Z" fill="#9F616A"/>
<path d="M142.841 151.196C142.916 156.512 166.057 215.674 162.844 223.377C157.779 228.557 146.885 256.126 142.23 263.481C141.621 263.481 138.571 272.634 138.571 272.634C138.571 272.634 145.89 284.229 153.82 279.347C163.79 255.886 188.759 242.8 189.201 212.222C190.406 221.882 193.963 283.885 193.963 283.885C193.963 283.885 193.281 284.175 208.643 285.648C211.027 249.661 220.773 188.438 198.954 149.975C192.246 146.924 142.841 151.196 142.841 151.196Z" fill="#2F2E41"/>
<path d="M193.962 282.678C193.249 284.05 188.135 296.714 192.789 297.984C198.156 299.449 203.358 297.397 203.358 297.397C203.358 297.397 212.753 300.334 218.502 296.601C221.185 293.916 220.576 291.476 219.295 289.706C218.644 288.834 217.811 288.115 216.854 287.599C215.897 287.083 214.838 286.782 213.753 286.717C210.835 286.509 209.909 285.968 209.575 284.631C209.087 282.678 193.962 282.678 193.962 282.678Z" fill="#2F2E41"/>
<path d="M143.776 271.62C143.776 271.62 130.666 275.761 133.426 280.594C135.218 283.588 137.836 286.003 140.964 287.548C140.964 287.548 143.698 298.825 151.288 298.825C155.083 298.825 156.376 296.668 156.721 294.511C156.877 293.434 156.797 292.336 156.485 291.294C156.173 290.252 155.637 289.29 154.915 288.477C152.999 286.265 152.726 285.227 153.435 284.045C154.47 282.319 143.776 271.62 143.776 271.62Z" fill="#2F2E41"/>
<path d="M202.008 152.982C202.008 152.982 199.565 157.864 189.806 156.031C180.048 154.204 141.623 156.031 141.623 156.031C141.623 156.031 143.755 112.401 138.876 86.1589C133.996 59.9172 153.208 44.9664 153.208 44.9664L159.309 38.8627C165.41 38.2576 178.292 57.1972 178.292 57.1972C182.531 57.9081 186.489 75.9371 189.865 92.9969C190.065 93.9721 190.253 94.9355 190.44 95.8989C191.996 103.853 194.163 112.706 195.461 120.654C195.555 121.218 195.643 121.776 195.725 122.335C197.267 132.656 199.365 142.887 202.008 152.982Z" fill="#E6E6E6"/>
<path d="M159.256 16.0959C159.256 16.0959 156.177 9.31869 164.183 6.23813C164.183 6.23813 170.957 -4.85189 184.504 2.54147C184.504 2.54147 193.741 6.23813 193.741 16.0959C193.741 25.9537 196.82 27.802 196.82 27.802C196.82 27.802 192.235 23.0957 191.004 19.399C189.772 15.7024 180.194 14.8637 176.499 18.5604C172.804 22.257 163.567 21.6409 163.567 21.6409L164.183 35.1954C164.183 35.1954 161.104 27.1859 159.872 27.1859C158.641 27.1859 157.409 16.0959 159.256 16.0959Z" fill="#2F2E41"/>
<path opacity="0.2" d="M195.461 120.654C180.911 112.741 157.342 95.3878 149.738 86.0002C139.715 73.6343 150.648 64.235 150.648 64.235C163.043 56.41 177.863 83.2568 177.863 83.2568L189.865 92.9969C190.065 93.972 190.253 94.9355 190.44 95.8989C191.996 103.853 194.163 112.706 195.461 120.654Z" fill="black"/>
<path d="M238.895 111.535C238.895 111.535 260.527 120.321 264.087 110.445C267.647 100.568 247.009 100.738 247.009 100.738L238.906 101.887L238.895 111.535Z" fill="#9F616A"/>
<path d="M147.876 60.216C147.876 60.216 136.948 69.6208 146.964 81.9827C156.979 94.3446 203.009 120.757 203.009 120.757L232.992 112.648L241.477 114.201L243.077 98.2634L230.577 99.4843L198.845 92.7246L178.612 76.2986C178.612 76.2986 160.267 52.3953 147.876 60.216Z" fill="#E6E6E6"/>
<path opacity="0.2" d="M187.685 173.513L189.597 218.207L184.749 173.513H187.685Z" fill="black"/>
<path d="M394.095 141.541L376.739 145.565C375.397 145.876 373.986 145.651 372.806 144.938C371.626 144.225 370.771 143.08 370.422 141.746C370.22 140.973 370.195 140.163 370.349 139.379C370.504 138.594 370.834 137.855 371.315 137.216C371.796 136.578 372.415 136.056 373.126 135.691C373.837 135.326 374.622 135.127 375.421 135.108L392.185 134.718L394.095 141.541Z" fill="#FFB9B9"/>
<path d="M392.252 144.089L388.397 132.52L411.506 124.623L405.372 70.5853C416.415 72.594 421.67 81.2816 421.178 92.4997L424.167 129.374L392.252 144.089Z" fill="#3F3D56"/>
<path d="M408.218 58.6715H445.972V39.8872C445.985 34.8141 443.998 29.9404 440.442 26.3237C438.706 24.542 436.63 23.1266 434.337 22.1615C432.044 21.1963 429.581 20.7008 427.094 20.7044C422.126 20.7135 417.362 22.6784 413.83 26.1742C410.299 29.67 408.285 34.4158 408.224 39.3855C408.221 39.5575 408.218 39.7209 408.218 39.8873L408.218 58.6715Z" fill="#2F2E41"/>
<path d="M461.757 279.412L449.689 278.027L435.247 180.442L405.372 278.423L392.315 278.818L407.153 158.273L404.977 130.759L441.973 119.081C468.177 137.382 467.634 202.022 461.757 279.412Z" fill="#2F2E41"/>
<path d="M423.772 54.9481C431.639 54.9481 438.017 48.5674 438.017 40.6964C438.017 32.8254 431.639 26.4447 423.772 26.4447C415.905 26.4447 409.527 32.8254 409.527 40.6964C409.527 48.5674 415.905 54.9481 423.772 54.9481Z" fill="#FFB9B9"/>
<path d="M438.017 66.4286L413.88 72.7627C417.946 64.9383 419.248 57.6342 417.045 50.9893L434.06 48.2181C432.966 54.572 434.385 61.1024 438.017 66.4286Z" fill="#FFB9B9"/>
<path d="M446.128 124.425C432.59 133.039 416.82 142.934 405.175 133.332L399.635 106.413C395.232 102.489 397.185 90.3819 403.137 73.1247C403.515 72.0293 404.137 71.0344 404.957 70.2154C405.776 69.3964 406.771 68.7748 407.866 68.3978L417.045 65.241C421.113 68.6636 427.781 66.6223 435.642 62.074L444.743 64.4493L448.7 94.1403C442.988 102.702 443.986 114.103 446.128 124.425Z" fill="#3F3D56"/>
<path d="M434.85 135.999L417.495 140.022C416.152 140.333 414.741 140.109 413.561 139.396C412.382 138.683 411.527 137.538 411.177 136.204C410.975 135.43 410.95 134.621 411.105 133.836C411.26 133.052 411.59 132.313 412.071 131.674C412.552 131.035 413.171 130.514 413.882 130.149C414.593 129.784 415.377 129.584 416.176 129.566L432.941 129.176L434.85 135.999Z" fill="#FFB9B9"/>
<path d="M459.66 298.069C457.633 298.995 455.935 293.258 454.225 294.939C449.443 299.641 437.971 298.587 437.971 298.587C437.585 298.464 437.229 298.263 436.924 297.997C436.619 297.732 436.37 297.407 436.194 297.042C436.018 296.678 435.918 296.282 435.899 295.877C435.881 295.473 435.944 295.069 436.086 294.69C436.256 294.236 436.534 293.831 436.895 293.508C437.257 293.186 437.691 292.956 438.16 292.838L443.246 291.566L451.232 277.515L459.935 276.413L460.155 276.773C461.837 279.486 462.922 282.527 463.337 285.692C463.752 288.858 463.487 292.076 462.56 295.131C461.836 297.451 460.851 297.525 459.66 298.069Z" fill="#2F2E41"/>
<path d="M402.286 298.069C400.259 298.995 398.561 293.258 396.851 294.939C392.069 299.641 380.596 298.587 380.596 298.587C380.211 298.464 379.855 298.263 379.55 297.997C379.245 297.732 378.996 297.407 378.82 297.042C378.644 296.678 378.544 296.282 378.525 295.877C378.506 295.473 378.57 295.069 378.712 294.69C378.882 294.236 379.16 293.831 379.521 293.508C379.882 293.186 380.317 292.956 380.786 292.838L385.872 291.566L393.858 277.515L402.561 276.413L402.781 276.773C404.463 279.486 405.548 282.527 405.963 285.692C406.377 288.858 406.112 292.076 405.186 295.131C404.462 297.451 403.477 297.525 402.286 298.069Z" fill="#2F2E41"/>
<path d="M440.471 28.8092L436.883 40.2292L405.866 39.6776C405.972 35.6821 407.322 31.8194 409.729 28.6293C412.136 25.4391 415.479 23.0808 419.29 21.8837C423.102 20.6866 427.192 20.7105 430.989 21.9521C434.787 23.1938 438.102 25.5911 440.471 28.8092H440.471Z" fill="#2F2E41"/>
<path d="M433.008 138.547L429.153 126.978L452.261 119.081L443.52 63.8721C448.86 64.8434 453.667 67.7171 457.052 71.9612C460.437 76.2054 462.171 81.5328 461.933 86.9575L464.923 123.831L433.008 138.547Z" fill="#3F3D56"/>
<path d="M377.815 107.357L353.78 112.528L348.87 88.8694L357.915 76.7166L366.055 75.1652L375.101 84.3442L377.815 107.357Z" fill="#CCCCCC"/>
<path d="M366.702 108.388H352.228L350.255 98.6423L348.095 87.9624L351.324 83.3097L357.53 85.2483L364.248 94.5595L365.933 104.047L366.05 104.723L366.702 108.388Z" fill="#E6E6E6"/>
<path d="M390.995 102.702L374.326 104.641L377.298 83.4395L384.017 77.3628L389.832 78.785L393.709 87.7056L390.995 102.702Z" fill="#CCCCCC"/>
<path d="M393.189 90.1595L391.639 98.6952L386.601 127.78L367.219 133.99L366.549 133.625L356.104 127.909L350.226 98.6306L350.255 98.6423L365.798 104.899L365.933 104.047L366.027 103.43L367.219 95.8519L372.515 90.1595L390.218 85.8945L393.189 90.1595Z" fill="#E6E6E6"/>
<path d="M380.916 89.257C383.199 89.257 385.051 87.4048 385.051 85.1199C385.051 82.8351 383.199 80.9829 380.916 80.9829C378.632 80.9829 376.781 82.8351 376.781 85.1199C376.781 87.4048 378.632 89.257 380.916 89.257Z" fill="#E6E6E6"/>
<path d="M370.749 87.2551L361.317 88.9357L361.362 89.1902L370.795 87.5096L370.749 87.2551Z" fill="white"/>
<path d="M366.549 133.625L356.104 127.909L350.226 98.6306L350.255 98.6423L348.095 87.9624L351.324 83.3097L357.53 85.2483L364.248 94.5595L365.933 104.047L366.027 103.43L366.05 104.723L366.115 108.388L366.549 133.625Z" fill="#F2F2F2"/>
<path d="M356.231 127.946L355.981 127.879L361.133 108.548L355.233 100.766L355.44 100.61L361.416 108.492L356.231 127.946Z" fill="#CCCCCC"/>
<path d="M359.14 116.91L358.907 117.022L367.102 134.045L367.335 133.932L359.14 116.91Z" fill="#CCCCCC"/>
<path opacity="0.2" d="M392.172 96.9237L391.202 102.288L391.152 102.293L386.808 127.368L367.425 133.574L367.309 133.629L367.232 133.468L356.313 127.498L356.187 127.464L356.255 127.211L350.433 98.2152L350.463 98.2268L349.818 95.0439L350.3 94.3497L351.79 92.2036L357.993 94.1428L364.712 103.451L364.81 104.004L365.516 107.976L365.799 109.571L366.397 112.942L366.965 109.321L367.17 108.017L367.684 104.744L372.982 99.0555L375.337 98.488L376.977 98.0924L379.233 97.5494C378.534 97.1239 377.976 96.5002 377.631 95.7572C377.286 95.0142 377.169 94.1855 377.295 93.376C377.422 92.5666 377.785 91.8129 378.34 91.2104C378.895 90.608 379.616 90.184 380.412 89.9921C381.208 89.8002 382.044 89.849 382.812 90.1325C383.58 90.416 384.247 90.9213 384.728 91.5844C385.209 92.2475 385.482 93.0385 385.513 93.8571C385.544 94.6758 385.331 95.4852 384.902 96.1829L390.685 94.7892L392.11 96.8358L392.172 96.9237Z" fill="black"/>
<path d="M367.167 118.577H352.694L348.56 98.1505L351.79 93.4961L357.992 95.4353L364.712 104.744L367.167 118.577Z" fill="#E6E6E6"/>
<path d="M387.067 137.97L367.684 144.175L356.571 138.099L350.692 108.816L366.263 115.086L367.684 106.037L372.982 100.348L390.685 96.0822L393.657 100.348L392.106 108.881L387.067 137.97Z" fill="#E6E6E6"/>
<path d="M381.381 99.4434C383.665 99.4434 385.516 97.5912 385.516 95.3063C385.516 93.0215 383.665 91.1693 381.381 91.1693C379.097 91.1693 377.246 93.0215 377.246 95.3063C377.246 97.5912 379.097 99.4434 381.381 99.4434Z" fill="#E6E6E6"/>
<path d="M367.025 143.612L356.579 137.896L350.702 108.617L350.731 108.629L348.57 97.949L351.8 93.2964L358.006 95.235L364.723 104.546L366.408 114.034L366.502 113.417L366.526 114.709L366.59 118.375L367.025 143.612Z" fill="#F2F2F2"/>
<path d="M356.696 138.132L356.446 138.065L361.599 118.734L355.698 110.952L355.905 110.796L361.881 118.679L356.696 138.132Z" fill="#CCCCCC"/>
<path d="M359.605 127.096L359.372 127.208L367.568 144.231L367.8 144.119L359.605 127.096Z" fill="#CCCCCC"/>
<path d="M529.303 273.223L505.269 278.394L500.358 254.735L509.404 242.583L517.544 241.031L526.589 250.21L529.303 273.223Z" fill="#CCCCCC"/>
<path d="M518.191 274.254H503.717L501.744 264.508L499.583 253.828L502.813 249.176L509.019 251.114L515.736 260.426L517.421 269.913L517.539 270.589L518.191 274.254Z" fill="#E6E6E6"/>
<path d="M542.483 268.568L525.814 270.508L528.787 249.306L535.506 243.23L541.32 244.651L545.197 253.572L542.483 268.568Z" fill="#CCCCCC"/>
<path d="M544.678 256.026L543.128 264.561L538.09 293.646L518.707 299.856L518.038 299.492L507.592 293.776L501.715 264.497L501.744 264.508L517.286 270.765L517.421 269.913L517.515 269.296L518.707 261.718L524.004 256.026L541.707 251.761L544.678 256.026Z" fill="#E6E6E6"/>
<path d="M532.404 255.123C534.688 255.123 536.539 253.271 536.539 250.986C536.539 248.701 534.688 246.849 532.404 246.849C530.121 246.849 528.269 248.701 528.269 250.986C528.269 253.271 530.121 255.123 532.404 255.123Z" fill="#E6E6E6"/>
<path d="M522.238 253.122L512.805 254.802L512.851 255.057L522.284 253.376L522.238 253.122Z" fill="white"/>
<path d="M518.038 299.491L507.592 293.776L501.715 264.497L501.744 264.508L499.583 253.828L502.813 249.176L509.019 251.114L515.736 260.426L517.421 269.913L517.515 269.296L517.539 270.589L517.603 274.254L518.038 299.491Z" fill="#F2F2F2"/>
<path d="M507.72 293.812L507.47 293.746L512.622 274.414L506.722 266.632L506.928 266.476L512.904 274.358L507.72 293.812Z" fill="#CCCCCC"/>
<path d="M510.629 282.776L510.396 282.888L518.591 299.911L518.824 299.799L510.629 282.776Z" fill="#CCCCCC"/>
<path d="M576.796 297.6H560.942L558.594 267.052H579.144L576.796 297.6Z" fill="#E6E6E6"/>
<path d="M579.438 279.389H558.3V284.089H579.438V279.389Z" fill="#F2F2F2"/>
<path d="M584.869 269.245L581.489 268.249L581.446 267.012L566.426 262.585L565.719 263.601L562.34 262.606L560.218 265.655L585 272.958L584.869 269.245Z" fill="#CCCCCC"/>
<path d="M87.6791 259.044L87.6638 259.147L87.6221 259.443L83.32 290.33L56.9774 300L56.5646 299.803L41.8162 292.795L34.1901 263.519L33.6675 261.509L33.8266 261.449L66.453 249.185L87.6597 259.033L87.6791 259.044Z" fill="#FFA500"/>
<path d="M56.5646 299.803L41.8162 292.795L33.6675 261.509L33.8266 261.449L55.0826 270.421L56.5646 299.803Z" fill="#FFA500"/>
<path opacity="0.2" d="M56.9345 299.445L45.7161 277.936L47.157 271.839L40.3712 263.843L39.7934 264.334L46.3309 272.037L41.4474 292.708L42.1855 292.882L45.4496 279.065L56.2622 299.796L56.9345 299.445Z" fill="black"/>
<path d="M87.6791 259.424L87.6221 259.443L55.0826 270.8L34.1901 263.519L33.6675 261.509L33.8266 261.449L66.453 249.185L87.6597 259.033L87.6638 259.147L87.6791 259.424Z" fill="#3F3D56"/>
<path d="M55.651 271.369L49.0178 266.25L50.5338 260.561L69.4852 253.736L82.3723 254.494L87.4894 258.855L87.8682 259.993L55.651 271.369Z" fill="#FFA500"/>
<path d="M34.0462 261.509L49.0178 260.941L57.1283 258.186L69.7735 253.736L72.1386 250.322L66.2376 249.266L34.0462 261.509Z" fill="#FFA500"/>
<path d="M63.8748 255.407L56.0684 258.148L56.3194 258.864L64.1258 256.123L63.8748 255.407Z" fill="#CCCCCC"/>
<path d="M21.138 298.303H5.28448L2.93582 267.755H23.4866L21.138 298.303Z" fill="#FFA500"/>
<path d="M23.7802 280.091H2.64224V284.791H23.7802V280.091Z" fill="#E6E6E6"/>
<path d="M24.661 265.992H21.138L20.7463 264.817H5.08896L4.69732 265.992H1.17433L0 269.517H25.8353L24.661 265.992Z" fill="#3F3D56"/>
<path d="M474.629 297.942H118.75V299.117H474.629V297.942Z" fill="#3F3D56"/>
</g>
<defs>
<clipPath id="clip0">
<rect width="585" height="300" fill="white"/>
</clipPath>
</defs>
</svg>
