<svg width="554" height="334" viewBox="0 0 554 334" fill="none" xmlns="http://www.w3.org/2000/svg">
<g clip-path="url(#clip0)">
<path d="M547.734 196.681C547.734 243.378 515.496 259.682 475.727 259.682C435.959 259.682 403.72 243.378 403.72 196.681C403.72 149.984 475.727 90.5791 475.727 90.5791C475.727 90.5791 547.734 149.984 547.734 196.681Z" fill="#F2F2F2"/>
<path d="M473.104 252.539L473.841 213.458L504.533 165.11L473.957 207.328L474.289 189.755L495.441 154.776L474.376 185.105L474.972 153.5L497.623 125.653L475.066 148.531L475.439 90.5793L473.098 167.297L473.29 164.132L450.261 133.779L472.921 170.207L470.775 205.504L470.711 204.567L444.163 172.625L470.631 207.877L470.362 212.291L470.314 212.358L470.336 212.72L464.892 302.271H472.166L473.038 256.016L499.441 220.851L473.104 252.539Z" fill="#3F3D56"/>
<path d="M397.959 154.18C397.959 214.574 356.264 235.661 304.83 235.661C253.396 235.661 211.701 214.574 211.701 154.18C211.701 93.7855 304.83 16.9545 304.83 16.9545C304.83 16.9545 397.959 93.7855 397.959 154.18Z" fill="#F2F2F2"/>
<path d="M301.438 226.423L302.391 175.878L342.085 113.347L302.541 167.949L302.97 145.223L330.327 99.9822L303.083 139.208V139.209L303.854 98.333L333.149 62.316L303.975 91.9052L304.457 16.9546L301.429 116.176L301.678 112.083L271.894 72.8267L301.201 119.94L298.425 165.591L298.343 164.379L264.007 123.068L298.239 168.66L297.892 174.369L297.83 174.455L297.858 174.923L290.817 290.743H300.224L301.353 230.92L335.501 185.44L301.438 226.423Z" fill="#3F3D56"/>
<path d="M541.975 310.849C541.975 315.395 526.634 319.639 500.13 323.214C452.103 329.697 367.426 334 270.985 334C121.327 334 0 323.636 0 310.849C0 309.082 2.32878 307.351 6.74094 305.697C11.717 303.822 19.3508 302.037 29.2821 300.369C49.7556 296.929 80.0037 293.989 116.899 291.803C159.725 289.272 211.517 287.766 267.387 287.707C268.583 287.703 269.782 287.701 270.985 287.703C277.715 287.703 284.387 287.724 290.999 287.766C294.106 287.784 297.198 287.808 300.277 287.838C333.183 288.139 364.324 288.944 392.625 290.158C393.888 290.212 395.147 290.27 396.4 290.324C396.828 290.342 397.256 290.365 397.684 290.383C397.799 290.387 397.914 290.392 398.029 290.401C403.59 290.652 409.029 290.921 414.346 291.205C416.09 291.295 417.818 291.39 419.531 291.489C436.172 292.419 451.534 293.503 465.35 294.721C467.71 294.928 470.025 295.14 472.294 295.355C489.776 297.006 504.495 298.88 515.836 300.917C532.597 303.925 541.975 307.293 541.975 310.849Z" fill="#3F3D56"/>
<path opacity="0.1" d="M393.159 321.184C425.769 321.184 452.205 315.909 452.205 309.403C452.205 302.896 425.769 297.622 393.159 297.622C360.549 297.622 334.113 302.896 334.113 309.403C334.113 315.909 360.549 321.184 393.159 321.184Z" fill="black"/>
<path opacity="0.1" d="M541.975 310.849C541.975 315.395 526.634 319.639 500.13 323.214C480.09 321.33 466.216 317.261 466.216 312.549C466.216 306.681 487.708 301.816 515.836 300.917C532.597 303.925 541.975 307.293 541.975 310.849Z" fill="black"/>
<path opacity="0.1" d="M293.789 305.476C293.789 313.239 229.525 319.53 150.255 319.53C71.7287 319.53 7.9304 313.359 6.73987 305.695C21.9814 299.966 62.1085 295.047 116.896 291.802C127.601 291.554 138.772 291.421 150.255 291.421C229.525 291.421 293.789 297.713 293.789 305.476Z" fill="black"/>
<path d="M267.387 0H29.2829V307.129H267.387V0Z" fill="#3F3D56"/>
<path d="M267.386 106.648H43.6843V200.895H267.386V106.648Z" fill="#2F2E41"/>
<path d="M355.235 108.715H133.933V198.415H355.235V108.715Z" fill="#3F3D56"/>
<path d="M196.939 121.942H147.495V137.237H196.939V121.942Z" fill="#FFA500"/>
<path d="M341.674 148.811H159.736V152.945H341.674V148.811Z" fill="#FFA500"/>
<path d="M341.674 159.558H159.736V163.692H341.674V159.558Z" fill="#FFA500"/>
<path d="M341.674 170.306H159.736V174.439H341.674V170.306Z" fill="#FFA500"/>
<path d="M341.674 181.053H159.736V185.187H341.674V181.053Z" fill="#FFA500"/>
<path d="M94.5693 34.7225H45.1245V50.017H94.5693V34.7225Z" fill="#F2F2F2"/>
<path d="M239.304 61.5912H57.3657V65.7248H239.304V61.5912Z" fill="#F2F2F2"/>
<path d="M239.304 72.3386H57.3657V76.4723H239.304V72.3386Z" fill="#F2F2F2"/>
<path d="M239.304 83.0861H57.3657V87.2197H239.304V83.0861Z" fill="#F2F2F2"/>
<path d="M239.304 93.8335H57.3657V97.9671H239.304V93.8335Z" fill="#F2F2F2"/>
<path d="M96.4896 210.402H47.0447V225.697H96.4896V210.402Z" fill="#F2F2F2"/>
<path d="M241.224 237.271H59.2859V241.404H241.224V237.271Z" fill="#F2F2F2"/>
<path d="M241.224 248.018H59.2859V252.152H241.224V248.018Z" fill="#F2F2F2"/>
<path d="M241.224 258.766H59.2859V262.899H241.224V258.766Z" fill="#F2F2F2"/>
<path d="M241.224 269.513H59.2859V273.647H241.224V269.513Z" fill="#F2F2F2"/>
<path d="M377.546 63.1524C377.546 63.1524 387.417 74.0422 386.183 81.7448C384.949 89.4473 406.541 71.1206 406.541 71.1206C406.541 71.1206 399.138 57.8403 403.148 51.4658C407.158 45.0913 377.546 63.1524 377.546 63.1524Z" fill="#FFB9B9"/>
<path d="M412.093 283.604C412.093 283.604 425.048 295.822 422.889 298.478C420.73 301.134 382.79 311.227 378.472 310.696C374.154 310.165 371.994 307.509 373.537 306.712C375.079 305.915 384.949 301.4 384.949 301.4L393.278 293.166C393.278 293.166 399.447 290.245 399.447 288.651C399.447 287.057 412.093 283.604 412.093 283.604Z" fill="#2F2E41"/>
<path d="M390.193 297.15C390.193 297.15 385.258 304.056 384.332 304.322C383.407 304.587 388.959 314.149 388.959 314.149L401.914 310.696L409.009 305.65L407.466 298.744L390.193 297.15Z" fill="#FFB9B9"/>
<path d="M376.93 165.41L370.761 189.049C370.761 189.049 349.477 230.218 364.283 237.389L396.671 290.776L413.944 284.136L384.949 229.421L398.213 166.473L376.93 165.41Z" fill="#D0CDE1"/>
<path opacity="0.1" d="M376.93 165.41L370.761 189.049C370.761 189.049 349.477 230.218 364.283 237.389L396.671 290.776L413.944 284.136L384.949 229.421L398.213 166.473L376.93 165.41Z" fill="black"/>
<path d="M379.089 169.129H375.959C375.715 177.298 376.246 185.47 377.547 193.564C379.706 207.11 385.258 238.186 385.258 238.186C385.258 238.186 384.641 244.029 386.492 245.889C388.342 247.748 388.651 245.357 388.959 249.607C389.268 253.857 392.198 283.403 392.198 283.403C392.198 283.403 394.203 289.448 392.044 290.776C389.885 292.104 385.566 299.275 388.651 300.338C391.735 301.4 413.018 302.728 413.944 301.931C414.869 301.134 413.944 251.201 413.944 251.201C413.944 251.201 413.327 241.108 412.71 240.576C412.093 240.045 409.317 232.874 410.242 231.28C411.168 229.687 410.551 224.906 410.551 224.109C410.551 223.312 407.775 224.109 410.242 220.656C412.71 217.203 413.018 189.58 413.018 189.58C413.018 189.58 426.282 172.05 422.272 167.535L379.089 169.129Z" fill="#D0CDE1"/>
<path d="M386.183 67.1365C397.426 67.1365 406.541 59.2881 406.541 49.6066C406.541 39.9251 397.426 32.0767 386.183 32.0767C374.94 32.0767 365.825 39.9251 365.825 49.6066C365.825 59.2881 374.94 67.1365 386.183 67.1365Z" fill="#FFB9B9"/>
<path d="M406.541 68.199C406.541 68.199 394.203 70.855 389.268 77.2295L384.949 78.0263V81.7448C384.949 81.7448 376.93 103.79 378.78 113.352C380.631 122.914 378.78 141.506 375.696 146.552C372.611 151.599 371.686 152.661 373.228 154.786C374.77 156.911 376.93 164.082 375.387 167.27C373.845 170.457 375.387 173.644 389.576 174.441C403.765 175.238 423.814 175.238 423.814 170.988C423.814 166.738 422.58 154.786 423.814 151.599C425.048 148.412 425.665 146.287 425.048 143.365C424.431 140.443 426.282 107.774 426.282 107.774C426.282 107.774 426.59 75.1047 406.541 68.199Z" fill="#2F2E41"/>
<path d="M377.546 150.271L360.582 172.05C360.582 172.05 342.691 186.127 349.169 192.502C355.646 198.877 372.611 173.91 372.611 173.91L391.118 155.849L377.546 150.271Z" fill="#FFB9B9"/>
<path d="M388.342 305.65C388.342 305.65 387.725 302.197 385.566 302.197C383.407 302.197 368.91 310.696 368.91 310.696C368.91 310.696 349.786 312.555 357.189 316.008C364.591 319.461 409.934 319.992 410.242 318.664C410.551 317.336 411.168 304.24 409.009 304.281C406.849 304.322 389.576 307.243 389.576 307.243L388.342 305.65Z" fill="#2F2E41"/>
<path d="M387.631 40.5503C386.908 40.8572 386.111 41.0124 385.305 41.003C384.473 41.0437 383.479 40.9994 383.037 40.3913C382.828 39.9911 382.731 39.5541 382.754 39.1157C382.666 38.5527 382.447 38.0109 382.11 37.5228C381.773 37.0348 381.324 36.6107 380.791 36.2761C380.258 35.9416 379.652 35.7036 379.009 35.5765C378.366 35.4494 377.7 35.4358 377.051 35.5366C377.139 36.4145 377.449 37.2651 377.959 38.029C377.058 38.2924 376.098 38.3732 375.154 38.265C374.21 38.1568 373.308 37.8626 372.517 37.4053L372.204 40.983C371.098 41.4384 369.68 41.5334 368.715 40.8816C367.75 40.2299 367.673 38.7004 368.764 38.2188C367.416 37.9767 365.767 37.4566 365.668 36.2738C365.578 35.1945 366.908 34.4046 367.153 33.3433C367.353 32.4777 366.802 31.5369 367.192 30.7207C367.704 29.6486 369.565 29.3733 369.938 28.2594C370.128 27.692 369.854 27.0852 369.92 26.4974C370.091 24.9585 372.337 24.3195 374.13 24.407C375.922 24.4945 377.879 24.9044 379.402 24.0854C380.14 23.6884 380.656 23.0528 381.304 22.5531C382.201 21.8907 383.317 21.4871 384.494 21.3989C385.671 21.3108 386.851 21.5426 387.867 22.0617C388.588 22.4477 389.217 22.9827 390.021 23.2173C391.666 23.6975 393.383 22.789 395.103 22.5795C395.732 22.4867 396.377 22.518 396.99 22.6709C397.603 22.8238 398.168 23.0944 398.642 23.4624C399.102 23.8435 399.404 24.3447 399.499 24.8883C399.594 25.4319 399.479 25.9875 399.17 26.4686C400.179 26.3218 401.248 26.1798 402.199 26.5053C403.15 26.8308 403.877 27.8114 403.437 28.6071C403.274 28.8158 403.144 29.0429 403.053 29.2821C402.964 29.745 403.482 30.1408 404.004 30.2736C404.527 30.4063 405.094 30.3815 405.606 30.5427C407.721 31.2091 407.213 34.1196 408.877 35.4254C409.448 35.7829 410.052 36.1005 410.681 36.3753C411.508 36.8687 412.112 37.5913 412.394 38.4225C412.676 39.2536 412.617 40.1429 412.229 40.9415C411.895 41.5775 411.337 42.1845 411.404 42.88C411.498 43.8554 412.712 44.3897 413.564 45.0379C414.341 45.6549 414.872 46.4672 415.082 47.3592C415.292 48.2511 415.17 49.1774 414.734 50.0063C413.951 51.4128 412.255 52.479 412.083 54.0316C412.008 54.7065 412.244 55.3804 412.23 56.0582C412.18 56.6849 411.967 57.2938 411.606 57.8396C411.245 58.3854 410.746 58.8541 410.146 59.2107C408.938 59.9156 407.577 60.4032 406.145 60.6444C405.472 60.7829 404.67 60.9999 404.507 61.5785C404.314 62.2646 405.203 62.8889 405.111 63.5903C405.053 63.8951 404.858 64.1677 404.567 64.3485C403.364 65.1588 401.46 64.4642 400.724 63.3114C399.988 62.1587 400.082 60.7618 400.196 59.4501L400.611 54.6805C400.74 53.1964 400.728 51.434 399.323 50.5673C397.769 49.6091 395.507 50.3848 393.751 49.7373C391.92 49.0627 391.264 47.0882 391.338 45.375C391.412 43.6618 391.982 41.946 391.654 40.2548C391.248 38.159 389.083 36.7505 386.897 38.1086C388.818 37.8832 389.15 39.7817 387.631 40.5503Z" fill="#2F2E41"/>
<path opacity="0.1" d="M404.69 80.948C404.69 80.948 392.352 85.1977 392.352 94.2282C392.352 103.259 392.969 115.211 390.81 119.195C388.651 123.179 386.8 124.507 388.034 127.694C389.268 130.882 391.427 130.35 388.034 132.741C384.641 135.131 384.949 131.147 384.641 135.131C384.332 139.115 387.725 139.647 384.641 141.506C381.556 143.365 373.537 150.802 376.93 153.192C380.323 155.583 389.268 163.285 392.352 160.364C395.437 157.442 396.979 150.005 401.297 150.536C405.616 151.068 406.233 151.333 405.616 148.677C404.999 146.021 402.223 146.021 405.924 145.224C409.625 144.428 411.168 146.287 409.934 143.631C408.7 140.975 407.775 139.912 410.242 136.991C412.71 134.069 413.944 133.272 413.635 130.35C413.327 127.429 420.421 101.134 420.421 101.134C420.421 101.134 422.581 78.8231 404.69 80.948Z" fill="black"/>
<path opacity="0.1" d="M401.297 80.4167C401.297 80.4167 388.959 84.6664 388.959 93.697C388.959 102.728 389.576 114.68 387.417 118.664C385.258 122.648 383.407 123.976 384.641 127.163C385.875 130.35 388.034 129.819 384.641 132.21C381.248 134.6 381.556 130.616 381.248 134.6C380.939 138.584 384.332 139.115 381.248 140.975C378.163 142.834 370.144 150.271 373.537 152.661C376.93 155.052 385.875 162.754 388.959 159.833C392.044 156.911 393.586 149.474 397.904 150.005C402.223 150.536 402.84 150.802 402.223 148.146C401.606 145.49 398.83 145.49 402.531 144.693C406.232 143.896 407.775 145.756 406.541 143.099C405.307 140.443 404.382 139.381 406.849 136.459C409.317 133.538 410.551 132.741 410.242 129.819C409.934 126.898 417.028 100.603 417.028 100.603C417.028 100.603 419.187 78.2919 401.297 80.4167Z" fill="black"/>
<path d="M402.84 79.62C402.84 79.62 390.501 83.8697 390.501 92.9002C390.501 101.931 391.118 113.883 388.959 117.867C386.8 121.851 384.949 123.179 386.183 126.366C387.417 129.554 389.576 129.022 386.183 131.413C382.79 133.803 383.099 129.819 382.79 133.803C382.482 137.787 385.875 138.319 382.79 140.178C379.706 142.037 371.686 149.474 375.079 151.864C378.472 154.255 387.417 161.957 390.501 159.036C393.586 156.114 395.128 148.677 399.447 149.208C403.765 149.74 404.382 150.005 403.765 147.349C403.148 144.693 400.372 144.693 404.073 143.896C407.775 143.1 409.317 144.959 408.083 142.303C406.849 139.647 405.924 138.584 408.392 135.663C410.859 132.741 412.093 131.944 411.785 129.022C411.476 126.101 418.571 99.8059 418.571 99.8059C418.571 99.8059 420.73 77.4951 402.84 79.62Z" fill="#2F2E41"/>
<path d="M467.323 263.122C467.323 286.36 484.253 305.164 505.176 305.164L467.323 263.122Z" fill="#2F2E41"/>
<path d="M505.176 305.164C505.176 281.665 524.069 262.65 547.417 262.65L505.176 305.164Z" fill="#FFA500"/>
<path d="M481.038 265.229C481.038 287.302 491.834 305.164 505.176 305.164L481.038 265.229Z" fill="#FFA500"/>
<path d="M505.176 305.164C505.176 275.138 527.013 250.84 554 250.84L505.176 305.164Z" fill="#2F2E41"/>
<path d="M497.213 305.461C497.213 305.461 502.581 305.318 504.199 304.326C505.816 303.334 512.456 302.15 512.857 303.741C513.259 305.332 520.925 311.653 514.864 311.695C508.804 311.737 500.782 310.882 499.167 310.036C497.553 309.189 497.213 305.461 497.213 305.461Z" fill="#A8A8A8"/>
<path opacity="0.2" d="M514.972 311.142C508.912 311.184 500.89 310.329 499.275 309.482C498.046 308.837 497.556 306.522 497.392 305.455C497.278 305.459 497.213 305.461 497.213 305.461C497.213 305.461 497.553 309.189 499.167 310.036C500.782 310.883 508.803 311.737 514.864 311.695C516.613 311.683 517.218 311.147 517.185 310.353C516.942 310.833 516.274 311.133 514.972 311.142Z" fill="black"/>
</g>
<defs>
<clipPath id="clip0">
<rect width="554" height="334" fill="white"/>
</clipPath>
</defs>
</svg>
