<svg width="524" height="360" viewBox="0 0 524 360" fill="none" xmlns="http://www.w3.org/2000/svg">
<g clip-path="url(#clip0)">
<path opacity="0.3" d="M523.999 231.219C524.008 240.973 522.952 250.692 520.854 260.16C520.148 263.35 519.328 266.474 518.394 269.532C517.251 273.306 515.926 277.008 514.425 280.623C513.669 282.451 512.87 284.244 512.027 285.999C512.041 296.001 510.197 305.898 506.613 315.064C500.133 331.509 488.579 344.806 474.056 352.531C464.975 357.37 455.052 359.915 444.991 359.985H99.472C84.0992 360.022 68.9919 355.511 55.686 346.911L55.4813 346.782C53.5861 345.543 51.7383 344.231 49.938 342.846C45.8874 339.721 42.0817 336.217 38.5622 332.372C33.7985 327.172 29.6008 321.363 26.0563 315.064C17.7315 300.3 13.3215 283.203 13.3369 265.755C4.90627 249.233 -0.00976562 229.441 -0.00976562 208.173C-0.00976562 181.339 7.8025 156.861 20.6376 138.331C23.3134 134.46 26.2445 130.817 29.4063 127.434C32.5261 124.086 35.8792 121.02 39.4342 118.266C42.2783 116.06 45.2508 114.068 48.332 112.303C49.6177 111.572 50.9079 110.882 52.2203 110.241C53.3726 109.669 54.5382 109.137 55.7171 108.636C57.1319 108.036 58.5644 107.484 60.0148 106.981C61.4651 106.477 62.8962 106.037 64.308 105.659C66.3841 105.093 68.4958 104.632 70.6432 104.278C72.4227 103.984 74.2023 103.781 75.9818 103.627C77.3966 103.507 78.8247 103.443 80.2617 103.423H81.0402C82.6241 103.423 84.199 103.492 85.7605 103.612C85.9251 103.244 86.1031 102.871 86.2677 102.509C86.8905 101.182 87.5356 99.86 88.1852 98.568C88.1837 98.5565 88.1837 98.5448 88.1852 98.5332C88.2964 98.3046 88.4076 98.081 88.5233 97.8624C89.0483 96.804 89.5955 95.7555 90.156 94.7169C90.4141 94.22 90.6677 93.7529 90.9302 93.2858C90.9857 93.1697 91.0466 93.0569 91.1126 92.9479C91.3795 92.451 91.6509 91.9541 91.9267 91.4572C93.2999 89.0057 94.728 86.5973 96.211 84.232L96.5891 83.6258C96.8205 83.2581 97.034 82.9003 97.2921 82.5326C97.906 81.5735 98.5378 80.6095 99.174 79.6654C99.6189 78.9896 100.064 78.3187 100.544 77.6777C101.701 76.0213 102.887 74.3649 104.103 72.7086C105.319 71.0522 106.583 69.4173 107.894 67.804C108.072 67.5804 108.25 67.3618 108.437 67.1431L110.336 64.8275C110.43 64.7182 110.51 64.6188 110.599 64.5194C110.826 64.2461 111.044 63.9728 111.288 63.7094C112.307 62.5019 113.353 61.3193 114.403 60.1416C119.746 54.1972 125.438 48.6576 131.442 43.5595C131.678 43.3508 131.918 43.1521 132.154 42.9533C133.284 42.0042 134.431 41.065 135.579 40.1407C141.893 35.0819 148.492 30.4841 155.337 26.3762C155.808 26.0731 156.289 25.7899 156.774 25.5116C162.91 21.8856 169.221 18.6408 175.677 15.7919C179.196 14.2366 182.795 12.7756 186.417 11.4389C188.828 10.5544 191.248 9.71465 193.7 8.92455C197.532 7.6922 201.39 6.5874 205.276 5.61013C216.722 2.74136 228.367 0.969225 240.084 0.313013C243.643 0.110935 247.242 0.00658389 250.881 -4.16458e-05C268.441 -0.0260074 285.933 2.44531 302.933 7.3543C303.109 7.651 303.35 7.89288 303.632 8.05718C303.915 8.22148 304.23 8.30279 304.548 8.29347H306.043C306.693 8.49223 307.338 8.691 307.987 8.8997C311.615 10.0658 315.19 11.3396 318.714 12.721L319.603 13.0788C328.3 16.5328 336.762 20.6846 344.922 25.5016C352.278 29.8335 359.361 34.7213 366.121 40.1308C367.162 40.9656 368.188 41.8071 369.2 42.6551C370.428 41.7773 371.676 40.9358 372.946 40.1308C377.848 37.0124 383.055 34.5331 388.464 32.7417C399.772 29.004 411.737 28.4813 423.272 31.2211C438.064 34.7244 451.456 43.4204 462.271 55.7886C466.674 60.8491 470.594 66.4081 473.967 72.3756C474.212 72.803 474.456 73.2353 474.692 73.6726C477.591 78.9543 480.082 84.5016 482.139 90.2546C482.215 90.4683 482.291 90.6671 482.358 90.8758C484.257 96.2629 485.789 101.803 486.94 107.448C486.993 107.736 487.056 108.019 487.109 108.308C488.186 113.771 488.917 119.312 489.298 124.89C489.298 125.088 489.298 125.292 489.333 125.501C489.52 128.386 489.615 131.301 489.618 134.247C489.618 136.88 489.538 139.494 489.391 142.088C489.391 142.371 489.356 142.664 489.333 142.957C489.293 143.708 489.236 144.448 489.178 145.204C492.575 148.265 495.756 151.616 498.689 155.226C499.986 156.806 501.24 158.446 502.453 160.146C506.148 165.318 509.396 170.87 512.152 176.728C519.675 192.589 523.999 211.248 523.999 231.219Z" fill="#FFA500"/>
<path opacity="0.1" d="M473.728 350.693C473.728 354.087 463.26 357.267 444.992 360H99.4731C84.1003 360.037 68.9929 355.526 55.6871 346.926L55.4824 346.797C60.7321 344.66 70.2083 342.668 83.1056 340.869L83.684 340.789C89.4676 339.999 95.9318 339.249 102.997 338.538C103.175 338.538 103.357 338.508 103.535 338.484C109.141 337.927 115.104 337.405 121.424 336.918C121.624 336.918 121.82 336.879 122.02 336.869C124.458 336.673 126.947 336.488 129.485 336.312L130.464 336.242C148.949 334.96 169.961 333.937 192.749 333.261H192.775C195.967 333.162 199.192 333.074 202.452 332.998C206.076 332.902 209.745 332.817 213.458 332.744C216.292 332.675 219.162 332.625 222.04 332.575H222.107C235.093 332.357 248.511 332.247 262.232 332.247C296.159 332.247 328.227 332.938 356.642 334.18H356.722C361.091 334.369 365.379 334.578 369.561 334.792L373.12 334.98C377.839 335.232 382.436 335.502 386.912 335.79C439.542 339.135 473.728 344.566 473.728 350.693Z" fill="#FFA500"/>
<g opacity="0.2">
<path opacity="0.2" d="M302.65 329.967C302.636 330.502 302.581 331.036 302.485 331.562C299.389 331.012 296.275 330.515 293.143 330.071C293.143 329.932 293.143 329.788 293.143 329.644C293.172 328.154 293.555 326.699 294.255 325.43C295.171 323.81 296.564 322.796 298.099 322.851C299.634 322.905 300.964 324.014 301.787 325.688C302.409 327.003 302.707 328.48 302.65 329.967Z" fill="#3F3D56"/>
<path opacity="0.2" d="M302.904 321.475C303.013 317.632 300.971 314.442 298.343 314.349C295.715 314.256 293.497 317.296 293.388 321.139C293.28 324.982 295.322 328.173 297.949 328.266C300.577 328.358 302.795 325.318 302.904 321.475Z" fill="#3F3D56"/>
<path opacity="0.2" d="M303.146 312.968C303.255 309.125 301.213 305.934 298.585 305.841C295.958 305.749 293.739 308.789 293.63 312.632C293.522 316.475 295.564 319.665 298.192 319.758C300.819 319.851 303.038 316.811 303.146 312.968Z" fill="#3F3D56"/>
<path opacity="0.2" d="M303.385 304.46C303.493 300.617 301.451 297.427 298.824 297.334C296.196 297.241 293.977 300.282 293.869 304.124C293.76 307.967 295.802 311.158 298.43 311.251C301.058 311.343 303.276 308.303 303.385 304.46Z" fill="#3F3D56"/>
<path opacity="0.2" d="M303.623 295.953C303.732 292.11 301.69 288.92 299.062 288.827C296.434 288.734 294.216 291.774 294.107 295.617C293.998 299.46 296.04 302.651 298.668 302.743C301.296 302.836 303.514 299.796 303.623 295.953Z" fill="#3F3D56"/>
<path opacity="0.2" d="M282.673 236.924C282.047 235.977 281.482 234.98 280.983 233.943L293.555 232.089L280.022 231.726C278.814 228.527 278.203 225.086 278.227 221.613C278.251 218.141 278.908 214.711 280.16 211.532L298.008 222.688L281.659 208.356C283.308 205.377 285.49 202.809 288.068 200.814C290.645 198.818 293.564 197.438 296.64 196.759C299.717 196.079 302.886 196.116 305.95 196.867C309.014 197.617 311.906 199.065 314.446 201.12C316.986 203.175 319.119 205.792 320.713 208.809C322.306 211.827 323.326 215.179 323.708 218.656C324.089 222.133 323.825 225.66 322.931 229.018C322.038 232.376 320.534 235.492 318.513 238.171C319.488 239.645 320.316 241.233 320.983 242.907L304.482 251.752L321.979 245.874C323.081 249.935 323.259 254.239 322.496 258.396C321.733 262.553 320.054 266.431 317.61 269.681C320.151 273.531 321.67 278.101 321.994 282.87C322.318 287.639 321.434 292.413 319.444 296.647C317.453 300.881 314.435 304.404 310.736 306.813C307.037 309.222 302.806 310.419 298.527 310.268C294.247 310.118 290.092 308.625 286.536 305.96C282.98 303.296 280.168 299.568 278.419 295.202C276.671 290.837 276.059 286.009 276.651 281.273C277.244 276.537 279.018 272.082 281.77 268.419C278.735 263.818 277.173 258.211 277.334 252.499C277.495 246.787 279.371 241.302 282.66 236.924H282.673Z" fill="#FFA500"/>
<path opacity="0.1" d="M322.949 254.107C322.793 259.822 320.912 265.311 317.61 269.681C320.151 273.53 321.67 278.101 321.994 282.87C322.318 287.638 321.434 292.413 319.444 296.647C317.453 300.881 314.435 304.404 310.736 306.813C307.037 309.221 302.806 310.419 298.527 310.268C294.247 310.117 290.092 308.625 286.536 305.96C282.98 303.296 280.168 299.568 278.419 295.202C276.671 290.836 276.059 286.009 276.651 281.273C277.244 276.536 279.018 272.082 281.77 268.418C278.847 263.981 323.029 251.25 322.949 254.107Z" fill="black"/>
</g>
<g opacity="0.2">
<path opacity="0.2" d="M235.027 329.967C235.013 330.502 234.958 331.036 234.862 331.562C231.766 331.012 228.652 330.515 225.52 330.071C225.52 329.932 225.52 329.788 225.52 329.644C225.549 328.154 225.932 326.699 226.632 325.43C227.548 323.81 228.941 322.796 230.476 322.851C232.01 322.905 233.341 324.014 234.164 325.688C234.786 327.003 235.084 328.48 235.027 329.967Z" fill="#3F3D56"/>
<path opacity="0.2" d="M235.277 321.477C235.386 317.634 233.344 314.444 230.716 314.351C228.088 314.258 225.87 317.298 225.761 321.141C225.653 324.984 227.695 328.175 230.322 328.268C232.95 328.36 235.168 325.32 235.277 321.477Z" fill="#3F3D56"/>
<path opacity="0.2" d="M235.519 312.97C235.628 309.127 233.586 305.936 230.958 305.844C228.331 305.751 226.112 308.791 226.004 312.634C225.895 316.477 227.937 319.667 230.565 319.76C233.192 319.853 235.411 316.813 235.519 312.97Z" fill="#3F3D56"/>
<path opacity="0.2" d="M235.758 304.462C235.866 300.619 233.824 297.429 231.197 297.336C228.569 297.243 226.351 300.283 226.242 304.126C226.133 307.969 228.175 311.16 230.803 311.253C233.431 311.345 235.649 308.305 235.758 304.462Z" fill="#3F3D56"/>
<path opacity="0.2" d="M235.996 295.955C236.105 292.112 234.063 288.921 231.435 288.829C228.807 288.736 226.589 291.776 226.48 295.619C226.371 299.462 228.413 302.653 231.041 302.745C233.669 302.838 235.887 299.798 235.996 295.955Z" fill="#3F3D56"/>
<path opacity="0.2" d="M215.05 236.924C214.424 235.977 213.859 234.98 213.36 233.943L225.932 232.089L212.399 231.726C211.191 228.527 210.58 225.086 210.604 221.613C210.628 218.141 211.285 214.711 212.536 211.532L230.385 222.688L214.036 208.356C215.685 205.377 217.867 202.809 220.444 200.814C223.022 198.818 225.941 197.438 229.017 196.759C232.094 196.079 235.263 196.116 238.327 196.867C241.391 197.617 244.283 199.065 246.823 201.12C249.363 203.175 251.496 205.792 253.09 208.809C254.683 211.827 255.703 215.179 256.085 218.656C256.466 222.133 256.202 225.66 255.308 229.018C254.415 232.376 252.911 235.492 250.89 238.171C251.865 239.645 252.693 241.233 253.36 242.907L236.859 251.752L254.356 245.874C255.458 249.935 255.636 254.239 254.873 258.396C254.11 262.553 252.431 266.431 249.987 269.681C252.528 273.531 254.047 278.101 254.371 282.87C254.695 287.639 253.811 292.413 251.821 296.647C249.83 300.881 246.812 304.404 243.113 306.813C239.414 309.222 235.183 310.419 230.904 310.268C226.624 310.118 222.469 308.625 218.913 305.96C215.357 303.296 212.544 299.568 210.796 295.202C209.048 290.837 208.436 286.009 209.028 281.273C209.621 276.537 211.395 272.082 214.147 268.419C211.112 263.818 209.55 258.211 209.711 252.499C209.872 246.787 211.748 241.302 215.037 236.924H215.05Z" fill="#FFA500"/>
<path opacity="0.1" d="M255.326 254.107C255.17 259.822 253.289 265.311 249.987 269.681C252.528 273.53 254.047 278.101 254.371 282.87C254.695 287.638 253.811 292.413 251.821 296.647C249.83 300.881 246.812 304.404 243.113 306.813C239.414 309.221 235.183 310.419 230.904 310.268C226.624 310.117 222.469 308.625 218.913 305.96C215.357 303.296 212.544 299.568 210.796 295.202C209.048 290.836 208.436 286.009 209.028 281.273C209.621 276.536 211.395 272.082 214.147 268.418C211.224 263.981 255.406 251.25 255.326 254.107Z" fill="black"/>
</g>
<g opacity="0.2">
<path opacity="0.2" d="M419.747 335.403C419.713 336.418 419.604 337.428 419.422 338.424C413.46 337.361 407.456 336.41 401.408 335.572C401.408 335.303 401.408 335.03 401.408 334.752C401.465 331.882 402.205 329.081 403.553 326.637C405.332 323.521 408.001 321.569 410.951 321.668C413.901 321.767 416.468 323.909 418.069 327.134C419.277 329.674 419.856 332.529 419.747 335.403Z" fill="#3F3D56"/>
<path opacity="0.2" d="M420.23 319.043C420.439 311.642 416.506 305.498 411.444 305.319C406.383 305.14 402.11 310.995 401.901 318.396C401.691 325.796 405.625 331.94 410.686 332.119C415.748 332.298 420.02 326.443 420.23 319.043Z" fill="#3F3D56"/>
<path opacity="0.2" d="M420.693 302.664C420.902 295.263 416.969 289.119 411.907 288.94C406.846 288.762 402.573 294.616 402.363 302.017C402.154 309.418 406.088 315.562 411.149 315.74C416.21 315.919 420.483 310.065 420.693 302.664Z" fill="#3F3D56"/>
<path opacity="0.2" d="M421.159 286.285C421.369 278.885 417.435 272.741 412.374 272.562C407.313 272.383 403.04 278.238 402.83 285.638C402.621 293.039 406.554 299.183 411.616 299.362C416.677 299.541 420.95 293.686 421.159 286.285Z" fill="#3F3D56"/>
<path opacity="0.2" d="M421.099 269.162C421.298 261.757 417.354 255.617 412.29 255.448C407.226 255.278 402.959 261.143 402.76 268.547C402.562 275.951 406.506 282.091 411.57 282.261C416.634 282.431 420.9 276.566 421.099 269.162Z" fill="#3F3D56"/>
<path opacity="0.2" d="M381.285 156.285C380.085 154.46 378.998 152.546 378.033 150.555L402.235 146.987L376.187 146.287C373.86 140.127 372.683 133.503 372.727 126.818C372.772 120.133 374.037 113.528 376.445 107.408L410.813 128.88L379.341 101.291C382.523 95.5686 386.726 90.6395 391.689 86.811C396.651 82.9824 402.266 80.3365 408.184 79.038C414.103 77.7396 420.197 77.8165 426.087 79.264C431.977 80.7114 437.537 83.4984 442.421 87.4512C447.305 91.404 451.407 96.438 454.473 102.239C457.538 108.041 459.501 114.485 460.239 121.171C460.977 127.857 460.475 134.64 458.762 141.1C457.05 147.559 454.165 153.555 450.288 158.715C452.162 161.554 453.756 164.611 455.043 167.833L423.274 184.872L456.956 173.543C459.079 181.351 459.425 189.628 457.962 197.623C456.499 205.619 453.274 213.081 448.579 219.333C453.469 226.745 456.393 235.543 457.016 244.723C457.639 253.903 455.938 263.094 452.105 271.245C448.272 279.395 442.463 286.176 435.343 290.813C428.222 295.45 420.077 297.755 411.838 297.465C403.6 297.175 395.601 294.301 388.756 289.173C381.911 284.044 376.496 276.868 373.13 268.464C369.765 260.06 368.585 250.767 369.725 241.65C370.865 232.532 374.279 223.956 379.577 216.903C373.737 208.047 370.731 197.255 371.041 186.261C371.351 175.268 374.958 164.709 381.285 156.28V156.285Z" fill="#FFA500"/>
<path opacity="0.1" d="M458.829 189.359C458.537 200.356 454.932 210.92 448.597 219.343C453.486 226.755 456.41 235.553 457.033 244.733C457.657 253.913 455.955 263.104 452.122 271.255C448.29 279.405 442.481 286.186 435.36 290.823C428.239 295.46 420.094 297.765 411.856 297.475C403.617 297.185 395.618 294.311 388.773 289.183C381.928 284.054 376.513 276.877 373.148 268.473C369.783 260.069 368.602 250.777 369.742 241.659C370.882 232.542 374.296 223.966 379.594 216.913C373.926 208.361 458.985 183.859 458.829 189.359Z" fill="black"/>
</g>
<path d="M70.2129 336.277L74.8798 336.262H81.4597L89.7791 185.31L172.168 31.7479L168.587 27.4545V16.582L79.4844 181.752L70.2129 336.277Z" fill="#FFA500"/>
<path d="M75.377 336.262H81.4586L89.778 185.31L172.167 31.7479L168.586 27.4546L83.603 183.009L75.377 336.262Z" fill="#FFA500"/>
<path d="M56.4609 337.534L269.941 355.781L270.124 355.796L476.726 341.604L476.882 341.594V331.85L249.232 327.184L59.3038 326.98H57.9157L57.7645 328.073L56.4609 337.534Z" fill="#FFA500"/>
<path d="M56.4609 337.534L269.941 355.781L270.124 355.796L476.726 341.604L476.882 341.415V332.053H476.699L269.941 339.766L59.3038 326.98H59.2726L58.8989 327.253L57.7645 328.073L56.4609 337.534Z" fill="#FFA500"/>
<path opacity="0.1" d="M56.4609 337.534L269.941 355.781V339.765L58.8989 327.253L57.7645 328.073L56.4609 337.534Z" fill="black"/>
<path d="M168.559 27.2509L262.675 140.08L259.765 338.548L267.76 339.627L267.894 339.646H275.888L276.845 148.602L453.079 214.354L456.051 331.427L462.484 332.233L464.664 332.506L459.619 206.235L275.39 133.993L174.373 16.6964H168.559V27.2509Z" fill="#FFA500"/>
<path opacity="0.1" d="M276.121 144.95L276.846 148.603L453.08 214.354L456.052 331.427L462.485 332.232L457.44 211.919L276.121 144.95Z" fill="black"/>
<path opacity="0.1" d="M168.559 27.2509L262.675 140.08L259.765 338.548L267.76 339.627L269.94 133.586L168.559 16.6964V27.2509Z" fill="black"/>
<path d="M276.463 224.601L341.101 238.817L341.123 238.822L454.334 263.733L459.517 261.412L459.499 261.005L459.161 252.93L276.53 211.711L276.463 224.601Z" fill="#FFA500"/>
<path opacity="0.1" d="M341.123 238.822L454.334 263.733L459.517 261.412L459.499 261.005L341.123 238.822Z" fill="black"/>
<path d="M345.453 174.198L347.202 281.701L348.105 336.854L356.064 336.556L361.073 336.367L359.516 175.754L356.064 174.472L355.307 174.198H345.453Z" fill="#FFA500"/>
<path d="M345.523 174.174V174.198L347.201 281.701L348.104 336.854L356.063 336.555V174.174H345.523Z" fill="#FFA500"/>
<path d="M220.782 201.653C221.249 201.937 221.695 202.26 222.116 202.622C222.615 203.109 223.063 203.658 223.451 204.257C225.36 207.015 227.121 210.22 226.935 213.698C226.939 214.204 226.853 214.706 226.683 215.175C226.513 215.644 226.261 216.071 225.943 216.431C225.155 217.182 224.025 217.216 222.993 217.216C221.872 217.216 220.693 217.216 219.723 216.57C218.753 215.924 217.943 214.667 216.796 214.697C216.634 214.727 216.468 214.727 216.306 214.697C215.91 214.553 215.83 213.972 215.572 213.604C215.127 212.943 214.189 213.107 213.49 213.395C212.792 213.683 212.017 214.116 211.328 213.783C210.928 213.547 210.6 213.181 210.389 212.734C208.739 209.753 208.387 206.17 208.076 202.707C207.884 200.6 206.425 193.414 210.451 195.049C212.231 195.765 213.895 197.196 215.514 198.244L220.782 201.653Z" fill="#3F3D56"/>
<path d="M216.803 202.364C217.163 202.653 217.599 202.799 218.041 202.779C218.484 202.759 218.908 202.575 219.246 202.254C219.908 201.586 220.33 200.671 220.433 199.68C220.878 199.526 221.105 200.177 221.39 200.575C221.888 201.251 222.903 201.241 223.356 201.961C223.672 202.458 223.601 203.149 223.824 203.71C224.113 204.436 224.829 204.813 225.318 205.4C225.781 206.04 226.114 206.784 226.297 207.581L227.027 210.026C227.376 211.043 227.6 212.108 227.694 213.191C227.74 213.733 227.689 214.28 227.544 214.8C227.399 215.319 227.163 215.801 226.849 216.218C225.87 217.395 224.264 217.52 222.845 217.485C222.371 217.496 221.898 217.434 221.439 217.301C220.18 216.864 219.375 215.447 219.041 214.021C218.707 212.595 218.743 211.099 218.547 209.639C218.336 208.204 217.962 206.804 217.435 205.474C217.043 204.441 215.967 202.9 215.985 201.802C216.305 201.802 216.536 202.13 216.803 202.364Z" fill="#3F3D56"/>
<path d="M218.401 197.33C218.193 196.624 218.072 195.891 218.04 195.149C218.04 193.658 218.65 192.257 219.264 190.925L214.179 191.695C213.565 191.789 212.88 191.929 212.533 192.5C212.401 192.783 212.332 193.098 212.332 193.417C212.332 193.736 212.401 194.05 212.533 194.334C212.788 194.901 212.99 195.495 213.138 196.108C213.149 196.644 213.204 197.178 213.302 197.703C213.461 198.088 213.682 198.437 213.956 198.731C215.411 200.53 216.501 202.652 217.587 204.754C217.555 204.694 220.652 202.016 220.527 201.141C220.456 200.644 219.562 200.048 219.277 199.571C218.884 198.879 218.588 198.123 218.401 197.33Z" fill="#BE6F72"/>
<path d="M262 177.916V182.81L186.961 199.159L183.068 201.792H169.637V199.034L243.364 179.138L262 177.916Z" fill="#F1C0C0"/>
<path opacity="0.1" d="M262 182.81L186.961 199.159L183.068 201.792H169.637L243.911 184.037L262 182.81Z" fill="black"/>
<path d="M201.753 316.863C200.917 315.732 199.763 314.95 198.479 314.645C197.194 314.34 195.855 314.53 194.68 315.183C194.428 315.316 194.206 315.509 194.03 315.75C193.585 316.445 193.87 317.404 193.91 318.264C194.012 320.361 192.517 322.066 191.174 323.531C190.453 324.317 189.719 325.156 189.394 326.225C189.07 327.293 189.31 328.65 190.182 329.206C190.562 329.419 190.976 329.548 191.401 329.584C192.823 329.894 194.281 329.939 195.716 329.718C197.135 329.415 198.528 328.516 199.142 327.055C199.26 326.659 199.456 326.297 199.716 325.996C200.499 325.305 201.7 326.115 202.59 325.623C203.324 325.216 203.355 324.575 203.364 323.73C203.391 321.395 203.079 318.751 201.753 316.863Z" fill="#FFA500"/>
<path d="M212.43 316.773C212.977 318.383 213.053 320.138 213.124 321.857C213.164 322.851 213.191 323.914 212.71 324.754C212.23 325.594 211.291 326.036 210.393 326.245C208.537 326.672 206.389 326.269 205.192 324.625C204.275 323.367 204.084 321.643 204.253 320.013C204.395 318.677 204.698 317.111 203.839 316.162C203.617 315.909 203.328 315.73 203.123 315.457C202.678 314.85 202.749 313.936 202.99 313.191C203.302 312.478 203.537 311.725 203.688 310.95C203.724 310.582 209.712 311.208 210.263 311.511C211.015 311.924 210.9 312.614 211.127 313.449C211.442 314.612 212.047 315.66 212.43 316.773Z" fill="#FFA500"/>
<path d="M213.53 245.387C214.705 246.236 215.158 247.906 215.341 249.456C215.843 253.705 214.963 257.998 214.896 262.287C214.834 268.294 216.391 274.411 215.06 280.23C214.264 283.709 214.94 287.684 214.193 291.197C213.97 292.241 213.561 293.225 213.348 294.268C212.903 296.529 213.37 298.894 213.997 301.106C214.197 301.702 214.325 302.325 214.375 302.959C214.345 303.935 214.123 304.892 213.726 305.762L211.056 312.813C210.758 313.603 209.584 313.732 208.832 313.837C207.417 314.025 205.838 314.16 204.712 313.181C203.587 312.202 203.315 310.562 203.142 309.031C202.809 306.093 202.66 303.133 202.697 300.171C202.746 299.399 202.684 298.622 202.515 297.871C202.27 297.021 201.732 296.286 201.585 295.386C201.398 294.223 201.927 293.081 202.123 291.908C202.257 290.837 202.242 289.749 202.079 288.683C201.905 287.093 201.705 285.503 201.478 283.922C201.158 281.711 201.616 279.53 201.923 277.313C202.212 275.231 201.843 273.109 201.478 271.042C201.51 272.72 201.322 274.394 200.922 276.011C200.686 276.802 200.348 277.557 200.143 278.362C199.231 281.974 201.175 285.766 200.9 289.508C200.771 291.257 200.157 292.986 200.33 294.71C200.45 295.973 200.975 297.13 201.336 298.333C201.696 299.535 201.883 300.912 201.336 302.035C199.89 305.086 200.971 309.235 202.265 312.366C202.528 312.921 202.757 313.495 202.951 314.085C203.333 315.496 203.013 317.012 203.115 318.483C202.743 318.551 202.361 318.523 201.999 318.402C201.638 318.28 201.306 318.068 201.029 317.782C200.833 317.554 200.673 317.285 200.481 317.047C199.947 316.478 199.314 316.036 198.622 315.75C198.215 315.496 197.752 315.377 197.287 315.407C196.798 315.559 196.358 315.865 196.019 316.286C195.579 316.719 195.112 317.115 194.622 317.474C194.413 317.653 194.169 317.774 193.91 317.827C193.78 317.849 193.647 317.825 193.53 317.759C193.412 317.692 193.317 317.585 193.256 317.454C193.229 317.371 193.212 317.284 193.207 317.196C193.042 315.695 192.955 314.186 192.945 312.674C192.945 310.075 190.16 308.286 189.809 305.717C189.528 303.645 190.049 301.533 189.875 299.446C189.791 298.373 189.524 297.319 189.542 296.246C189.542 295.55 189.684 294.869 189.733 294.179C189.774 293.412 189.763 292.643 189.702 291.878L189.564 289.478C189.43 287.108 189.284 284.688 188.447 282.521C187.455 279.991 186.868 277.287 186.712 274.531C186.623 272.791 186.681 271.052 186.503 269.308C186.343 267.733 185.987 266.168 186.089 264.587C186.174 263.365 186.534 262.182 186.619 260.96C186.792 258.609 185.991 256.324 185.364 254.073C184.737 251.822 184.274 249.327 185.097 247.156C185.215 246.799 185.411 246.481 185.667 246.231C185.982 245.998 186.341 245.849 186.717 245.794C194.35 244.003 202.174 243.446 209.949 244.139C211.216 244.22 212.446 244.648 213.53 245.387Z" fill="#3F3D56"/>
<path d="M188.274 192.609C192.21 192.609 195.401 189.045 195.401 184.649C195.401 180.252 192.21 176.688 188.274 176.688C184.337 176.688 181.146 180.252 181.146 184.649C181.146 189.045 184.337 192.609 188.274 192.609Z" fill="#BE6F72"/>
<path d="M186.894 194.592C186.996 195.047 186.996 195.523 186.894 195.978C186.782 196.296 186.624 196.592 186.427 196.853C185.737 197.847 184.973 198.774 184.145 199.626C184.567 200.679 185.327 201.518 186.276 201.976C187.217 202.424 188.205 202.739 189.216 202.915C189.721 203.063 190.246 203.104 190.764 203.034C191.242 202.9 191.694 202.671 192.099 202.359L196.059 199.71C196.656 199.349 197.209 198.903 197.705 198.383C198.431 197.55 198.842 196.436 198.853 195.273C198.871 195.064 198.82 194.856 198.71 194.686C198.558 194.539 198.368 194.45 198.167 194.433C196.775 194.09 195.676 192.828 195.053 191.397C194.49 189.93 194.126 188.377 193.972 186.79L189.75 189.275C189.123 189.648 188.5 190.02 187.85 190.343C187.437 190.552 186.6 190.726 186.307 191.148C185.746 191.928 186.747 193.653 186.894 194.592Z" fill="#BE6F72"/>
<path d="M184.17 198.18C183.569 198.73 183.1 199.439 182.804 200.242C182.529 201.236 182.804 202.284 183.054 203.268C184.221 207.462 185.113 211.745 185.723 216.084C186.097 219.065 186.234 222.091 186.417 225.108C186.791 231.259 187.333 241.068 188.059 247.181C190.728 247.315 193.33 246.445 195.978 246.127C200.925 245.541 206.019 246.882 210.864 245.63C209.689 240.447 208.515 231.597 207.34 226.419C206.82 224.379 206.46 222.293 206.263 220.183C206.161 218.668 206.223 217.147 206.241 215.621C206.281 212.64 206.134 209.658 205.988 206.677C205.819 203.199 205.649 199.72 204.911 196.316C204.86 195.883 204.678 195.481 204.395 195.178C203.95 194.816 203.372 194.945 202.842 195.024C201.221 195.254 199.58 194.82 198.224 193.802C197.637 193.355 196.85 192.808 196.302 193.305C196.069 193.605 195.915 193.971 195.857 194.363C195.615 195.066 195.242 195.704 194.761 196.232C194.281 196.761 193.705 197.169 193.072 197.429C191.805 197.942 190.477 198.247 189.131 198.334C188.719 198.433 188.289 198.378 187.907 198.18C187.276 197.747 187.231 196.192 186.435 196.088C185.736 195.998 184.642 197.678 184.17 198.18Z" fill="#3F3D56"/>
<path d="M194.697 210.314C193.056 208.56 192.335 206.016 191.138 203.854C190.323 202.401 189.282 201.122 188.064 200.078C187.452 199.626 186.89 199.094 186.391 198.493C185.969 197.911 185.648 197.136 185.008 196.912C184.743 196.848 184.468 196.857 184.207 196.937C183.946 197.018 183.706 197.168 183.508 197.375C183.116 197.792 182.745 198.233 182.396 198.696C180.51 200.878 177.195 201.181 175.701 203.705C175.297 204.24 175.023 204.882 174.904 205.569C174.474 209.243 175.324 212.961 177.28 215.954C177.659 216.648 178.24 217.175 178.926 217.445C178.833 218.371 178.943 219.309 179.246 220.178C180.07 223.323 181.082 226.403 182.276 229.396C181.991 230.567 181.791 231.762 181.68 232.969C181.368 236.005 181.658 239.086 181.364 242.127C181.124 244.611 180.474 247.031 180.452 249.521C180.452 249.918 180.483 250.39 180.79 250.594C180.953 250.688 181.136 250.731 181.32 250.718L186.792 250.902C189.968 251.007 193.176 251.111 196.303 250.455C196.72 250.386 197.124 250.244 197.5 250.033C198.559 249.372 198.91 247.881 199.08 246.554C199.3 244.833 199.388 243.094 199.342 241.356C200.005 243.697 200.792 246.117 202.794 247.131C203.853 247.667 205.063 247.628 206.224 247.593C208.727 247.468 211.221 247.181 213.694 246.733C213.847 246.754 214.001 246.735 214.146 246.678C214.291 246.62 214.421 246.525 214.527 246.401C214.633 246.277 214.711 246.127 214.756 245.963C214.801 245.799 214.81 245.625 214.784 245.456L214.811 242.743C214.864 237.232 213.641 231.965 213.165 226.479C213.013 224.75 213.027 223 212.649 221.306C212.493 220.595 212.266 219.9 212.128 219.184C212.009 218.484 211.935 217.775 211.906 217.062L211.559 211.596C211.394 209.067 211.158 206.627 210.985 204.103C210.889 201.645 210.57 199.204 210.033 196.818C209.646 195.327 208.84 193.638 207.448 193.454C206.705 193.36 205.984 193.722 205.277 193.976C203.538 194.587 201.672 194.578 199.938 193.951C199.402 193.715 198.844 193.548 198.274 193.454C197.987 193.41 197.695 193.453 197.428 193.577C197.161 193.701 196.928 193.902 196.753 194.16C196.58 194.548 196.499 194.979 196.517 195.412C196.308 200.376 195.921 205.489 194.697 210.314Z" fill="#FFA500"/>
<path d="M187.539 210.463C185.488 208.048 183.384 205.589 180.741 204.053C179.7 203.447 178.517 202.99 177.364 203.218C176.212 203.447 175.14 204.565 175.193 205.872C175.229 206.682 175.669 207.397 175.807 208.192C175.967 209.087 175.736 210.041 175.985 210.906C176.188 211.475 176.49 211.994 176.875 212.431L180.025 216.6C181.359 218.34 182.694 220.104 184.411 221.306C186.129 222.509 188.353 223.07 190.239 222.215C191.582 221.519 192.697 220.375 193.434 218.941C194.217 217.549 194.768 216.029 195.503 214.593C196.645 212.298 198.153 210.256 199.951 208.565C199.026 208.297 197.865 207.919 197.282 207.074C197.116 206.806 196.975 206.52 196.859 206.22L196.139 204.481C195.894 204.466 195.649 204.509 195.419 204.605C195.189 204.702 194.98 204.851 194.804 205.042C194.495 205.441 194.164 205.818 193.812 206.17C193.185 206.697 192.335 206.841 191.765 207.442C191.545 207.7 191.346 207.98 191.169 208.277C190.739 208.909 190.192 209.431 189.566 209.809C188.94 210.186 188.249 210.409 187.539 210.463Z" fill="#3F3D56"/>
<path d="M200.116 200.073C201.66 196.928 201.589 193.156 202.029 189.603C202.077 188.662 202.372 187.758 202.879 187.004C203.769 185.881 205.339 185.866 206.683 186.01C207.079 186.06 207.572 186.269 207.55 186.711C207.519 186.869 207.45 187.015 207.35 187.133C206.048 189.011 205.282 191.282 205.152 193.653C205.851 194.194 206.932 193.081 207.604 193.653C208.048 194.07 207.844 194.895 207.577 195.491C206.957 196.873 206.318 198.244 205.659 199.606C205.134 200.806 204.448 201.91 203.626 202.881C203.061 203.487 202.398 203.964 201.824 204.56C200.49 205.956 199.685 207.929 198.305 209.291C198.189 209.432 198.031 209.522 197.86 209.544C197.685 209.53 197.52 209.447 197.393 209.311C196.704 208.685 196.133 207.913 195.712 207.04C195.187 205.956 195.267 205.638 196.094 204.873C197.642 203.507 199.151 202.041 200.116 200.073Z" fill="#BE6F72"/>
<path d="M184.959 208.327C185.225 208.51 185.555 208.719 185.848 208.565C185.968 208.484 186.07 208.374 186.146 208.242C186.655 207.484 187.079 206.66 187.41 205.787C187.467 205.664 187.499 205.528 187.503 205.39C187.503 205.072 187.25 204.838 187.014 204.654C185.751 203.755 184.392 203.034 182.97 202.508C181.795 202.011 180.567 201.578 179.322 201.703C178.854 201.738 178.397 201.878 177.979 202.116C177.56 202.353 177.19 202.682 176.888 203.084C175.998 204.361 177.489 204.749 178.423 205.211C180.585 206.309 182.925 206.945 184.959 208.327Z" fill="#FFA500"/>
<path opacity="0.1" d="M183.558 216.774C183.543 216.887 183.552 217.003 183.584 217.112C183.617 217.221 183.672 217.319 183.745 217.4C183.874 216.695 183.705 215.949 183.838 215.239C184.034 214.17 184.964 213.365 185.044 212.292C183.34 211.919 183.571 215.621 183.558 216.774Z" fill="black"/>
<path opacity="0.2" d="M262 177.916V182.81L243.91 184.038L243.363 179.138L262 177.916Z" fill="black"/>
<path d="M181.857 185.831C182.987 184.803 182.333 182.646 183.099 181.265C183.544 180.509 184.295 180.112 185.034 179.774C185.925 179.308 186.88 179.013 187.859 178.899C188.349 178.847 188.844 178.918 189.306 179.108C189.768 179.298 190.186 179.602 190.528 179.998C190.817 180.365 191.013 180.813 191.285 181.195C191.621 181.642 192.059 181.978 192.552 182.169C193.046 182.359 193.576 182.397 194.087 182.278C194.679 182.129 195.293 181.627 195.253 180.952C195.186 180.541 194.998 180.166 194.719 179.888L193.447 178.313C192.001 176.524 190.395 174.626 188.273 174.179C186.796 173.866 185.283 174.308 183.859 174.84C183.285 175.053 182.64 175.371 182.48 176.022C182.373 176.469 182.534 176.956 182.44 177.409C182.258 178.308 181.226 178.611 180.745 179.366C180.265 180.122 180.411 181.016 180.274 181.851C180.136 182.686 179.735 183.501 179.686 184.365C179.655 184.887 179.891 185.856 180.416 186.045C180.941 186.234 181.533 185.21 181.857 185.831Z" fill="#3F3D56"/>
<path d="M194.821 180.236C194.446 178.05 193.637 175.985 192.454 174.194C191.402 172.52 189.939 171.222 188.241 170.457C187.392 170.086 186.48 169.935 185.571 170.015C184.663 170.096 183.782 170.404 182.996 170.919C181.829 171.85 180.92 173.129 180.376 174.611C179.223 177.384 178.796 180.773 180.135 183.436C180.669 182.711 181.586 183.039 182.395 182.775C183.41 182.452 184.268 181.697 185.234 181.225C188.148 179.789 191.707 180.952 194.821 180.236Z" fill="#FED253"/>
<path opacity="0.1" d="M180.816 180.082C180.714 179.188 180.647 178.149 181.216 177.513C181.245 177.474 181.281 177.443 181.322 177.422C181.363 177.402 181.407 177.392 181.452 177.394C181.492 177.408 181.529 177.431 181.56 177.462C181.591 177.493 181.617 177.531 181.635 177.573C181.963 178.152 182.243 178.764 182.471 179.401C182.139 179.316 181.793 179.344 181.475 179.481C181.158 179.618 180.885 179.859 180.691 180.172" fill="black"/>
<path opacity="0.1" d="M191.213 177.558L191.053 175.784C191.027 175.638 191.038 175.486 191.084 175.346C191.151 175.229 191.255 175.144 191.375 175.108C191.495 175.071 191.622 175.085 191.734 175.148C191.952 175.283 192.133 175.485 192.254 175.729C192.624 176.364 192.932 177.042 193.171 177.751C192.454 177.597 191.717 177.607 191.004 177.781" fill="black"/>
<path opacity="0.1" d="M195.196 249.556V253.61L192.131 253.839H176.008V249.556H195.196Z" fill="black"/>
<path d="M195.197 249.556V253.839H176.009L125.033 182.517V179.148H135.719L195.197 249.556Z" fill="#F1C0C0"/>
<path opacity="0.1" d="M195.197 249.556V253.839H176.009L125.033 182.517V179.148H135.719L195.197 249.556Z" fill="black"/>
<path opacity="0.1" d="M195.197 249.556V253.839H176.009L125.033 182.517V179.148L176.284 249.556H195.197Z" fill="black"/>
<path d="M131.714 321.042C131.747 321.243 131.743 321.45 131.702 321.65C131.66 321.85 131.582 322.038 131.473 322.203C131.364 322.367 131.225 322.505 131.066 322.607C130.907 322.709 130.73 322.773 130.548 322.796C129.311 323.263 127.999 323.725 127.122 324.784C126.246 325.842 126.072 327.805 127.122 328.664C127.659 329.026 128.275 329.214 128.902 329.206C130.917 329.36 133.017 329.33 134.846 328.376C136.154 327.7 137.386 326.548 138.823 326.652C139.566 326.702 140.358 327.089 141.021 326.712C141.684 326.334 141.87 325.28 141.875 324.401C141.892 322.565 141.644 320.738 141.141 318.99C141.074 318.751 138.245 318.567 137.906 318.493L134.476 317.996C133.827 317.901 132.425 317.355 131.914 317.961C131.402 318.567 131.714 320.321 131.714 321.042Z" fill="#FFA500"/>
<path d="M152.183 308.639C152.329 309.534 152.564 310.407 152.886 311.243C153.362 312.594 153.972 314.03 155.137 314.686C156.196 315.278 157.495 315.064 158.572 314.503C159.021 314.295 159.415 313.961 159.715 313.534C160.063 312.857 160.218 312.079 160.16 311.302C160.16 309.379 160.058 307.392 159.27 305.682C158.594 304.192 157.415 302.91 157.398 301.26L153.345 302.134C153.128 302.158 152.921 302.249 152.748 302.398C152.62 302.549 152.531 302.736 152.49 302.939C152.058 304.799 151.953 306.735 152.183 308.639Z" fill="#FFA500"/>
<path d="M103.783 261.432C103.614 263.032 103.685 264.746 104.433 266.128C105.18 267.509 106.755 268.423 108.116 267.872C108.186 267.852 108.251 267.817 108.309 267.768C108.366 267.719 108.414 267.658 108.45 267.589C108.486 267.421 108.465 267.244 108.392 267.092C107.791 265.3 107.841 263.317 108.53 261.566C108.619 261.337 108.81 261.069 109.019 261.159C109.107 261.208 109.177 261.288 109.22 261.387C109.435 261.803 109.543 262.278 109.531 262.759C109.468 263.194 109.456 263.637 109.495 264.075C109.58 264.503 109.989 264.905 110.345 264.721C110.448 264.651 110.537 264.558 110.607 264.447C110.676 264.337 110.725 264.212 110.75 264.08C111.742 260.875 111.293 257.372 110.839 254.018C110.843 253.941 110.831 253.864 110.806 253.792C110.78 253.721 110.74 253.656 110.69 253.604C110.639 253.551 110.579 253.512 110.513 253.488C110.448 253.464 110.378 253.457 110.309 253.466C108.21 253.233 107.062 252.671 105.861 254.853C104.828 256.691 103.783 259.221 103.783 261.432Z" fill="#FFA500"/>
<path d="M128.333 253.278C127.71 256.17 127.083 259.096 127.043 262.068C127.054 263.919 127.179 265.767 127.417 267.599L127.884 271.902C128.044 273.353 128.2 274.799 128.427 276.235C128.571 276.975 128.65 277.729 128.662 278.486C128.619 279.232 128.513 279.973 128.346 280.697C128.067 282.219 127.91 283.766 127.879 285.319C127.83 287.803 128.106 290.288 128.28 292.772C128.626 297.723 128.574 302.699 128.124 307.64C127.944 308.974 128.204 310.335 128.854 311.471C129.117 311.83 129.335 312.228 129.499 312.654C129.832 313.792 129.054 314.93 128.854 316.098C128.726 317.008 128.926 317.938 129.412 318.684C129.897 319.429 130.628 319.929 131.443 320.073C135.002 320.545 138.659 320.331 141.867 322.15C142.205 321.047 141.466 319.795 141.804 318.672C142.018 317.976 142.605 317.524 143.006 316.937C143.544 316.044 143.812 314.982 143.771 313.906C143.787 312.502 143.563 311.107 143.112 309.797C142.734 308.703 142.191 307.625 142.223 306.452C142.223 305.876 142.405 305.27 142.196 304.738C142.053 304.433 141.858 304.161 141.622 303.938C140.292 302.311 139.475 300.243 139.295 298.05C139.122 295.873 139.184 293.68 139.482 291.52C139.7 289.463 139.994 287.291 141.164 285.686C140.621 280.819 140.94 275.881 142.102 271.152C142.218 270.714 142.401 270.207 142.801 270.103C142.96 270.085 143.121 270.11 143.269 270.175C143.418 270.241 143.55 270.346 143.655 270.481C144.354 271.211 144.687 272.27 144.99 273.283C145.323 274.381 145.662 275.554 145.408 276.677C145.301 277.174 145.088 277.611 144.963 278.088C144.692 279.047 144.74 280.083 145.097 281.005C145.27 281.343 145.38 281.717 145.417 282.104C145.376 282.436 145.285 282.758 145.15 283.058C144.985 283.646 144.933 284.266 144.996 284.878C145.06 285.49 145.238 286.08 145.519 286.611C146.086 287.666 146.786 288.625 147.597 289.458C147.209 291.365 147.31 293.356 147.886 295.202C147.928 295.285 147.954 295.377 147.964 295.472C147.974 295.566 147.967 295.662 147.944 295.754C147.864 295.943 147.659 296.012 147.499 296.146C147.054 296.554 147.33 297.324 147.628 297.856C148.445 299.315 149.347 300.713 150.329 302.04C151.218 303.227 151.138 305.518 152.464 305.946C153.021 306.08 153.597 306.08 154.155 305.946C155.463 305.722 156.922 305.3 157.562 304.008C157.825 303.476 157.932 302.83 158.341 302.432C158.75 302.035 159.28 301.965 159.507 301.488C159.733 301.011 159.48 300.385 159.556 299.834C159.631 299.282 160.063 298.84 160.201 298.258C160.53 296.917 159.128 295.813 158.937 294.442C158.661 292.454 160.904 290.964 160.81 288.976C160.614 284.658 160.49 280.32 160.29 276.001C160.038 272.133 160.003 268.252 160.183 264.379C160.339 261.969 160.628 259.444 159.836 257.203C158.697 254.043 155.556 252.269 152.517 251.931C149.479 251.593 146.449 252.398 143.437 252.925C138.438 253.785 133.36 253.904 128.333 253.278Z" fill="#3F3D56"/>
<path d="M137.363 205.782C141.3 205.782 144.491 202.218 144.491 197.822C144.491 193.425 141.3 189.861 137.363 189.861C133.427 189.861 130.236 193.425 130.236 197.822C130.236 202.218 133.427 205.782 137.363 205.782Z" fill="#FBBEBE"/>
<path d="M134.463 207.268C134.221 207.898 133.814 208.431 133.295 208.797C132.777 209.164 132.171 209.346 131.558 209.32C131.3 210.513 131.918 211.716 132.626 212.655C134.094 214.564 135.993 216.001 138.124 216.818C140.256 217.634 142.545 217.801 144.753 217.301C145.613 217.129 146.428 216.749 147.142 216.188C148.105 215.29 148.751 214.04 148.966 212.66C149.171 211.289 149.229 209.896 149.14 208.51C149.165 208.237 149.095 207.963 148.944 207.745C148.766 207.591 148.546 207.511 148.321 207.517C146.818 207.368 145.247 207.303 143.926 206.478C142.604 205.653 141.666 203.79 142.302 202.259C142.2 202.498 139.601 202.612 139.259 202.662C138.187 202.831 137.115 203.02 136.047 203.238C135.534 203.27 135.027 203.377 134.539 203.556C133.894 203.929 134.134 203.745 134.285 204.421C134.512 205.454 134.846 206.195 134.463 207.268Z" fill="#FBBEBE"/>
<path d="M139.887 212.108C138.927 212.121 137.969 212.002 137.035 211.755C136.092 211.509 135.26 210.89 134.695 210.011C134.366 209.455 134.152 208.754 133.627 208.441C132.768 207.944 131.79 208.784 131.104 209.554C130.481 210.314 129.758 210.964 128.96 211.482C128.008 212.044 126.896 212.242 125.997 212.903C125.295 213.496 124.693 214.223 124.218 215.05L117.914 224.64C115.382 228.497 113.18 232.636 110.924 236.706C108.971 240.229 107.948 244.284 106.475 248.085C106.359 248.318 106.311 248.585 106.337 248.85C106.391 249.109 106.671 249.317 106.867 249.168C106.204 249.904 106.787 251.156 106.631 252.189C106.454 252.913 106.085 253.559 105.572 254.043C106.551 253.9 107.546 253.952 108.509 254.197C109.504 254.512 110.443 255.016 111.285 255.688C111.823 255.593 111.774 254.525 112.174 254.127C112.415 253.894 112.771 253.924 113.086 253.854C114.274 253.596 114.746 252.001 115.658 251.101C116.419 250.351 117.495 250.107 118.301 249.402C119.609 248.254 119.889 246.212 120.574 244.517C121.157 243.081 122.073 241.829 122.585 240.358C122.919 239.404 123.079 238.37 123.555 237.491C124.315 236.069 125.748 235.314 127.114 234.633C127.977 234.201 128.893 233.754 129.823 233.823C129.774 236.134 129.512 238.41 129.961 240.666C130.117 241.461 130.335 242.236 130.522 243.026C131.371 246.584 131.572 250.291 131.612 253.958C133.656 253.436 135.743 253.156 137.84 253.124C139.491 253.069 141.137 253.307 142.787 253.273C144.745 253.233 146.68 252.811 148.638 252.661C150.595 252.512 152.642 252.661 154.372 253.655C154.232 250.506 154.311 247.349 154.608 244.214L155.08 239.275C155.186 237.84 155.384 236.415 155.671 235.011C155.929 233.878 156.303 232.785 156.588 231.657C157.589 227.682 157.406 223.438 157.215 219.299C157.117 217.172 156.383 215.08 155.52 213.187C155.208 212.483 154.851 211.806 154.452 211.159C153.409 209.554 152.019 208.27 150.412 207.427C148.805 206.585 147.033 206.21 145.261 206.339C145.035 206.347 144.811 206.401 144.602 206.498C144.227 206.767 143.934 207.157 143.762 207.616C142.841 209.464 141.506 211.012 139.887 212.108Z" fill="#3F3D56"/>
<path d="M131.096 200.461C131.296 199.964 131.834 199.78 132.163 199.382C132.795 198.627 132.51 197.419 132.608 196.401C132.768 194.91 133.876 193.663 135.144 193.131C136.437 192.668 137.813 192.57 139.148 192.848C139.791 192.9 140.412 193.131 140.954 193.519C141.186 193.708 141.399 193.951 141.617 194.125C142.015 194.393 142.49 194.477 142.942 194.359C143.395 194.242 143.788 193.931 144.038 193.494C142.463 191.377 140.719 189.141 138.325 188.49C137.504 188.303 136.667 188.214 135.829 188.227C134.722 188.202 133.578 188.182 132.555 188.654C131.162 189.295 130.184 190.771 129.681 192.361C129.241 193.973 129.006 195.645 128.982 197.33C128.891 198.454 128.891 199.585 128.982 200.709C129.154 202.244 129.665 203.707 130.468 204.968C130.577 205.163 130.731 205.323 130.913 205.43C132.942 206.424 130.931 200.873 131.096 200.461Z" fill="#3F3D56"/>
<path d="M143.806 192.266C143.562 189.926 142.067 187.993 140.478 186.437C139.198 185.089 137.673 184.063 136.007 183.431C134.33 182.879 132.399 182.999 130.962 184.117C129.806 185.016 129.071 186.447 128.506 187.888C127.764 189.589 127.397 191.463 127.434 193.354C127.545 195.233 128.364 197.136 129.823 198.085C130.348 197.22 131.26 196.773 132.137 196.42C135.957 194.802 139.852 193.415 143.806 192.266Z" fill="#FED253"/>
<path opacity="0.1" d="M130.312 191.292C130.454 191.292 130.548 191.456 130.619 191.591C130.981 192.221 131.292 192.886 131.549 193.578C131.028 193.703 130.134 193.842 129.876 193.33C129.738 193.071 129.903 191.268 130.312 191.292Z" fill="black"/>
<path opacity="0.1" d="M140.451 190.169C140.344 190.284 140.219 190.05 140.219 189.881V187.953C140.216 187.899 140.227 187.846 140.25 187.799C140.269 187.775 140.291 187.756 140.317 187.743C140.342 187.729 140.369 187.721 140.397 187.72C140.758 187.675 141.056 188.018 141.287 188.346C141.638 188.877 141.943 189.444 142.199 190.04L140.317 189.976" fill="black"/>
<path d="M163.938 222.096C164.347 221.662 164.784 221.262 165.246 220.898C166.478 219.979 167.969 219.616 169.352 219.03C170.736 218.444 172.142 217.495 172.68 215.954C172.949 214.991 173.037 213.976 172.938 212.973C172.951 212.553 172.884 212.134 172.742 211.745C172.573 211.401 172.332 211.108 172.039 210.891C170.162 209.34 167.644 209.216 165.313 209.375C160.173 209.731 155.135 211.136 150.449 213.519C150.201 213.611 149.984 213.784 149.826 214.016C149.735 214.232 149.693 214.469 149.706 214.707C149.623 216.172 149.794 217.642 150.209 219.035C150.823 220.804 152.086 222.23 152.615 224.034C152.856 224.844 152.936 225.704 153.145 226.519C153.316 227.36 153.762 228.101 154.395 228.596C156.152 229.768 157.812 228.193 159.031 226.971L163.938 222.096Z" fill="#3F3D56"/>
<path d="M140.923 228.979L138.667 223.483C138.337 222.721 138.051 221.936 137.813 221.132C137.555 220.173 137.431 219.179 137.19 218.215C136.398 215.005 134.401 212.332 133.427 209.186C133.365 208.902 133.239 208.641 133.062 208.426C132.92 208.314 132.757 208.238 132.586 208.203C132.414 208.169 132.238 208.177 132.07 208.227C130.708 208.491 129.645 209.649 128.399 210.304C127.821 210.603 127.198 210.801 126.62 211.144C126.331 211.297 126.074 211.518 125.869 211.792C125.663 212.065 125.512 212.385 125.427 212.729C125.29 213.49 125.628 214.22 125.912 214.961C127.122 218.012 127.398 221.42 127.452 224.76C127.492 227.006 127.389 229.416 126.202 231.22C123.919 234.698 125.378 239.806 126.233 244.015C126.335 244.512 126.455 245.049 126.526 245.576C126.602 246.235 126.636 246.899 126.629 247.563C126.629 249.794 126.517 252.095 125.681 254.117C126.507 254.608 127.417 254.896 128.35 254.962C130.934 255.33 133.527 255.588 136.131 255.737C136.947 255.823 137.77 255.776 138.574 255.598C139.529 255.31 140.37 254.675 140.965 253.793C141.561 252.911 141.876 251.833 141.862 250.729C142.004 252.105 142.267 253.601 143.161 254.555C144.055 255.509 145.358 255.653 146.573 255.727C150.001 255.931 153.438 255.822 156.85 255.404C157.068 255.393 157.282 255.338 157.482 255.24C158.14 254.873 158.176 253.859 158.122 253.044C158.025 251.519 157.922 249.993 157.758 248.477C157.618 247.511 157.547 246.534 157.544 245.556C157.612 244.549 157.761 243.551 157.989 242.574C158.585 239.473 159.057 236.308 158.856 233.133C158.777 232.359 158.749 231.58 158.772 230.802C158.888 229.048 159.715 227.378 159.559 225.634C159.114 220.506 158.754 215.244 157.473 210.295C157.242 209.41 156.948 208.461 156.258 207.954C155.369 207.288 154.118 207.636 153.1 207.214C152.622 206.965 152.167 206.664 151.743 206.314C150.821 205.67 149.764 205.307 148.677 205.261C147.859 205.226 146.947 205.43 146.453 206.165C146.224 206.579 146.073 207.041 146.008 207.522C145.363 210.553 144.607 213.549 143.85 216.546L143.125 219.418L141.181 227.13C140.99 227.95 141.119 228.203 140.923 228.979Z" fill="#FFA500"/>
<path d="M152.3 198.89L195.334 249.402V253.685H176.146L143.807 206.543" fill="#F1C0C0"/>
<path opacity="0.1" d="M152.3 198.89L195.334 249.402V253.685H176.146L143.807 206.543" fill="black"/>
<path opacity="0.1" d="M144.492 205.877L144.63 205.931L176.421 249.402H195.334V253.685H176.146L143.807 206.543L144.492 205.877Z" fill="black"/>
<path d="M149.442 206.94C147.885 207.7 146.154 208.674 145.687 210.503C145.595 210.824 145.575 211.165 145.629 211.497C145.743 211.887 145.96 212.229 146.252 212.478C146.543 212.727 146.896 212.872 147.262 212.893C147.995 212.913 148.723 212.764 149.402 212.456L158.589 209.067C158.838 208.977 159.123 208.843 159.185 208.57C159.201 208.398 159.17 208.225 159.096 208.073C158.812 207.298 158.531 205.713 157.935 205.171C157.446 204.734 156.476 204.888 155.884 204.898C153.606 204.918 151.466 205.946 149.442 206.94Z" fill="#FFA500"/>
<path d="M157.634 209.469C159.182 209.464 160.72 209.731 162.194 210.26C163.674 210.796 164.985 211.797 165.971 213.142C166.258 213.518 166.462 213.964 166.567 214.444C166.656 214.941 168.107 215.239 167.786 215.577C168.761 215.403 168.529 215.914 169.517 215.905C170.505 215.895 171.572 215.611 172.164 214.732C172.575 214.009 172.758 213.154 172.684 212.302C172.697 211.712 172.597 211.126 172.391 210.583C171.946 209.539 170.923 208.978 169.98 208.496L162.034 204.436C161.573 204.162 161.078 203.966 160.566 203.854C160.134 203.809 159.7 203.82 159.271 203.889L155.672 204.351C156.459 204.92 157.1 205.708 157.531 206.638C157.963 207.568 158.17 208.607 158.132 209.653" fill="#3F3D56"/>
</g>
<defs>
<clipPath id="clip0">
<rect width="524" height="360" fill="white"/>
</clipPath>
</defs>
</svg>
