<svg width="446" height="293" viewBox="0 0 446 293" fill="none" xmlns="http://www.w3.org/2000/svg">
<g clip-path="url(#clip0)">
<path d="M320.944 173.621L324.453 171.703C324.786 171.516 325.115 171.317 325.453 171.129C317.928 169.983 311.071 166.596 306.016 161.528C300.961 156.461 298.012 150.016 297.657 143.262C297.399 138.617 298.391 133.984 300.55 129.745C302.561 125.778 305.53 122.25 309.248 119.41C312.965 116.57 317.341 114.487 322.067 113.307L321.893 125.535L329.478 112.226C329.51 112.221 329.541 112.221 329.572 112.226C333.968 112.044 338.361 112.631 342.501 113.952C346.64 115.274 350.445 117.305 353.699 119.929C356.952 122.553 359.589 125.719 361.461 129.246C363.333 132.773 364.401 136.591 364.606 140.484C364.634 141.049 364.606 141.607 364.606 142.147C367.246 139.481 369.641 136.624 371.229 133.492C374.442 127.149 374.517 119.966 374.249 111.236C373.742 93.9331 372.901 76.5016 371.802 59.12C363.882 58.3411 356.535 55.0867 351.081 49.9416C345.628 44.7964 342.424 38.0978 342.047 31.049C342 30.1381 342.014 29.2439 342.047 28.3538C342.047 28.1334 342.047 27.9087 342.085 27.6883C342.151 26.8273 342.24 25.9747 342.39 25.1345C342.39 24.9931 342.446 24.86 342.475 24.7186C342.612 24.006 342.777 23.3017 342.968 22.6057C343.043 22.3478 343.113 22.0858 343.193 21.8279C343.428 21.0709 343.663 20.3264 343.987 19.5902C344.086 19.3448 344.203 19.1077 344.306 18.8665C344.546 18.3258 344.804 17.7934 345.077 17.2652C345.222 16.9865 345.363 16.712 345.518 16.4333C345.556 16.3626 345.589 16.2919 345.631 16.2212C349.167 10.0357 355.04 5.14307 362.227 2.39385C369.414 -0.355374 377.462 -0.787386 384.972 1.17291L384.746 17.0863L392.261 3.94299C398.426 7.06752 403.3 11.8555 406.173 17.6076C409.046 23.3597 409.767 29.7746 408.231 35.9154H408.268C408.217 36.1275 408.141 36.3313 408.085 36.5393C407.982 36.9302 407.869 37.317 407.747 37.7038C407.587 38.1988 407.409 38.6854 407.226 39.1721C407.085 39.5339 406.948 39.9041 406.793 40.2618C406.568 40.7859 406.324 41.2975 406.051 41.8091C405.901 42.1085 405.765 42.4122 405.582 42.7075C405.153 43.4728 404.683 44.2214 404.173 44.9535C403.999 45.2072 403.802 45.4484 403.618 45.7021C403.261 46.1929 402.9 46.6796 402.51 47.1537C402.27 47.4449 402.012 47.7236 401.758 48.0105C401.392 48.4265 401.016 48.8424 400.627 49.2209C400.349 49.4996 400.068 49.7741 399.776 50.0527C399.368 50.4354 398.945 50.8056 398.508 51.1716C398.222 51.417 397.931 51.6624 397.63 51.8953C397.137 52.2821 396.62 52.6523 396.099 53.0142C395.836 53.1972 395.582 53.3885 395.31 53.5632C394.517 54.0845 393.699 54.5739 392.853 55.0314C392.694 55.1146 392.524 55.1853 392.384 55.2685C391.679 55.6387 390.974 55.9839 390.218 56.3083C389.904 56.4456 389.575 56.5662 389.251 56.6951C388.645 56.9364 388.034 57.1693 387.41 57.3814C387.048 57.502 386.677 57.6143 386.306 57.7266C385.69 57.9138 385.066 58.0843 384.427 58.2382C384.051 58.3297 383.68 58.4212 383.3 58.5002C382.614 58.6458 381.914 58.7664 381.21 58.8704C381.163 58.8704 381.12 58.8704 381.073 58.8954C381.537 66.2268 381.949 73.5624 382.309 80.9021C384.307 77.2703 387.121 74.0383 390.58 71.4043C394.039 68.7703 398.069 66.7898 402.423 65.5844C406.777 64.379 411.363 63.9741 415.9 64.3945C420.437 64.8149 424.83 66.0517 428.808 68.0291L422.885 82.3995L435.069 72.0387C441.591 77.3324 445.476 84.7006 445.871 92.5273C446.026 95.2735 445.74 98.0253 445.021 100.7C443.491 106.489 440.031 111.737 435.091 115.763C430.151 119.789 423.959 122.407 417.318 123.278C410.677 124.149 403.893 123.233 397.847 120.648C391.801 118.063 386.772 113.929 383.413 108.782C383.413 109.526 383.474 110.275 383.497 111.019C383.718 118.722 383.995 128.305 379.66 136.865C376.724 142.667 371.994 147.38 367.321 151.602C364.282 154.351 361.131 157.009 357.899 159.583C354.722 163.361 350.574 166.415 345.8 168.492C340.493 172.114 334.997 175.505 329.314 178.666L325.862 180.637C322.673 182.389 319.404 184.185 316.196 186.045C316.759 185.995 317.318 185.941 317.891 185.92C324.992 185.625 332.015 187.337 337.945 190.808C343.875 194.28 348.406 199.331 350.882 205.231L329.943 220.325L352.958 215.596C352.952 220.614 351.509 225.548 348.765 229.938C346.022 234.328 342.066 238.031 337.268 240.7C332.47 243.369 326.986 244.917 321.329 245.201C315.672 245.484 310.026 244.493 304.919 242.32C305.435 242.894 305.957 243.463 306.473 244.033C307.502 245.169 308.526 246.296 309.526 247.415C323.147 262.692 326.942 277.199 320.193 288.259L311.992 284.332C318.568 273.568 308.704 259.793 302.208 252.531C301.227 251.433 300.222 250.326 299.207 249.203C290.504 239.637 280.64 228.773 280.889 215.459C281.242 195.411 303.265 183.32 320.944 173.621Z" fill="#F2F2F2"/>
<path d="M213.942 292.668C332.099 292.668 427.884 288.757 427.884 283.933C427.884 279.109 332.099 275.199 213.942 275.199C95.7851 275.199 0 279.109 0 283.933C0 288.757 95.7851 292.668 213.942 292.668Z" fill="#3F3D56"/>
<path d="M386.781 280.676C388.191 278.385 386.594 275.577 384.771 273.531C382.949 271.484 380.727 269.372 380.774 266.755C380.84 263.012 385.325 260.803 388.914 258.819C391.571 257.346 394.023 255.599 396.217 253.616C397.139 252.853 397.9 251.952 398.467 250.954C399.205 249.49 399.186 247.826 399.139 246.221C398.982 240.88 398.685 235.545 398.247 230.216" stroke="#3F3D56" stroke-width="2.54494" stroke-miterlimit="10"/>
<path d="M405.061 229.933C405.009 228.956 404.68 228.006 404.106 227.17C403.531 226.335 402.729 225.64 401.773 225.15L400.298 227.737L400.341 224.609C399.332 224.342 398.265 224.293 397.231 224.466C396.196 224.639 395.224 225.03 394.395 225.606C393.567 226.181 392.906 226.925 392.47 227.773C392.033 228.622 391.833 229.551 391.886 230.482C391.969 232.027 392.74 233.479 394.032 234.519C394.671 235.034 395.419 235.433 396.232 235.692C397.045 235.952 397.908 236.067 398.772 236.031C399.635 235.995 400.483 235.808 401.265 235.482C402.047 235.156 402.749 234.697 403.331 234.131C403.913 233.565 404.363 232.903 404.656 232.182C404.949 231.462 405.078 230.698 405.038 229.933H405.061Z" fill="#57B793"/>
<path d="M393.307 269.446C392.617 270.634 391.486 271.575 390.106 272.112C388.725 272.649 387.178 272.75 385.723 272.397C384.269 272.045 382.996 271.26 382.117 270.175C381.238 269.089 380.807 267.77 380.896 266.436C380.986 265.103 381.59 263.838 382.607 262.852C383.625 261.867 384.994 261.221 386.485 261.023C387.976 260.824 389.499 261.086 390.799 261.764C392.098 262.442 393.094 263.495 393.621 264.746L389.507 267.712L394.035 266.78C394.035 267.708 393.786 268.622 393.307 269.446Z" fill="#57B793"/>
<path d="M390.052 258.096C389.187 258.133 388.323 258.018 387.508 257.758C386.693 257.498 385.945 257.099 385.305 256.582C384.665 256.065 384.147 255.442 383.78 254.747C383.413 254.053 383.205 253.301 383.167 252.535C383.114 251.621 383.309 250.71 383.735 249.877C384.13 249.097 384.713 248.403 385.443 247.844C386.173 247.284 387.033 246.874 387.962 246.641L387.929 249.049L389.423 246.429C391.17 246.357 392.878 246.902 394.171 247.945C395.464 248.988 396.236 250.443 396.318 251.99C396.399 253.537 395.784 255.049 394.606 256.194C393.428 257.34 391.785 258.023 390.038 258.096H390.052Z" fill="#57B793"/>
<path d="M406.053 248.65C404.309 248.723 402.604 248.179 401.313 247.139C400.021 246.098 399.25 244.646 399.167 243.101C399.085 241.557 399.699 240.047 400.874 238.904C402.049 237.76 403.689 237.077 405.433 237.004C406.666 236.95 407.89 237.207 408.965 237.744L407.8 240.573L410.196 238.535C411.481 239.575 412.248 241.024 412.328 242.565C412.358 243.105 412.301 243.645 412.159 244.17C411.83 245.404 411.056 246.508 409.954 247.317C408.852 248.125 407.483 248.593 406.053 248.65Z" fill="#57B793"/>
<path opacity="0.1" d="M404.174 231.472C402.652 231.622 401.172 232.042 399.646 232.125C398.12 232.208 396.443 231.884 395.475 230.832C394.954 230.266 394.695 229.551 394.254 228.935C393.838 228.36 393.269 227.884 392.596 227.55C392.198 228.286 391.98 229.088 391.955 229.904C391.929 230.72 392.098 231.531 392.45 232.286C392.802 233.04 393.329 233.72 393.997 234.283C394.665 234.845 395.458 235.277 396.327 235.55C397.195 235.823 398.119 235.932 399.038 235.868C399.957 235.805 400.85 235.571 401.66 235.183C402.471 234.794 403.18 234.258 403.741 233.611C404.303 232.964 404.705 232.22 404.921 231.426C404.667 231.435 404.418 231.451 404.174 231.472Z" fill="black"/>
<path opacity="0.1" d="M406.054 248.65C404.917 248.701 403.785 248.49 402.768 248.037C401.751 247.584 400.884 246.906 400.252 246.067C399.62 245.229 399.245 244.26 399.163 243.254C399.081 242.249 399.295 241.242 399.784 240.331C400.307 240.644 400.757 241.044 401.109 241.509C401.578 242.137 401.86 242.86 402.414 243.438C403.438 244.507 405.195 244.857 406.787 244.79C408.379 244.724 409.91 244.328 411.484 244.2C411.7 244.2 411.925 244.166 412.146 244.162C411.82 245.395 411.049 246.5 409.949 247.31C408.85 248.12 407.483 248.59 406.054 248.65Z" fill="black"/>
<path opacity="0.1" d="M390.052 258.096C389.187 258.133 388.323 258.018 387.508 257.758C386.693 257.498 385.945 257.099 385.305 256.582C384.665 256.065 384.147 255.442 383.78 254.747C383.413 254.053 383.205 253.301 383.167 252.535C383.114 251.621 383.309 250.71 383.735 249.877C384.282 250.194 384.759 250.595 385.144 251.062C385.656 251.703 385.975 252.439 386.553 253.03C387.666 254.128 389.536 254.515 391.222 254.477C392.908 254.44 394.425 254.09 396.05 253.982C395.649 255.131 394.858 256.142 393.785 256.878C392.711 257.614 391.408 258.039 390.052 258.096Z" fill="black"/>
<path opacity="0.1" d="M393.306 269.446C392.952 270.145 392.445 270.775 391.815 271.301C391.186 271.826 390.445 272.237 389.636 272.509C388.828 272.781 387.966 272.909 387.101 272.887C386.236 272.864 385.385 272.691 384.596 272.377C383.807 272.062 383.095 271.614 382.502 271.056C381.908 270.499 381.445 269.843 381.137 269.127C380.83 268.41 380.685 267.648 380.711 266.882C380.737 266.116 380.932 265.362 381.287 264.663C381.828 264.982 382.315 265.367 382.734 265.807C383.358 266.485 383.772 267.25 384.5 267.887C385.848 269.055 388.022 269.55 389.957 269.584C391.076 269.597 392.194 269.551 393.306 269.446Z" fill="black"/>
<path d="M376.844 278.035C376.844 278.035 382.043 277.894 383.612 276.904C385.181 275.914 391.597 274.733 392.005 276.322C392.414 277.91 399.826 284.224 393.95 284.249C388.074 284.274 380.301 283.417 378.737 282.586C377.173 281.754 376.844 278.035 376.844 278.035Z" fill="#656380"/>
<path opacity="0.2" d="M394.053 283.696C388.182 283.738 380.404 282.864 378.84 282.032C377.652 281.392 377.173 279.083 377.018 278.019H376.844C376.844 278.019 377.173 281.733 378.722 282.594C380.272 283.455 388.06 284.291 393.936 284.258C395.631 284.258 396.218 283.709 396.185 282.918C395.965 283.388 395.317 283.688 394.053 283.696Z" fill="black"/>
<path d="M91.3109 267.845C87.901 262.255 91.7806 255.409 96.2144 250.426C100.648 245.443 106.078 240.261 105.96 233.909C105.791 224.784 94.857 219.398 86.1209 214.561C79.6382 210.971 73.6582 206.714 68.3057 201.879C66.1592 199.936 64.0785 197.865 62.8291 195.386C61.0255 191.818 61.0725 187.762 61.1899 183.853C61.5657 170.82 62.2921 157.813 63.3693 144.83" stroke="#3F3D56" stroke-width="2.54494" stroke-miterlimit="10"/>
<path d="M46.7569 144.119C46.8856 141.738 47.6876 139.424 49.0893 137.389C50.491 135.354 52.4475 133.664 54.7792 132.473L58.377 138.774L58.269 131.146C61.5375 130.293 65.0275 130.382 68.2351 131.401C71.4428 132.419 74.202 134.313 76.1145 136.811C78.0269 139.308 78.9935 142.279 78.8748 145.295C78.7562 148.31 77.5582 151.214 75.4541 153.588C73.35 155.961 70.4485 157.681 67.1686 158.499C63.8886 159.317 60.4001 159.191 57.2065 158.138C54.013 157.086 51.2798 155.162 49.4015 152.644C47.5233 150.127 46.5972 147.146 46.7569 144.131V144.119Z" fill="#57B793"/>
<path d="M75.419 240.431C77.0348 243.22 79.6453 245.458 82.845 246.797C86.0447 248.137 89.6544 248.503 93.1134 247.839C96.5723 247.175 99.6868 245.518 101.973 243.126C104.259 240.733 105.589 237.739 105.756 234.608C105.868 232.64 105.511 230.673 104.709 228.835C103.535 226.139 101.463 223.824 98.7676 222.196C96.0722 220.568 92.8812 219.705 89.6187 219.722C86.3561 219.738 83.1766 220.634 80.5026 222.289C77.8287 223.945 75.7869 226.281 74.6487 228.989L84.6859 236.218L73.6436 233.943C73.639 236.2 74.2479 238.426 75.419 240.431Z" fill="#57B793"/>
<path d="M83.3509 212.805C87.2913 212.965 91.1605 211.836 94.2216 209.633C97.2828 207.43 99.3223 204.307 99.9517 200.858C100.581 197.41 99.7567 193.877 97.6353 190.932C95.5138 187.987 92.2435 185.836 88.447 184.888L88.5315 190.749L84.9149 184.373H84.8727C80.6143 184.197 76.4514 185.526 73.2998 188.068C70.1482 190.61 68.266 194.157 68.0673 197.928C67.8686 201.699 69.3697 205.385 72.2403 208.176C75.1109 210.967 79.116 212.634 83.3744 212.809L83.3509 212.805Z" fill="#57B793"/>
<path d="M44.3391 189.817C46.8271 189.924 49.3093 189.518 51.5896 188.63C53.8699 187.743 55.8861 186.398 57.4788 184.702C59.0716 183.006 60.1974 181.005 60.7674 178.858C61.3374 176.71 61.336 174.475 60.7633 172.328C60.1906 170.182 59.0622 168.182 57.4673 166.488C55.8724 164.793 53.8545 163.45 51.5731 162.565C49.2916 161.679 46.8089 161.276 44.321 161.385C41.8332 161.495 39.4082 162.116 37.2374 163.198L40.0556 170.09L34.2361 165.111C32.6805 166.364 31.4192 167.877 30.5246 169.563C29.63 171.249 29.1196 173.074 29.0226 174.935C28.948 176.252 29.0856 177.571 29.4312 178.853C30.2301 181.868 32.1181 184.57 34.8087 186.549C37.4992 188.528 40.8453 189.675 44.3391 189.817Z" fill="#57B793"/>
<path opacity="0.1" d="M48.919 147.912C52.6295 148.274 56.2367 149.293 59.9566 149.497C63.6765 149.701 67.7675 148.915 70.1206 146.353C71.3888 144.972 72.0229 143.225 73.0937 141.719C74.1084 140.316 75.4993 139.157 77.1424 138.346C78.1656 140.149 78.7439 142.125 78.8389 144.142C78.9339 146.158 78.5435 148.17 77.6935 150.043C76.8436 151.916 75.5535 153.607 73.909 155.004C72.2645 156.402 70.3032 157.474 68.1551 158.149C66.0071 158.824 63.7215 159.086 61.4501 158.919C59.1786 158.752 56.9733 158.159 54.9804 157.18C52.9875 156.2 51.2526 154.857 49.891 153.238C48.5293 151.62 47.572 149.763 47.0825 147.792C47.7072 147.817 48.3178 147.854 48.919 147.912Z" fill="black"/>
<path opacity="0.1" d="M44.3378 189.817C47.1072 189.93 49.8626 189.407 52.3366 188.299C54.8106 187.191 56.9191 185.536 58.4575 183.493C59.9959 181.451 60.9119 179.091 61.1166 176.643C61.3214 174.194 60.8079 171.741 59.6261 169.52C58.3501 170.28 57.2527 171.251 56.3946 172.381C55.2486 173.912 54.5582 175.68 53.2102 177.085C50.7067 179.689 46.4326 180.542 42.553 180.388C38.6734 180.234 34.93 179.252 31.0691 178.94C30.5337 178.899 29.9889 178.866 29.4487 178.853C30.2467 181.866 32.1319 184.566 34.8187 186.544C37.5055 188.523 40.8473 189.672 44.3378 189.817Z" fill="black"/>
<path opacity="0.1" d="M83.3497 212.805C86.0922 212.919 88.8218 212.409 91.2784 211.324C93.7349 210.238 95.8364 208.613 97.3822 206.604C98.9281 204.595 99.8668 202.268 100.109 199.846C100.351 197.425 99.8882 194.988 98.7648 192.77C97.4414 193.549 96.2905 194.535 95.369 195.682C94.1196 197.241 93.34 199.038 91.8792 200.477C89.1691 203.152 84.6132 204.096 80.5034 204.008C76.5252 203.934 72.6926 203.068 68.7378 202.798C69.7169 205.594 71.6449 208.054 74.2595 209.845C76.874 211.635 80.0481 212.669 83.3497 212.805Z" fill="black"/>
<path opacity="0.1" d="M75.416 240.431C77.0318 243.22 79.6423 245.458 82.842 246.797C86.0417 248.137 89.6514 248.503 93.1104 247.839C96.5693 247.175 99.6838 245.518 101.97 243.126C104.256 240.733 105.586 237.739 105.753 234.608C105.865 232.64 105.508 230.673 104.706 228.835C103.383 229.604 102.196 230.542 101.183 231.618C99.6565 233.281 98.6467 235.136 96.8807 236.675C93.5929 239.529 88.2901 240.71 83.5698 240.835C80.8452 240.843 78.1225 240.708 75.416 240.431Z" fill="black"/>
<path d="M202.538 276.155L140.54 287.385L139.131 287.261L84.647 282.394V221.253L151.342 211.271L199.72 216.262L199.734 216.532L199.739 216.665L202.538 276.155Z" fill="#FFA500"/>
<path opacity="0.1" d="M202.538 276.155L140.539 287.385L139.13 287.261V224.58L199.733 216.532L202.538 276.155Z" fill="black"/>
<path opacity="0.05" d="M199.739 216.665L199.72 216.678L139.131 224.58L84.647 221.253L151.342 211.271L199.72 216.262L199.734 216.532L199.739 216.665Z" fill="black"/>
<path d="M270.642 278.651L208.644 289.881L207.235 289.756L152.751 284.89V223.748L219.446 213.766L267.824 218.757L267.838 219.028L267.843 219.161L270.642 278.651Z" fill="#3F3D56"/>
<path opacity="0.1" d="M270.643 278.651L208.644 289.881L207.235 289.756V227.076L267.839 219.028L270.643 278.651Z" fill="black"/>
<path opacity="0.05" d="M267.843 219.161L267.824 219.173L207.235 227.076L152.751 223.748L219.446 213.766L267.824 218.757L267.838 219.028L267.843 219.161Z" fill="black"/>
<path d="M227.901 218.757L165.902 229.987L164.493 229.863L110.01 224.996V163.855L176.705 153.872L225.083 158.864L225.097 159.134L225.102 159.267L227.901 218.757Z" fill="#3F3D56"/>
<path opacity="0.1" d="M227.902 218.757L165.903 229.987L164.494 229.863V167.182L225.098 159.134L227.902 218.757Z" fill="black"/>
<path opacity="0.05" d="M225.102 159.267L225.083 159.28L164.493 167.182L110.01 163.855L176.705 153.872L225.083 158.864L225.097 159.134L225.102 159.267Z" fill="black"/>
<path d="M263.127 221.319L230.77 227.184L230.032 227.117L201.598 224.576V192.666L236.406 187.455L261.656 190.062L261.666 190.204V190.27L263.127 221.319Z" fill="#3F3D56"/>
<path opacity="0.1" d="M263.127 221.319L230.771 227.184L230.033 227.117V194.405L261.667 190.204L263.127 221.319Z" fill="black"/>
<path opacity="0.05" d="M261.666 190.27L261.656 190.279L230.032 194.405L201.598 192.666L236.406 187.455L261.656 190.062L261.666 190.204V190.27Z" fill="black"/>
<path d="M176.236 159.346L143.879 165.207L143.142 165.144L114.707 162.603V130.693L149.515 125.481L174.766 128.089L174.775 128.231V128.297L176.236 159.346Z" fill="#3F3D56"/>
<path opacity="0.1" d="M176.234 159.346L143.877 165.207L143.14 165.144V132.431L174.773 128.231L176.234 159.346Z" fill="black"/>
<path opacity="0.05" d="M174.775 128.297L174.766 128.305L143.142 132.431L114.707 130.693L149.515 125.481L174.766 128.089L174.775 128.231V128.297Z" fill="black"/>
<path d="M233.067 158.098L200.71 163.959L199.973 163.896L171.538 161.355V129.445L206.347 124.233L231.597 126.841L231.606 126.983V127.049L233.067 158.098Z" fill="#FFA500"/>
<path opacity="0.1" d="M233.069 158.098L200.712 163.959L199.975 163.896V131.184L231.608 126.983L233.069 158.098Z" fill="black"/>
<path opacity="0.05" d="M231.606 127.049L231.597 127.058L199.973 131.184L171.538 129.445L206.347 124.233L231.597 126.841L231.606 126.983V127.049Z" fill="black"/>
<path d="M249.975 126.072L217.618 131.932L216.881 131.87L188.446 129.329V97.4186L223.255 92.207L248.505 94.8149L248.514 94.9563V95.0229L249.975 126.072Z" fill="#3F3D56"/>
<path opacity="0.1" d="M249.977 126.072L217.62 131.932L216.883 131.87V99.1572L248.516 94.9563L249.977 126.072Z" fill="black"/>
<path opacity="0.05" d="M248.514 95.0229L248.505 95.0312L216.881 99.1572L188.446 97.4186L223.255 92.207L248.505 94.8149L248.514 94.9563V95.0229Z" fill="black"/>
<path d="M272.015 60.8378C271.672 63.5413 269.342 65.7208 268.478 68.3245C267.182 72.255 269.417 76.4766 272.499 79.5545C274.982 82.0001 277.988 83.985 281.344 85.3944C284.699 86.8037 288.337 87.6095 292.047 87.7649C293.137 87.848 294.234 87.742 295.278 87.453C296.208 87.1179 297.046 86.6101 297.735 85.9639C300.046 83.9051 301.29 81.056 301.783 78.1819C302.277 75.3079 302.089 72.3839 301.896 69.4849C301.896 68.8849 301.772 68.2901 301.53 67.7297C301.215 67.1967 300.782 66.7256 300.257 66.3446C298.591 64.989 296.755 63.8069 294.785 62.8217C293.94 62.4058 293.033 61.9899 292.493 61.2703C292.122 60.6973 291.881 60.0658 291.784 59.4111L291.178 56.6826C291.071 55.8959 290.768 55.1401 290.29 54.4699C289.224 53.1972 287.181 53.0225 285.391 52.9601L278.816 52.7313C276.773 52.6606 274.086 52.1407 272.09 52.4984C270.211 52.827 270.845 54.3493 271.183 55.7302C271.673 57.4003 271.951 59.1133 272.015 60.8378Z" fill="#FFC0C6"/>
<path opacity="0.1" d="M272.015 60.8378C271.672 63.5413 269.342 65.7208 268.478 68.3245C267.182 72.255 269.417 76.4766 272.499 79.5545C274.982 82.0001 277.988 83.985 281.344 85.3944C284.699 86.8037 288.337 87.6095 292.047 87.7649C293.137 87.848 294.234 87.742 295.278 87.453C296.208 87.1179 297.046 86.6101 297.735 85.9639C300.046 83.9051 301.29 81.056 301.783 78.1819C302.277 75.3079 302.089 72.3839 301.896 69.4849C301.896 68.8849 301.772 68.2901 301.53 67.7297C301.215 67.1967 300.782 66.7256 300.257 66.3446C298.591 64.989 296.755 63.8069 294.785 62.8217C293.94 62.4058 293.033 61.9899 292.493 61.2703C292.122 60.6973 291.881 60.0658 291.784 59.4111L291.178 56.6826C291.071 55.8959 290.768 55.1401 290.29 54.4699C289.224 53.1972 287.181 53.0225 285.391 52.9601L278.816 52.7313C276.773 52.6606 274.086 52.1407 272.09 52.4984C270.211 52.827 270.845 54.3493 271.183 55.7302C271.673 57.4003 271.951 59.1133 272.015 60.8378Z" fill="black"/>
<path d="M313.774 182.605L310.984 209.69C310.256 216.794 309.514 223.927 308.086 230.94C307.616 233.356 307.015 235.76 306.329 238.144C304.422 244.761 301.656 251.229 300.763 258.012C300.735 258.208 300.712 258.428 300.688 258.607C300.505 260.105 300.345 261.619 299.749 263.016C299.279 264.052 298.617 264.996 298.133 266.019C297.194 268.065 297.043 270.328 296.926 272.545C293.54 270.852 289.832 269.725 285.987 269.218C284.108 268.972 282.065 268.802 280.82 267.554C279.411 266.198 279.576 264.122 279.811 262.301C280.55 256.644 281.285 250.99 282.018 245.339C282.262 242.908 282.734 240.498 283.427 238.135C283.681 237.349 283.986 236.576 284.296 235.802C284.723 234.737 285.156 233.672 285.48 232.578C285.929 230.821 286.24 229.038 286.41 227.242C287.166 221.552 288.077 215.875 288.875 210.189L288.918 209.89C290.115 201.272 291.027 192.612 290.764 183.932C290.726 182.646 290.665 181.361 290.571 180.072C290.44 178.204 290.247 177.214 291.98 176.046C293.911 174.756 296.452 173.854 298.659 173.009C299.847 172.552 312.933 168.434 313.219 169.341C313.827 171.267 314.143 173.256 314.159 175.255C314.185 177.71 314.057 180.163 313.774 182.605Z" fill="#605D82"/>
<path opacity="0.1" d="M308.086 230.94C307.616 233.356 307.015 235.76 306.329 238.144C304.422 244.761 301.656 251.229 300.763 258.013C300.735 258.208 300.712 258.428 300.688 258.607C294.855 251.229 289.942 243.293 284.249 235.835C284.676 234.77 285.109 233.706 285.433 232.612C285.9 230.844 286.226 229.05 286.41 227.242C287.166 221.552 288.077 215.875 288.875 210.189L288.918 209.89C289.247 211.096 289.72 212.269 290.327 213.388C294.15 220.267 303.234 223.744 307.677 230.328C307.824 230.534 307.96 230.737 308.086 230.94Z" fill="black"/>
<path d="M260.75 170.456C260.942 175.971 261.938 181.44 262.934 186.889L264.986 198.119C266.109 204.275 267.283 210.551 270.571 216.062C273.032 220.188 276.573 223.707 279.781 227.404C287.663 236.497 293.585 246.799 301.058 256.157C303.233 258.878 306.337 261.822 310.043 261.253C312.476 260.882 314.242 259.086 316.149 257.705C318.404 256.074 321.118 254.881 322.894 252.834C324.669 250.788 325.017 247.394 322.612 245.938C321.79 245.443 320.79 245.256 319.86 244.94C316.135 243.692 313.721 240.465 312.19 237.204C310.659 233.943 309.724 230.445 307.681 227.413C303.237 220.829 294.149 217.351 290.326 210.468C288.184 206.616 287.977 202.149 287.818 197.878L287.4 186.935C287.353 185.737 287.32 184.493 287.869 183.399C289.33 180.488 293.745 180.213 297.324 179.843C301.383 179.423 305.315 178.325 308.911 176.607C310.973 175.621 312.983 174.365 314.078 172.535C315.083 170.871 315.219 168.912 315.337 167.024L316.577 147.189C316.685 145.483 316.779 143.716 316.107 142.118C314.402 138.101 308.672 136.786 303.829 136.978C294.821 137.335 286.507 140.767 277.997 143.087C275.888 143.661 273.769 144.177 271.595 144.564C269.716 144.901 267.368 144.764 265.564 145.304C262.333 146.269 262.412 152.533 261.957 155.129C261.017 160.193 260.613 165.324 260.75 170.456Z" fill="#605D82"/>
<path d="M308.825 262.093C309.619 262.804 309.877 263.844 310.084 264.825C311.232 270.273 311.829 275.8 311.869 281.342C311.817 281.859 311.933 282.378 312.202 282.839C312.427 283.112 312.73 283.328 313.08 283.463C315.377 284.432 318.04 283.08 319.957 281.596C323.503 278.846 326.504 275.153 326.706 270.981C326.758 269.908 326.621 268.822 326.833 267.762C327.143 266.19 328.181 264.821 329.092 263.449C330.651 261.109 331.911 258.623 332.849 256.037C333.197 255.064 333.432 253.841 332.568 253.163C332.265 252.95 331.919 252.79 331.548 252.693L321.168 249.282C320.267 248.987 318.031 254.074 317.679 254.631C316.81 255.991 315.945 256.761 314.203 257.077C312.46 257.393 310.309 256.935 308.647 257.721C305.828 259.048 307.233 260.674 308.825 262.093Z" fill="#535070"/>
<path d="M292.817 265.233C292.625 264.893 292.356 264.592 292.028 264.347C291.548 264.077 291.002 263.913 290.436 263.869C288.463 263.569 286.124 263.374 284.757 264.676C283.48 265.894 283.7 267.878 282.634 269.251C282.296 269.667 281.836 270.041 281.545 270.499C281.183 271.199 281.021 271.968 281.075 272.736C281.019 274.853 280.962 276.979 281.131 279.092C281.267 280.864 281.601 282.723 282.855 284.112C284.865 286.341 288.491 286.662 291.704 286.803L294.311 286.924C295.027 286.998 295.754 286.938 296.443 286.749C296.87 286.575 297.253 286.327 297.57 286.019C297.886 285.711 298.129 285.349 298.284 284.956C299.642 281.97 297.495 278.755 296.171 275.76C294.644 272.312 294.917 268.49 292.817 265.233Z" fill="#535070"/>
<path d="M271.262 45.594C271.229 45.2913 271.279 44.9859 271.408 44.7039C271.789 44.1091 272.784 44.288 273.536 44.4377C276.556 45.1115 279.74 44.5001 282.854 44.6582C285.968 44.8162 289.472 46.1929 290.097 48.8965C292.356 47.4806 294.303 45.71 295.841 43.6724C296.705 42.5286 297.457 41.2184 297.339 39.8459C297.17 37.8661 295.296 36.3854 293.582 35.1293L288.415 31.3859C287.735 30.8331 286.949 30.391 286.095 30.0799C284.902 29.718 283.596 29.8927 282.338 29.8927C278.58 29.8927 274.55 28.3746 271.201 29.8927C269.792 30.5291 268.745 31.623 267.73 32.6878L263.113 37.5292C262.764 37.8378 262.509 38.2199 262.371 38.6397C262.24 39.2303 262.583 39.8126 262.705 40.4074C262.921 41.4888 262.395 42.6451 262.799 43.6849C263.47 45.4068 265.838 45.6522 267.284 46.6421C267.82 47.0082 268.665 48.2601 269.309 48.2435C270.441 48.2227 271.23 46.3926 271.262 45.594Z" fill="#3F3D56"/>
<path d="M279.098 59.8728C287.269 59.8728 293.893 54.007 293.893 46.7711C293.893 39.5352 287.269 33.6693 279.098 33.6693C270.927 33.6693 264.303 39.5352 264.303 46.7711C264.303 54.007 270.927 59.8728 279.098 59.8728Z" fill="#FFC0C6"/>
<path d="M282.564 75.441C282.063 74.1711 281.119 73.0751 279.869 72.3111C278.618 71.5471 277.126 71.1546 275.608 71.1902C275.172 71.2638 274.722 71.2128 274.321 71.0446C274.094 70.8911 273.912 70.6913 273.79 70.4623C272.893 69.0284 272.171 67.5143 271.634 65.9454C271.399 65.2508 271.075 64.4314 270.282 64.2525C269.643 64.107 268.99 64.473 268.563 64.918C268.184 65.3956 267.773 65.8525 267.332 66.2864C265.453 67.7588 262.165 66.4154 260.197 67.7671C259.873 67.9876 259.606 68.2704 259.258 68.4742C258.92 68.6567 258.555 68.7967 258.173 68.8901C254.353 69.9907 250.608 71.2864 246.957 72.7707C248.272 79.775 249.615 86.9123 252.697 93.4632C254.162 96.5826 255.82 99.6397 256.994 102.855C259.596 109.98 259.709 117.604 259.742 125.094C259.742 130.219 259.742 135.451 257.863 140.301C257.44 141.399 256.924 142.489 256.806 143.628C256.689 144.768 257.074 146.057 258.131 146.739C258.743 147.097 259.444 147.315 260.174 147.376C263.42 147.792 266.689 147.035 269.882 146.377C278.445 144.622 287.181 143.616 295.894 142.634L310.501 140.97C311.549 140.906 312.574 140.67 313.526 140.276C316.198 138.982 316.452 135.422 314.789 133.159C313.995 132.074 312.873 131.184 312.201 130.036C311.529 128.888 311.478 127.274 312.629 126.479C314.977 124.857 314.272 121.85 314.385 119.222C314.698 111.868 314.656 104.52 314.258 97.1774C314.139 95.6547 314.111 94.1275 314.174 92.6022C314.338 90.0151 315.062 87.4821 315.785 84.9657L320.223 69.4932C319.063 67.8711 316.842 66.8396 314.742 66.3738C312.643 65.9079 310.449 65.7707 308.378 65.2008C304.151 64.0363 300.356 61.0832 295.927 61.3577C295.591 61.363 295.26 61.434 294.959 61.5656C293.963 62.0689 294.118 63.3417 294.057 64.3565C293.916 66.6067 292.047 68.4825 289.99 69.801C287.932 71.1195 285.575 72.0761 283.682 73.5776C283.353 73.7971 283.083 74.0776 282.89 74.3995C282.696 74.7215 282.585 75.0769 282.564 75.441Z" fill="#3F3D56"/>
<path d="M223.942 90.1191C222.962 90.6833 221.92 91.1584 220.833 91.5374C219.799 91.8993 218.696 92.1862 217.85 92.8185C217.432 93.1401 217.08 93.5244 216.812 93.9539C216.312 94.7404 216.058 95.6315 216.079 96.5341C216.1 97.4367 216.394 98.3178 216.93 99.0855C217.467 99.8532 218.226 100.479 219.129 100.899C220.032 101.318 221.045 101.515 222.063 101.47C223.421 101.407 224.703 100.921 225.947 100.442L236.384 96.4204C238.15 95.7424 240.057 94.9522 240.893 93.4132C240.989 93.2692 241.025 93.1001 240.996 92.9349C240.915 92.7536 240.761 92.6054 240.564 92.519C238.212 91.164 236.155 89.4452 234.491 87.4447C234.064 86.9289 233.552 85.7144 232.932 85.4025C230.724 84.3169 225.713 89.1042 223.942 90.1191Z" fill="#FFC0C6"/>
<path d="M335.502 86.8541L339.349 90.7471C340.175 91.579 341.002 92.4108 341.753 93.3093C343.603 95.5646 345.086 98.0385 346.159 100.659C346.995 102.601 347.69 104.672 347.399 106.735C347.204 107.793 346.881 108.829 346.436 109.826C345.732 111.742 344.857 113.605 343.82 115.399C342.954 116.76 341.976 118.063 340.894 119.296C337.914 122.793 334.654 126.094 331.139 129.175C329.823 130.327 329.26 132.194 328.701 133.75C327.644 136.624 325.131 138.866 322.703 140.987C321.922 141.718 321.058 142.376 320.124 142.95C318.726 143.749 317.091 144.16 315.428 144.131C314.702 144.135 313.983 144.003 313.319 143.745C311.656 143.046 310.811 141.345 310.637 139.723C310.483 138.249 310.762 136.765 311.445 135.414C313.652 131.084 319.321 129.208 323.328 126.047C325.676 124.196 327.475 121.867 329.25 119.567C330.453 118.129 331.457 116.569 332.242 114.921C333.135 112.804 332.787 110.3 333.572 108.154C333.9 107.243 334.511 106.423 334.844 105.521C335.178 104.618 335.291 103.549 334.666 102.772C334.198 102.274 333.6 101.886 332.923 101.64C330.364 100.492 327.499 99.0116 327.01 96.5036C326.814 95.1147 327.224 93.712 328.156 92.5814C329.083 91.4652 330.167 90.4588 331.383 89.5867C332.496 88.6966 334.379 87.7109 335.502 86.8541Z" fill="#FFC0C6"/>
<path d="M221.47 95.5511C220.794 94.3366 219.944 93.0971 218.572 92.494C217.905 92.239 217.186 92.1075 216.459 92.1075C215.732 92.1075 215.013 92.239 214.345 92.494C213.016 93.0029 211.771 93.6689 210.644 94.4739L207.328 96.6408C206.577 97.0777 205.912 97.6216 205.36 98.2505C204.834 99.0135 204.486 99.862 204.336 100.746C203.867 102.772 203.486 104.855 203.815 106.906C204.341 110.233 206.595 113.112 209.075 115.64C210.625 117.213 212.542 118.801 214.9 118.872C215.919 118.901 217.051 118.544 217.473 117.724C217.621 117.399 217.699 117.052 217.704 116.701C217.957 113.008 216.464 109.401 214.726 106.037C214.256 105.122 213.749 104.173 213.786 103.171C213.772 103.001 213.821 102.831 213.927 102.688C214.076 102.55 214.276 102.463 214.491 102.443C216.872 102.027 220.977 103.666 222.645 101.324C223.725 99.7769 222.241 96.9278 221.47 95.5511Z" fill="#FFC0C6"/>
<path d="M270.484 41.4722C270.454 41.1691 270.506 40.8642 270.634 40.5821C271.014 39.9831 272.01 40.1661 272.762 40.3159C275.782 40.9897 278.966 40.3783 282.08 40.5363C285.194 40.6944 288.693 42.0711 289.323 44.7746C291.58 43.3565 293.526 41.5863 295.067 39.5506C295.931 38.4026 296.683 37.0924 296.565 35.7199C296.396 33.7401 294.517 32.2594 292.808 31.0074L287.641 27.2641C286.962 26.7113 286.178 26.2691 285.326 25.9581C284.128 25.5962 282.827 25.7709 281.568 25.7709C277.811 25.7709 273.781 24.2527 270.432 25.7709C269.023 26.4073 267.975 27.5011 266.961 28.5659L262.339 33.4073C261.992 33.7166 261.738 34.0986 261.602 34.5178C261.47 35.1085 261.813 35.6908 261.935 36.2855C262.151 37.367 261.625 38.5232 262.029 39.5589C262.701 41.285 265.068 41.5304 266.515 42.5203C267.05 42.8863 267.896 44.1383 268.539 44.1216C269.652 44.1008 270.441 42.2707 270.484 41.4722Z" fill="#3F3D56"/>
<path d="M239.061 77.375C238.465 77.7179 237.94 78.15 237.511 78.6519C236.971 79.3798 236.858 80.3157 236.393 81.0643C235.397 82.7031 233.063 83.2895 231.612 84.633C231.376 84.8166 231.212 85.061 231.142 85.3317C231.133 85.6976 231.271 86.0543 231.532 86.3383L238.549 96.1043C240.897 96.2873 243.124 94.9896 245.463 95.1643C246.332 95.2267 247.229 95.4929 248.065 95.2641C248.662 95.0284 249.223 94.725 249.732 94.3615C251.141 93.5796 252.982 93.4881 254.152 92.4608C255.321 91.4334 255.42 89.9236 255.406 88.5219C255.427 87.3054 255.287 86.0909 254.988 84.9033C253.955 81.16 250.719 78.2735 248.689 74.9544C247.698 73.3364 247.163 72.3922 245.073 73.5028C242.983 74.6133 241.038 76.094 239.061 77.375Z" fill="#3F3D56"/>
<path d="M324.266 72.438C325.585 73.1963 326.775 74.1179 327.798 75.1748C328.865 76.3935 329.471 77.8908 330.499 79.1386C331.528 80.3864 332.848 81.2848 333.975 82.3995C335.689 84.0881 336.849 86.1428 337.986 88.185C335.203 91.391 332.171 94.4208 328.912 97.2523C328.548 97.6309 328.068 97.9083 327.531 98.0508C327.166 98.0855 326.798 98.0394 326.458 97.9167C326.119 97.7941 325.819 97.5986 325.586 97.3479C325.079 96.8821 324.722 96.2998 324.238 95.8131C323.098 94.7722 321.579 94.1224 319.95 93.9789C318.334 93.8395 316.708 93.8187 315.089 93.9165C314.733 93.9538 314.373 93.9004 314.051 93.7626C313.811 93.6167 313.617 93.4192 313.487 93.1886C311.608 90.3271 312.195 86.7334 312.867 83.4642L314.403 75.9775C314.627 74.5481 315.058 73.1502 315.685 71.8183C316.268 70.7161 317.564 68.8444 319.17 69.1771C320.777 69.5099 322.909 71.5729 324.266 72.438Z" fill="#3F3D56"/>
<path d="M190.328 127.32L157.971 133.18L157.234 133.118L128.799 130.576V98.6664L163.607 93.4548L188.858 96.0627L188.867 96.2041V96.2707L190.328 127.32Z" fill="#FFA500"/>
<path opacity="0.1" d="M190.326 127.32L157.969 133.18L157.231 133.118V100.405L188.865 96.2041L190.326 127.32Z" fill="black"/>
<path opacity="0.05" d="M188.867 96.2707L188.858 96.279L157.234 100.405L128.799 98.6664L163.607 93.4548L188.858 96.0627L188.867 96.2041V96.2707Z" fill="black"/>
<path d="M207.236 95.7091L174.879 101.574L174.142 101.507L145.707 98.9659V67.0559L180.515 61.8443L205.766 64.4522L205.775 64.5936V64.6601L207.236 95.7091Z" fill="#3F3D56"/>
<path opacity="0.1" d="M207.235 95.7091L174.878 101.574L174.141 101.507V68.7944L205.774 64.5936L207.235 95.7091Z" fill="black"/>
<path opacity="0.05" d="M205.775 64.6601L205.766 64.6684L174.142 68.7945L145.707 67.0559L180.515 61.8443L205.766 64.4522L205.775 64.5936V64.6601Z" fill="black"/>
</g>
<defs>
<clipPath id="clip0">
<rect width="446" height="292.668" fill="white"/>
</clipPath>
</defs>
</svg>
