<svg width="1040" height="88" viewBox="0 0 1040 88" fill="none" xmlns="http://www.w3.org/2000/svg">
<mask id="mask0" mask-type="alpha" maskUnits="userSpaceOnUse" x="0" y="0" width="1040" height="88">
<rect width="1040" height="88" rx="10" fill="#3F3356"/>
</mask>
<g mask="url(#mask0)">
<path d="M8.15553 -23.0838C-129.89 -80.4729 -207.976 -26.8916 -223.315 -16.2841C-269.433 15.6098 -202.621 58.3415 -167.106 104.891C-165.151 107.453 -162.142 109.014 -158.919 109.014H-67.1421C372.094 115.269 1175.63 162.589 1185.03 123.245C1212.92 6.56288 1036.53 42.193 987.722 50.2645C945.998 57.1651 804.358 72.5674 665.615 26.6017C526.872 -19.364 294.705 19.5301 243.112 26.6017C191.519 33.6733 146.201 34.3053 8.15553 -23.0838Z" fill="#CC8500"/>
<path d="M-227.87 -40.2716C-237.84 -33.393 -242.963 -27.7202 -245.032 -24.6212C-245.757 -23.5366 -246 -22.2315 -246 -20.9272V135.09C-246 140.612 -241.523 145.09 -236 145.09H-149.076C290.22 151.332 1157.93 154.914 1114.42 119.307C1060.03 74.7989 979.148 70.6322 933.824 70.6322C888.499 70.6322 750.435 92.8864 611.673 47.0211C472.911 1.1557 212.82 55.8014 161.22 62.8576C109.621 69.9138 37.7992 68.8282 -16.5899 -5.26199C-70.9789 -79.3522 -212.53 -50.856 -227.87 -40.2716Z" fill="#FFA500"/>
</g>
</svg>
