<svg width="300" height="121" viewBox="0 0 300 121" fill="none" xmlns="http://www.w3.org/2000/svg">
<rect width="300" height="121" rx="5" fill="#E5E5E5" fill-opacity="0.67"/>
<rect x="0.5" y="0.5" width="299" height="120" rx="4.5" stroke="black" stroke-opacity="0.46"/>
<path d="M126.26 26.8C127.793 26.8 128.987 27.1733 129.84 27.92C130.693 28.6533 131.12 29.6933 131.12 31.04C131.12 32.3467 130.693 33.3667 129.84 34.1C128.987 34.8333 127.793 35.2 126.26 35.2H123.48V40H120.72V26.8H126.26ZM125.84 33.06C126.693 33.06 127.32 32.8933 127.72 32.56C128.12 32.2133 128.32 31.7 128.32 31.02C128.32 30.34 128.12 29.8333 127.72 29.5C127.32 29.1667 126.693 29 125.84 29H123.48V33.06H125.84ZM139.958 36.78H134.878L133.798 40H130.978L135.798 26.8H139.098L143.918 40H141.058L139.958 36.78ZM139.278 34.74L138.038 31.02L137.438 29.02H137.398L136.838 30.98L135.558 34.74H139.278ZM150.019 35.06V40H147.259V35.06L142.579 26.8H145.519L147.639 30.74L148.639 32.82L149.659 30.74L151.779 26.8H154.699L150.019 35.06ZM162.048 26.8H167.828C169.401 26.8 170.575 27.1133 171.348 27.74C172.121 28.3533 172.508 29.24 172.508 30.4C172.508 31.1333 172.288 31.7733 171.848 32.32C171.408 32.8533 170.788 33.1867 169.988 33.32V33.34C170.895 33.4733 171.595 33.82 172.088 34.38C172.595 34.9267 172.848 35.5933 172.848 36.38C172.848 37.5267 172.435 38.42 171.608 39.06C170.781 39.6867 169.588 40 168.028 40H162.048V26.8ZM167.448 32.34C168.915 32.34 169.648 31.7733 169.648 30.64C169.648 29.5067 168.915 28.94 167.448 28.94H164.728V32.34H167.448ZM167.788 37.92C168.521 37.92 169.068 37.7733 169.428 37.48C169.801 37.1733 169.988 36.74 169.988 36.18C169.988 35.62 169.801 35.1933 169.428 34.9C169.068 34.6067 168.521 34.46 167.788 34.46H164.728V37.92H167.788ZM181.171 35.06V40H178.411V35.06L173.731 26.8H176.671L178.791 30.74L179.791 32.82L180.811 30.74L182.931 26.8H185.851L181.171 35.06Z" fill="#343434"/>
</svg>
